<svg width="40" height="40" viewBox="0 0 40 40" fill="none" xmlns="http://www.w3.org/2000/svg"><g filter="url(#a)"><path d="M38.75 16.875v6.25a3.13 3.13 0 0 1-3.125 3.125h-.85c-1.196 7.083-7.357 12.5-14.775 12.5a1.25 1.25 0 1 1 0-2.5c6.892 0 12.5-5.608 12.5-12.5v-7.5c0-6.892-5.608-12.5-12.5-12.5S7.5 9.358 7.5 16.25V25c0 .69-.56 1.25-1.25 1.25H4.375a3.13 3.13 0 0 1-3.125-3.125v-6.25a3.13 3.13 0 0 1 3.125-3.125h.85C6.422 6.667 12.583 1.25 20 1.25s13.58 5.417 14.774 12.5h.851a3.13 3.13 0 0 1 3.125 3.125M20 6.25c-5.514 0-10 4.486-10 10v6.25c0 5.514 4.486 10 10 10s10-4.486 10-10v-6.25c0-5.514-4.486-10-10-10" fill="#000"/></g><defs><filter id="a" x="-19.335" y="-19.335" width="59.335" height="59.335" filterUnits="userSpaceOnUse" color-interpolation-filters="sRGB"><feFlood flood-opacity="0" result="BackgroundImageFix"/><feBlend in="SourceGraphic" in2="BackgroundImageFix" result="shape"/><feColorMatrix in="SourceAlpha" values="0 0 0 0 0 0 0 0 0 0 0 0 0 0 0 0 0 0 127 0" result="hardAlpha"/><feOffset dx="-19.335" dy="-19.335"/><feGaussianBlur stdDeviation="31.188"/><feComposite in2="hardAlpha" operator="arithmetic" k2="-1" k3="1"/><feColorMatrix values="0 0 0 0 0.960784 0 0 0 0 0.203922 0 0 0 0 0.32549 0 0 0 1 0"/><feBlend in2="shape" result="effect1_innerShadow_14323_186853"/><feColorMatrix in="SourceAlpha" values="0 0 0 0 0 0 0 0 0 0 0 0 0 0 0 0 0 0 127 0" result="hardAlpha"/><feOffset dx="-3" dy="-3"/><feGaussianBlur stdDeviation="5.95"/><feComposite in2="hardAlpha" operator="arithmetic" k2="-1" k3="1"/><feColorMatrix values="0 0 0 0 1 0 0 0 0 0.883669 0 0 0 0 0.463086 0 0 0 1 0"/><feBlend in2="effect1_innerShadow_14323_186853" result="effect2_innerShadow_14323_186853"/></filter></defs></svg>