<svg width="40" height="40" viewBox="0 0 40 40" fill="none" xmlns="http://www.w3.org/2000/svg"><g filter="url(#a)"><path d="M31.055 14.277v-2.213C31.055 5.964 26.09 1 19.99 1S8.926 5.964 8.926 12.064v2.213A4.426 4.426 0 0 0 4.5 18.703v15.49a4.426 4.426 0 0 0 4.426 4.426h22.129a4.426 4.426 0 0 0 4.426-4.426v-15.49a4.426 4.426 0 0 0-4.426-4.426m-17.703-2.213a6.646 6.646 0 0 1 6.638-6.638 6.646 6.646 0 0 1 6.639 6.638v2.213H13.352zm8.85 15.49a2.213 2.213 0 0 1-4.425 0V23.13a2.213 2.213 0 0 1 4.426 0z" fill="#000"/></g><defs><filter id="a" x="-19.335" y="-19.335" width="59.335" height="59.335" filterUnits="userSpaceOnUse" color-interpolation-filters="sRGB"><feFlood flood-opacity="0" result="BackgroundImageFix"/><feBlend in="SourceGraphic" in2="BackgroundImageFix" result="shape"/><feColorMatrix in="SourceAlpha" values="0 0 0 0 0 0 0 0 0 0 0 0 0 0 0 0 0 0 127 0" result="hardAlpha"/><feOffset dx="-19.335" dy="-19.335"/><feGaussianBlur stdDeviation="31.188"/><feComposite in2="hardAlpha" operator="arithmetic" k2="-1" k3="1"/><feColorMatrix values="0 0 0 0 0.960784 0 0 0 0 0.203922 0 0 0 0 0.32549 0 0 0 1 0"/><feBlend in2="shape" result="effect1_innerShadow_14323_186706"/><feColorMatrix in="SourceAlpha" values="0 0 0 0 0 0 0 0 0 0 0 0 0 0 0 0 0 0 127 0" result="hardAlpha"/><feOffset dx="-3" dy="-3"/><feGaussianBlur stdDeviation="5.95"/><feComposite in2="hardAlpha" operator="arithmetic" k2="-1" k3="1"/><feColorMatrix values="0 0 0 0 1 0 0 0 0 0.883669 0 0 0 0 0.463086 0 0 0 1 0"/><feBlend in2="effect1_innerShadow_14323_186706" result="effect2_innerShadow_14323_186706"/></filter></defs></svg>