<svg width="40" height="40" viewBox="0 0 40 40" fill="none" xmlns="http://www.w3.org/2000/svg"><g filter="url(#a)"><path d="M37.37 5.598a1.31 1.31 0 0 0-.944-1.08L20.35.049a1.3 1.3 0 0 0-.7 0L3.571 4.518a1.31 1.31 0 0 0-.944 1.08c-.093.67-2.22 16.513 3.236 24.394 5.45 7.872 13.489 9.89 13.828 9.971a1.3 1.3 0 0 0 .614 0c.34-.082 8.38-2.099 13.83-9.97C39.59 22.11 37.463 6.268 37.37 5.597m-7.003 9.25L19.4 25.812a1.304 1.304 0 0 1-1.849 0l-6.78-6.78a1.307 1.307 0 0 1 0-1.849l1.346-1.346c.51-.51 1.339-.51 1.849 0l4.51 4.51 8.695-8.696a1.307 1.307 0 0 1 1.849 0l1.346 1.346c.51.51.51 1.339 0 1.85" fill="#000"/></g><defs><filter id="a" x="-19.335" y="-19.335" width="59.335" height="59.335" filterUnits="userSpaceOnUse" color-interpolation-filters="sRGB"><feFlood flood-opacity="0" result="BackgroundImageFix"/><feBlend in="SourceGraphic" in2="BackgroundImageFix" result="shape"/><feColorMatrix in="SourceAlpha" values="0 0 0 0 0 0 0 0 0 0 0 0 0 0 0 0 0 0 127 0" result="hardAlpha"/><feOffset dx="-19.335" dy="-19.335"/><feGaussianBlur stdDeviation="31.188"/><feComposite in2="hardAlpha" operator="arithmetic" k2="-1" k3="1"/><feColorMatrix values="0 0 0 0 0.960784 0 0 0 0 0.203922 0 0 0 0 0.32549 0 0 0 1 0"/><feBlend in2="shape" result="effect1_innerShadow_14323_186849"/><feColorMatrix in="SourceAlpha" values="0 0 0 0 0 0 0 0 0 0 0 0 0 0 0 0 0 0 127 0" result="hardAlpha"/><feOffset dx="-3" dy="-3"/><feGaussianBlur stdDeviation="5.95"/><feComposite in2="hardAlpha" operator="arithmetic" k2="-1" k3="1"/><feColorMatrix values="0 0 0 0 1 0 0 0 0 0.883669 0 0 0 0 0.463086 0 0 0 1 0"/><feBlend in2="effect1_innerShadow_14323_186849" result="effect2_innerShadow_14323_186849"/></filter></defs></svg>