<svg xmlns="http://www.w3.org/2000/svg" width="26" height="26" viewBox="0 0 26 26" fill="none">
  <path fill-rule="evenodd" clip-rule="evenodd" d="M3.8999 6.17422C3.8999 5.63574 4.33642 5.19922 4.8749 5.19922H21.1249C21.6634 5.19922 22.0999 5.63574 22.0999 6.17422C22.0999 6.7127 21.6634 7.14922 21.1249 7.14922H4.8749C4.33642 7.14922 3.8999 6.7127 3.8999 6.17422Z" fill="white" fill-opacity="0.5"/>
  <path fill-rule="evenodd" clip-rule="evenodd" d="M3.8999 12.9992C3.8999 12.4607 4.33642 12.0242 4.8749 12.0242H21.1249C21.6634 12.0242 22.0999 12.4607 22.0999 12.9992C22.0999 13.5377 21.6634 13.9742 21.1249 13.9742H4.8749C4.33642 13.9742 3.8999 13.5377 3.8999 12.9992Z" fill="white" fill-opacity="0.5"/>
  <path fill-rule="evenodd" clip-rule="evenodd" d="M3.8999 19.8242C3.8999 19.2857 4.33642 18.8492 4.8749 18.8492H21.1249C21.6634 18.8492 22.0999 19.2857 22.0999 19.8242C22.0999 20.3627 21.6634 20.7992 21.1249 20.7992H4.8749C4.33642 20.7992 3.8999 20.3627 3.8999 19.8242Z" fill="white" fill-opacity="0.5"/>
</svg>