<svg xmlns="http://www.w3.org/2000/svg" width="181" height="53" viewBox="0 0 181 53" fill="none"><path d="M102.293 28.843c0-5.98 4.423-10.398 10.274-10.398 5.852 0 10.308 4.417 10.308 10.398s-4.455 10.398-10.308 10.398-10.274-4.383-10.274-10.398m16.393 0c0-3.805-2.627-6.456-6.118-6.456s-6.119 2.685-6.119 6.456 2.627 6.422 6.119 6.422 6.118-2.685 6.118-6.422m39.481-15.593h-4.274v25.995h4.274zm-23.476 5.199c-2.275 0-4.335.668-6.001 1.835V13.25h-4.274v15.597c0 1.355.225 2.628.64 3.786 1.426 3.981 5.102 6.612 9.635 6.612 5.853 0 10.308-4.35 10.308-10.398 0-6.049-4.455-10.398-10.308-10.398m0 16.82c-3.059 0-5.455-2.06-6.001-5.085a7.7 7.7 0 0 1 0-2.685c.546-3.047 2.942-5.108 6.001-5.108 3.491 0 6.118 2.65 6.118 6.456s-2.593 6.423-6.118 6.423m-33.939-19.278v23.253h-4.274v-17.3l-9.086 15.93a2.7 2.7 0 0 1-2.347 1.37h-.675c-1.496 0-2.709-1.228-2.709-2.742V21.945l-9.868 17.3h-4.947l4.273-7.497 8.27-14.511 1.49-2.615a2.7 2.7 0 0 1 2.347-1.372c1.496 0 2.709 1.228 2.709 2.742v15.755l8.27-14.51 1.49-2.615a2.7 2.7 0 0 1 2.347-1.372c1.495 0 2.709 1.228 2.709 2.742zm50.061 5.055h-4.273v18.196h4.273zm-2.137-1.28c1.181 0 2.137-.968 2.137-2.163s-.956-2.163-2.137-2.163c-1.18 0-2.136.969-2.136 2.163 0 1.195.956 2.163 2.136 2.163m31.546 6.664c-1.074-4.58-5.142-7.986-9.995-7.986s-8.921 3.407-9.995 7.986a10.5 10.5 0 0 0-.203 3.67c.107.914.333 1.792.662 2.617 1.518 3.824 5.215 6.523 9.536 6.523s8.018-2.699 9.535-6.523h-4.307a6.45 6.45 0 0 1-5.228 2.683 6.45 6.45 0 0 1-5.228-2.683 6.55 6.55 0 0 1-1.132-2.618h15.4c.675 0 1.232-.549 1.233-1.232v-.025c0-.83-.097-1.637-.278-2.412m-16.024 0c.951-2.428 3.291-4.146 6.028-4.146s5.077 1.718 6.027 4.146zm-96.89 0c-1.074-4.58-5.142-7.986-9.995-7.986s-8.922 3.407-9.995 7.986a10.5 10.5 0 0 0-.203 3.67c.107.914.333 1.792.662 2.617 1.517 3.824 5.215 6.523 9.536 6.523s8.018-2.699 9.535-6.523h-4.307a6.45 6.45 0 0 1-5.228 2.683 6.45 6.45 0 0 1-5.228-2.683 6.55 6.55 0 0 1-1.132-2.618h15.4c.675 0 1.232-.549 1.233-1.232v-.025c0-.83-.097-1.637-.278-2.412m-16.023 0c.95-2.428 3.291-4.146 6.028-4.146s5.077 1.718 6.027 4.146zM28.5 39.241V27.11c0-5.06 3.29-8.665 8.48-8.665s8.513 3.605 8.513 8.665v12.131h-4.307V27.145c0-2.877-1.629-4.61-4.206-4.61s-4.206 1.734-4.206 4.61v12.096zM13.341 13.25c-4.764 0-8.92 2.624-11.139 6.524h5.67a8.33 8.33 0 0 1 5.47-2.044c4.647 0 8.413 3.814 8.413 8.517a8.6 8.6 0 0 1-.27 2.15h4.523q.174-1.049.175-2.15c0-7.177-5.75-12.997-12.842-12.997" fill="#fff" fill-opacity=".5"/><path d="M14.314 30.448c2.29-.547 3.707-2.869 3.167-5.186s-2.834-3.752-5.124-3.205-3.707 2.868-3.167 5.186 2.835 3.752 5.124 3.205" fill="#fff" fill-opacity=".5"/><path d="M18.81 32.72a8.32 8.32 0 0 1-5.468 2.043c-4.65 0-8.415-3.813-8.415-8.517 0-.742.093-1.462.269-2.148H.674A13 13 0 0 0 .5 26.246c0 7.179 5.749 12.997 12.842 12.997 4.763 0 8.92-2.624 11.138-6.523z" fill="#fff" fill-opacity=".5"/></svg>