<svg xmlns="http://www.w3.org/2000/svg" width="194" height="59" viewBox="0 0 194 59" fill="none"><g clip-path="url(#a)"><path d="M191.965 51.005a5.49 5.49 0 0 1-5.496 5.489H6.612a5.5 5.5 0 0 1-5.503-5.489V7.235a5.5 5.5 0 0 1 5.503-5.497h179.855a5.5 5.5 0 0 1 5.078 3.393c.277.667.419 1.382.418 2.103z" fill="#fff"/><path d="M186.471 57.761H6.615a6.78 6.78 0 0 1-6.78-6.766V7.225A6.78 6.78 0 0 1 6.616.454H186.47a6.787 6.787 0 0 1 6.779 6.773v43.77c.003 3.731-3.044 6.765-6.778 6.765" fill="#A6A6A6"/><path d="M191.965 51.005a5.49 5.49 0 0 1-5.496 5.489H6.612a5.5 5.5 0 0 1-5.503-5.489V7.235a5.5 5.5 0 0 1 5.503-5.497h179.855a5.5 5.5 0 0 1 5.078 3.393c.277.667.419 1.382.418 2.103z" fill="#000"/><path d="M43.03 28.814c-.041-4.619 3.783-6.866 3.958-6.97-2.166-3.158-5.523-3.59-6.703-3.624-2.82-.296-5.554 1.687-6.99 1.687-1.466 0-3.678-1.658-6.061-1.61-3.068.048-5.938 1.824-7.512 4.581-3.248 5.622-.825 13.884 2.287 18.428 1.556 2.227 3.375 4.71 5.756 4.623 2.33-.094 3.2-1.483 6.011-1.483 2.785 0 3.602 1.483 6.03 1.427 2.5-.038 4.075-2.235 5.577-4.48 1.799-2.55 2.521-5.064 2.55-5.193-.057-.02-4.854-1.852-4.902-7.386M38.444 15.23c1.253-1.566 2.11-3.697 1.873-5.86-1.814.08-4.082 1.254-5.388 2.786-1.155 1.35-2.187 3.563-1.92 5.643 2.037.152 4.128-1.027 5.435-2.569" fill="#fff"/><path d="M186.473.453H90.137l37.733 57.308h58.603a6.784 6.784 0 0 0 6.779-6.77V7.226a6.78 6.78 0 0 0-6.779-6.773" fill="url(#b)"/><path d="M76.765 45.612H73.51l-1.783-5.602h-6.199l-1.698 5.602h-3.17l6.143-19.072h3.793zm-5.576-7.953-1.613-4.98q-.256-.763-.961-3.592h-.058q-.285 1.216-.906 3.592l-1.585 4.98zm21.342.908q0 3.508-1.907 5.544-1.708 1.812-4.24 1.812-2.734 0-3.928-1.95v7.215H79.4V36.38q-.001-2.204-.113-4.52h2.688l.17 2.18h.057q1.529-2.464 4.642-2.464 2.435 0 4.061 1.923 1.625 1.928 1.626 5.068m-3.114.111q0-2.007-.906-3.311-.991-1.358-2.66-1.358c-.754 0-1.44.253-2.052.75q-.92.752-1.202 1.968a4 4 0 0 0-.142.93v2.294q0 1.498.92 2.534.92 1.033 2.391 1.033 1.726-.002 2.688-1.33.963-1.33.963-3.51m18.935-.111q0 3.508-1.907 5.544-1.709 1.812-4.241 1.812-2.734 0-3.928-1.95v7.215H95.22V36.38a94 94 0 0 0-.114-4.52h2.688l.17 2.18h.058q1.527-2.464 4.642-2.464 2.432 0 4.062 1.923c1.081 1.286 1.626 2.974 1.626 5.068m-3.115.111q0-2.007-.908-3.311-.99-1.358-2.657-1.358c-.754 0-1.439.253-2.054.75q-.92.752-1.202 1.968-.141.566-.143.93v2.294q.001 1.498.919 2.534.919 1.031 2.394 1.033 1.728-.002 2.688-1.33.963-1.33.963-3.51m20.804 1.584c0 1.624-.568 2.944-1.696 3.962q-1.862 1.67-5.196 1.67-3.079 0-4.94-1.188l.707-2.547q2.01 1.19 4.415 1.19 1.728 0 2.688-.778.962-.78.964-2.078c0-.776-.268-1.425-.794-1.954-.529-.527-1.403-1.019-2.632-1.47q-5.01-1.868-5.011-5.463 0-2.346 1.769-3.848 1.768-1.5 4.684-1.5c1.736 0 3.183.302 4.331.906l-.767 2.49q-1.62-.876-3.665-.877c-1.078 0-1.924.265-2.529.793q-.765.706-.767 1.728 0 1.13.879 1.867.762.679 2.772 1.47 2.464.993 3.622 2.32 1.167 1.33 1.166 3.307m10.13-6.11h-3.368v6.678q-.001 2.546 1.783 2.545.82.001 1.357-.142l.085 2.32q-.904.338-2.377.338-1.81 0-2.831-1.105-1.018-1.103-1.019-3.707v-6.932h-2.007v-2.293h2.007v-2.518l3.002-.906v3.424h3.368zm15.169 4.47q0 3.171-1.812 5.207-1.895 2.095-5.037 2.094-3.03 0-4.826-2.007-1.798-2.01-1.798-5.064.001-3.197 1.853-5.234 1.856-2.037 4.998-2.038 3.026 0 4.866 2.01 1.758 1.947 1.756 5.032m-3.168.07q0-1.888-.818-3.244-.963-1.638-2.747-1.638c-1.224 0-2.163.546-2.802 1.638q-.821 1.355-.82 3.302-.001 1.893.82 3.246c.661 1.092 1.582 1.638 2.776 1.638q1.754-.002 2.747-1.665c.562-.926.844-2.014.844-3.276m13.106-4.145a5.3 5.3 0 0 0-.963-.085q-1.613-.001-2.491 1.218-.763 1.076-.763 2.716v7.216h-3.056V36.19a96 96 0 0 0-.089-4.33h2.662l.112 2.631h.085q.483-1.358 1.528-2.18a3.7 3.7 0 0 1 2.209-.736q.423.001.764.056zm13.669 3.538q.01.699-.112 1.386h-9.169q.053 2.04 1.331 3.116 1.158.96 2.998.96 2.038.001 3.71-.65l.479 2.12q-1.952.85-4.611.85-3.2-.001-5.026-1.88c-1.216-1.254-1.825-2.94-1.825-5.05q0-3.11 1.7-5.177 1.781-2.205 4.809-2.205 2.975 0 4.503 2.205c.807 1.165 1.213 2.61 1.213 4.325m-2.915-.792c.022-.907-.179-1.689-.593-2.35q-.796-1.275-2.434-1.275c-.999 0-1.813.415-2.433 1.246q-.764.991-.904 2.376zM64.643 19.802c-.85 0-1.586-.041-2.198-.112v-9.22a16.6 16.6 0 0 1 2.588-.195c3.505 0 5.119 1.724 5.119 4.534 0 3.242-1.907 4.993-5.51 4.993m.513-8.345c-.473 0-.876.029-1.21.098v7.009c.18.029.528.041 1.015.041 2.296 0 3.604-1.306 3.604-3.754 0-2.183-1.183-3.394-3.409-3.394m10.026 8.415c-1.976 0-3.256-1.474-3.256-3.476 0-2.087 1.308-3.574 3.367-3.574 1.947 0 3.256 1.404 3.256 3.463 0 2.113-1.349 3.587-3.367 3.587m.057-5.953c-1.085 0-1.78 1.015-1.78 2.434 0 1.391.71 2.406 1.766 2.406s1.766-1.085 1.766-2.435c0-1.376-.695-2.405-1.752-2.405m14.574-.958L87.7 19.719h-1.38l-.876-2.935q-.326-1.078-.543-2.182h-.029c-.11.736-.32 1.474-.541 2.182L83.4 19.72h-1.392l-1.99-6.758h1.544l.766 3.213q.27 1.147.458 2.17h.029c.11-.57.291-1.28.556-2.156l.96-3.226h1.225l.919 3.157c.222.765.402 1.516.543 2.226h.04c.097-.695.25-1.433.459-2.226l.821-3.157zm7.784 6.758h-1.502v-3.88c0-1.196-.46-1.795-1.364-1.795-.89 0-1.502.765-1.502 1.655v4.02h-1.502v-4.827c0-.597-.014-1.238-.056-1.933h1.322l.07 1.043h.041c.405-.722 1.225-1.18 2.144-1.18 1.419 0 2.35 1.084 2.35 2.85zm4.143 0h-1.504V9.86h1.504zm5.477.153c-1.974 0-3.255-1.474-3.255-3.476 0-2.087 1.307-3.574 3.365-3.574 1.948 0 3.256 1.404 3.256 3.463.001 2.113-1.349 3.587-3.366 3.587m.056-5.953c-1.085 0-1.78 1.015-1.78 2.434 0 1.391.711 2.406 1.764 2.406 1.058 0 1.766-1.085 1.766-2.435.002-1.376-.692-2.405-1.75-2.405m9.233 5.8-.109-.778h-.04c-.459.626-1.128.931-1.977.931-1.211 0-2.071-.848-2.071-1.989 0-1.668 1.446-2.53 3.95-2.53v-.125c0-.89-.471-1.336-1.403-1.336-.667 0-1.251.168-1.766.502l-.305-.988c.625-.39 1.404-.584 2.32-.584 1.766 0 2.658.931 2.658 2.796v2.489c0 .682.03 1.21.098 1.614zm-.207-3.366c-1.668 0-2.505.404-2.505 1.363 0 .709.431 1.056 1.03 1.056.764 0 1.475-.583 1.475-1.376zm8.759 3.366-.07-1.085h-.042c-.431.82-1.157 1.238-2.17 1.238-1.63 0-2.837-1.433-2.837-3.45 0-2.113 1.251-3.602 2.96-3.602.905 0 1.545.305 1.907.919h.03v-3.88h1.503v8.039c0 .653.016 1.265.056 1.821zm-.222-3.977c0-.946-.627-1.752-1.583-1.752-1.114 0-1.794.987-1.794 2.377 0 1.363.706 2.296 1.764 2.296.945 0 1.613-.821 1.613-1.794zm11.038 4.13c-1.974 0-3.254-1.474-3.254-3.476 0-2.087 1.307-3.574 3.365-3.574 1.948 0 3.256 1.404 3.256 3.463.001 2.113-1.348 3.587-3.367 3.587m.055-5.953c-1.083 0-1.779 1.015-1.779 2.434 0 1.391.71 2.406 1.765 2.406 1.058 0 1.766-1.085 1.766-2.435.003-1.376-.692-2.405-1.752-2.405m11.391 5.8h-1.504v-3.88c0-1.196-.459-1.795-1.363-1.795-.89 0-1.501.765-1.501 1.655v4.02h-1.504v-4.827c0-.597-.014-1.238-.056-1.933h1.322l.07 1.043h.042c.403-.722 1.224-1.182 2.141-1.182 1.42 0 2.353 1.085 2.353 2.85zm10.107-5.632h-1.653v3.282q-.001 1.252.875 1.252c.265 0 .487-.028.666-.07l.042 1.14q-.438.17-1.165.169c-1.184 0-1.893-.654-1.893-2.365v-3.408h-.986v-1.126h.986v-1.239l1.475-.445v1.682h1.653zm7.953 5.632h-1.501v-3.852c0-1.21-.457-1.822-1.363-1.822-.778 0-1.504.53-1.504 1.6v4.074h-1.501V9.86h1.501v4.06h.03c.473-.736 1.159-1.099 2.033-1.099 1.431 0 2.305 1.112 2.305 2.88zm8.148-3.018h-4.508c.028 1.28.876 2.002 2.13 2.002.666 0 1.28-.112 1.822-.32l.233 1.044c-.639.278-1.391.417-2.267.417-2.115 0-3.366-1.336-3.366-3.407 0-2.072 1.281-3.63 3.197-3.63 1.727 0 2.811 1.28 2.811 3.213q.014.344-.052.681m-1.378-1.07c0-1.044-.526-1.78-1.486-1.78-.863 0-1.545.75-1.643 1.78z" fill="#fff"/></g><defs><linearGradient id="b" x1="141.693" y1="57.913" x2="141.693" y2="-148.767" gradientUnits="userSpaceOnUse"><stop stop-color="#1A1A1A" stop-opacity=".1"/><stop offset=".123" stop-color="#212121" stop-opacity=".151"/><stop offset=".308" stop-color="#353535" stop-opacity=".227"/><stop offset=".532" stop-color="#575757" stop-opacity=".318"/><stop offset=".783" stop-color="#858585" stop-opacity=".421"/><stop offset="1" stop-color="#B3B3B3" stop-opacity=".51"/></linearGradient><clipPath id="a"><path fill="#fff" d="M0 .066h193.333v58H0z"/></clipPath></defs></svg>