<svg xmlns="http://www.w3.org/2000/svg" width="194" height="59" viewBox="0 0 194 59" fill="none">
  <g clip-path="url(#clip0_14843_218317)">
    <path d="M191.965 51.0052C191.965 51.7264 191.823 52.4406 191.546 53.1069C191.27 53.7732 190.865 54.3786 190.355 54.8883C189.844 55.3981 189.238 55.8022 188.572 56.0777C187.905 56.3532 187.19 56.4947 186.469 56.4939H6.61248C5.15473 56.4954 3.75607 55.918 2.72408 54.8888C1.69209 53.8595 1.11127 52.4625 1.10938 51.0052V7.23419C1.11127 5.77618 1.69186 4.3785 2.72364 3.34807C3.75543 2.31763 5.15407 1.73866 6.61248 1.73828H186.467C187.189 1.73828 187.904 1.88045 188.571 2.15666C189.238 2.43287 189.844 2.83772 190.354 3.34808C190.865 3.85844 191.269 4.46432 191.545 5.13111C191.822 5.79789 191.964 6.51253 191.963 7.23419L191.965 51.0052Z" fill="white"/>
    <path d="M186.471 57.7611H6.61483C4.81906 57.7607 3.09678 57.0481 1.8259 55.7798C0.55502 54.5114 -0.160646 52.7908 -0.164062 50.9955L-0.164062 7.22592C-0.161406 5.42974 0.553787 3.70794 1.82462 2.43825C3.09546 1.16855 4.81817 0.454641 6.61483 0.453125L186.47 0.453125C188.266 0.455398 189.989 1.16955 191.259 2.43908C192.53 3.70861 193.245 5.42997 193.249 7.22592V50.9955C193.252 54.7272 190.205 57.7611 186.471 57.7611Z" fill="#A6A6A6"/>
    <path d="M191.965 51.0052C191.965 51.7264 191.823 52.4406 191.546 53.1069C191.27 53.7732 190.865 54.3786 190.355 54.8883C189.844 55.3981 189.238 55.8022 188.572 56.0777C187.905 56.3532 187.19 56.4947 186.469 56.4939H6.61248C5.15473 56.4954 3.75607 55.918 2.72408 54.8888C1.69209 53.8595 1.11127 52.4625 1.10938 51.0052V7.23419C1.11127 5.77618 1.69186 4.3785 2.72364 3.34807C3.75543 2.31763 5.15407 1.73866 6.61248 1.73828H186.467C187.189 1.73828 187.904 1.88045 188.571 2.15666C189.238 2.43287 189.844 2.83772 190.354 3.34808C190.865 3.85844 191.269 4.46432 191.545 5.13111C191.822 5.79789 191.964 6.51253 191.963 7.23419L191.965 51.0052Z" fill="black"/>
    <path d="M43.0305 28.8139C42.9889 24.195 46.8134 21.9479 46.9883 21.8433C44.8224 18.6862 41.4652 18.2548 40.2854 18.2204C37.4658 17.9238 34.7307 19.9072 33.2944 19.9072C31.8294 19.9072 29.6175 18.2491 27.2336 18.2978C24.166 18.3451 21.2962 20.1207 19.7222 22.878C16.474 28.5 18.8966 36.7618 22.0086 41.3061C23.5654 43.5332 25.3845 46.0167 27.7655 45.9293C30.0949 45.8347 30.965 44.446 33.776 44.446C36.5613 44.446 37.3783 45.9293 39.8066 45.8734C42.3066 45.8347 43.8806 43.6378 45.3828 41.3921C47.1818 38.8427 47.9043 36.329 47.933 36.2C47.8757 36.18 43.0793 34.3485 43.0305 28.8139ZM38.4434 15.231C39.6963 13.6646 40.5535 11.5336 40.3155 9.37109C38.5022 9.45135 36.2344 10.6251 34.9285 12.157C33.7731 13.507 32.741 15.7197 33.0077 17.8005C35.0446 17.9525 37.1361 16.773 38.4434 15.231Z" fill="white"/>
    <path d="M186.473 0.453125H90.1367L127.87 57.7611H186.473C188.269 57.7596 189.992 57.0461 191.262 55.777C192.533 54.5079 193.249 52.7868 193.252 50.9912V7.22592C193.249 5.42985 192.534 3.70828 191.263 2.43866C189.992 1.16905 188.27 0.455019 186.473 0.453125Z" fill="url(#paint0_linear_14843_218317)"/>
    <path d="M76.7652 45.6117H73.5098L71.7266 40.0098H65.5282L63.8296 45.6117H60.6602L66.8026 26.5401H70.5956L76.7652 45.6117ZM71.189 37.6595L69.5764 32.6795C69.4058 32.1708 69.0847 30.9727 68.6145 29.0867H68.5572C68.3679 29.8979 68.0655 31.0959 67.6512 32.6795L66.0658 37.6595H71.189ZM92.5306 38.5666C92.5306 40.9055 91.8955 42.7541 90.624 44.1113C89.4859 45.3194 88.071 45.9227 86.3838 45.9227C84.5619 45.9227 83.2517 45.2735 82.4561 43.9723V51.1879H79.3999V36.3797C79.3999 34.9108 79.3612 33.4046 79.2867 31.8598H81.9745L82.145 34.0395H82.2024C83.2216 32.3972 84.7683 31.576 86.844 31.576C88.4667 31.576 89.8213 32.2166 90.905 33.4992C91.9873 34.7847 92.5306 36.4729 92.5306 38.5666ZM89.4171 38.6784C89.4171 37.3399 89.116 36.2364 88.5111 35.3666C87.8503 34.4623 86.9629 34.0094 85.8506 34.0094C85.0966 34.0094 84.4114 34.2616 83.7993 34.7589C83.1857 35.2605 82.7844 35.9154 82.5966 36.7266C82.5128 37.0299 82.4651 37.3421 82.4547 37.6566V39.951C82.4547 40.9499 82.7614 41.794 83.375 42.4847C83.9885 43.1726 84.7855 43.518 85.766 43.518C86.9171 43.518 87.813 43.0723 88.4538 42.1881C89.096 41.301 89.4171 40.1316 89.4171 38.6784ZM108.352 38.5666C108.352 40.9055 107.717 42.7541 106.445 44.1113C105.306 45.3194 103.892 45.9227 102.204 45.9227C100.382 45.9227 99.0715 45.2735 98.2759 43.9723V51.1879H95.2198V36.3797C95.2198 34.9108 95.181 33.4046 95.1065 31.8598H97.7943L97.9649 34.0395H98.0222C99.04 32.3972 100.587 31.576 102.664 31.576C104.285 31.576 105.64 32.2166 106.726 33.4992C107.807 34.7847 108.352 36.4729 108.352 38.5666ZM105.237 38.6784C105.237 37.3399 104.934 36.2364 104.329 35.3666C103.669 34.4623 102.784 34.0094 101.672 34.0094C100.918 34.0094 100.233 34.2616 99.6177 34.7589C99.0041 35.2605 98.6042 35.9154 98.4164 36.7266C98.3232 37.1049 98.273 37.413 98.273 37.6566V39.951C98.273 40.9499 98.5812 41.794 99.1919 42.4847C99.8054 43.1712 100.602 43.518 101.586 43.518C102.738 43.518 103.634 43.0723 104.274 42.1881C104.916 41.301 105.237 40.1316 105.237 38.6784ZM126.041 40.262C126.041 41.8857 125.473 43.2056 124.345 44.2245C123.104 45.3366 121.371 45.8941 119.149 45.8941C117.096 45.8941 115.45 45.4985 114.209 44.706L114.916 42.1594C116.256 42.9533 117.728 43.3489 119.331 43.3489C120.483 43.3489 121.379 43.0881 122.019 42.5707C122.659 42.0519 122.983 41.3583 122.983 40.4927C122.983 39.7174 122.715 39.0682 122.189 38.5394C121.66 38.012 120.786 37.5205 119.557 37.0691C116.217 35.8237 114.546 34.0022 114.546 31.6061C114.546 30.0412 115.136 28.76 116.315 27.7583C117.493 26.758 119.056 26.2578 120.999 26.2578C122.735 26.2578 124.182 26.5602 125.33 27.1635L124.563 29.6542C123.482 29.0695 122.262 28.7772 120.898 28.7772C119.82 28.7772 118.974 29.0423 118.369 29.5697C117.86 30.0412 117.602 30.6158 117.602 31.298C117.602 32.0504 117.896 32.6752 118.481 33.1653C118.988 33.6167 119.914 34.1083 121.253 34.6357C122.896 35.2978 124.103 36.0688 124.875 36.9544C125.654 37.8401 126.041 38.945 126.041 40.262ZM136.171 34.1527H132.803V40.8295C132.803 42.5277 133.396 43.3747 134.586 43.3747C135.132 43.3747 135.585 43.3288 135.943 43.2328L136.028 45.553C135.426 45.778 134.633 45.8912 133.651 45.8912C132.444 45.8912 131.501 45.5229 130.82 44.7863C130.142 44.0497 129.801 42.8158 129.801 41.0789V34.147H127.794V31.854H129.801V29.3361L132.803 28.4304V31.854H136.171V34.1527ZM151.34 38.6225C151.34 40.7364 150.735 42.4718 149.528 43.829C148.265 45.2262 146.585 45.9227 144.491 45.9227C142.47 45.9227 140.863 45.2535 139.665 43.9164C138.466 42.5764 137.867 40.8883 137.867 38.8518C137.867 36.7208 138.486 34.9753 139.72 33.6182C140.958 32.2596 142.623 31.5803 144.718 31.5803C146.736 31.5803 148.357 32.251 149.584 33.5895C150.757 34.8879 151.34 36.5646 151.34 38.6225ZM148.172 38.6928C148.172 37.4331 147.9 36.3525 147.354 35.4482C146.713 34.3562 145.796 33.8102 144.607 33.8102C143.383 33.8102 142.444 34.3562 141.805 35.4482C141.257 36.3525 140.985 37.4517 140.985 38.7501C140.985 40.0112 141.257 41.0946 141.805 41.996C142.466 43.0881 143.387 43.6341 144.581 43.6341C145.75 43.6341 146.666 43.0766 147.328 41.9688C147.89 41.043 148.172 39.9553 148.172 38.6928ZM161.278 34.5468C160.961 34.4895 160.638 34.4612 160.315 34.4623C159.24 34.4623 158.409 34.8664 157.824 35.6804C157.316 36.3969 157.061 37.3027 157.061 38.3961V45.6117H154.005V36.1906C154.008 34.747 153.978 33.3035 153.916 31.8612H156.578L156.69 34.4924H156.775C157.098 33.5881 157.606 32.8586 158.303 32.3126C158.94 31.8355 159.715 31.5772 160.512 31.576C160.794 31.576 161.049 31.5961 161.276 31.6319L161.278 34.5468ZM174.947 38.0851C174.954 38.5496 174.917 39.0137 174.835 39.4709H165.666C165.701 40.8295 166.145 41.8699 166.997 42.5865C167.769 43.2256 168.768 43.5466 169.995 43.5466C171.353 43.5466 172.591 43.3317 173.705 42.8975L174.184 45.017C172.882 45.5845 171.346 45.8668 169.573 45.8668C167.44 45.8668 165.765 45.2391 164.547 43.9866C163.331 42.7327 162.722 41.0473 162.722 38.9364C162.722 36.8641 163.288 35.1373 164.422 33.7601C165.609 32.2897 167.213 31.5545 169.231 31.5545C171.214 31.5545 172.715 32.2897 173.734 33.7601C174.541 34.9252 174.947 36.3697 174.947 38.0851ZM172.032 37.2926C172.054 36.3855 171.853 35.6044 171.439 34.9438C170.91 34.0925 170.096 33.6683 169.005 33.6683C168.006 33.6683 167.192 34.0825 166.572 34.9137C166.063 35.5743 165.761 36.3683 165.668 37.2898L172.032 37.2926Z" fill="white"/>
    <path d="M64.6428 19.8022C63.7928 19.8022 63.0574 19.7606 62.4453 19.6904V10.4699C63.3014 10.3377 64.1665 10.2725 65.0327 10.275C68.5376 10.275 70.1517 11.999 70.1517 14.8093C70.1517 18.0509 68.2451 19.8022 64.6428 19.8022ZM65.156 11.4573C64.683 11.4573 64.2802 11.4859 63.9462 11.5547V18.564C64.1268 18.5926 64.4737 18.6055 64.9611 18.6055C67.2575 18.6055 68.5648 17.2986 68.5648 14.8508C68.5648 12.6682 67.3822 11.4573 65.156 11.4573ZM75.1817 19.8724C73.2064 19.8724 71.9263 18.3977 71.9263 16.3957C71.9263 14.3091 73.2336 12.8216 75.2935 12.8216C77.2402 12.8216 78.5489 14.226 78.5489 16.2854C78.5489 18.3977 77.2 19.8724 75.1817 19.8724ZM75.2391 13.9193C74.1539 13.9193 73.4587 14.934 73.4587 16.3527C73.4587 17.7443 74.1682 18.7589 75.2247 18.7589C76.2812 18.7589 76.9908 17.674 76.9908 16.3241C76.9908 14.9483 76.2955 13.9193 75.2391 13.9193ZM89.8132 12.9606L87.6988 19.7191H86.3212L85.4454 16.7841C85.2276 16.0662 85.0463 15.3377 84.9021 14.6015H84.8734C84.7631 15.3381 84.5538 16.0761 84.3316 16.7841L83.3998 19.7191H82.0079L80.0183 12.9606H81.5621L82.3276 16.1736C82.5082 16.9389 82.6601 17.6611 82.7863 18.3433H82.815C82.9253 17.7743 83.106 17.0635 83.3711 16.1879L84.3316 12.962H85.5558L86.4746 16.1191C86.6968 16.8844 86.8774 17.6353 87.0179 18.3447H87.058C87.1555 17.6497 87.3089 16.9116 87.5168 16.1191L88.3381 12.962L89.8132 12.9606ZM97.5969 19.7191H96.0947V15.8382C96.0947 14.643 95.6359 14.044 94.7314 14.044C93.8412 14.044 93.2291 14.8093 93.2291 15.6992V19.7191H91.7269V14.8924C91.7269 14.2948 91.7125 13.6542 91.671 12.9592H92.9926L93.0629 14.0024H93.1044C93.5087 13.2802 94.3286 12.8216 95.2475 12.8216C96.6666 12.8216 97.5984 13.9064 97.5984 15.672L97.5969 19.7191ZM101.74 19.7191H100.236V9.85938H101.74V19.7191ZM107.217 19.8724C105.243 19.8724 103.962 18.3977 103.962 16.3957C103.962 14.3091 105.269 12.8216 107.327 12.8216C109.275 12.8216 110.583 14.226 110.583 16.2854C110.584 18.3977 109.234 19.8724 107.217 19.8724ZM107.273 13.9193C106.188 13.9193 105.493 14.934 105.493 16.3527C105.493 17.7443 106.204 18.7589 107.257 18.7589C108.315 18.7589 109.023 17.674 109.023 16.3241C109.025 14.9483 108.331 13.9193 107.273 13.9193ZM116.506 19.7191L116.397 18.9409H116.357C115.898 19.5672 115.229 19.8724 114.38 19.8724C113.169 19.8724 112.309 19.024 112.309 17.8833C112.309 16.2151 113.755 15.3524 116.259 15.3524V15.2277C116.259 14.3378 115.788 13.8921 114.856 13.8921C114.189 13.8921 113.605 14.0598 113.09 14.3937L112.785 13.4063C113.41 13.0165 114.189 12.8216 115.105 12.8216C116.871 12.8216 117.763 13.7531 117.763 15.6175V18.1068C117.763 18.789 117.793 19.3178 117.861 19.7205L116.506 19.7191ZM116.299 16.3527C114.631 16.3527 113.794 16.7569 113.794 17.7156C113.794 18.425 114.225 18.7718 114.824 18.7718C115.588 18.7718 116.299 18.1885 116.299 17.396V16.3527ZM125.058 19.7191L124.988 18.6342H124.946C124.515 19.4539 123.789 19.8724 122.776 19.8724C121.146 19.8724 119.939 18.4393 119.939 16.4229C119.939 14.3091 121.19 12.8201 122.899 12.8201C123.804 12.8201 124.444 13.1254 124.806 13.7388H124.836V9.85938H126.339V17.8976C126.339 18.5511 126.355 19.163 126.395 19.7191H125.058ZM124.836 15.7422C124.836 14.7964 124.209 13.9896 123.253 13.9896C122.139 13.9896 121.459 14.977 121.459 16.3671C121.459 17.7299 122.165 18.6629 123.223 18.6629C124.168 18.6629 124.836 17.8417 124.836 16.8686V15.7422ZM135.874 19.8724C133.9 19.8724 132.62 18.3977 132.62 16.3957C132.62 14.3091 133.927 12.8216 135.985 12.8216C137.933 12.8216 139.241 14.226 139.241 16.2854C139.242 18.3977 137.893 19.8724 135.874 19.8724ZM135.929 13.9193C134.846 13.9193 134.15 14.934 134.15 16.3527C134.15 17.7443 134.86 18.7589 135.915 18.7589C136.973 18.7589 137.681 17.674 137.681 16.3241C137.684 14.9483 136.989 13.9193 135.929 13.9193ZM147.32 19.7191H145.816V15.8382C145.816 14.643 145.357 14.044 144.453 14.044C143.563 14.044 142.952 14.8093 142.952 15.6992V19.7191H141.448V14.8924C141.448 14.2948 141.434 13.6542 141.392 12.9592H142.714L142.784 14.0024H142.826C143.229 13.2802 144.05 12.8201 144.967 12.8201C146.387 12.8201 147.32 13.905 147.32 15.6706V19.7191ZM157.427 14.087H155.774V17.3688C155.774 18.2043 156.064 18.6213 156.649 18.6213C156.914 18.6213 157.136 18.5926 157.315 18.5511L157.357 19.6918C157.066 19.8036 156.676 19.8595 156.192 19.8595C155.008 19.8595 154.299 19.206 154.299 17.4949V14.087H153.313V12.9606H154.299V11.7224L155.774 11.2767V12.9592H157.427V14.087ZM165.38 19.7191H163.879V15.8669C163.879 14.6574 163.422 14.0454 162.516 14.0454C161.738 14.0454 161.012 14.5743 161.012 15.6448V19.7191H159.511V9.85938H161.012V13.9193H161.042C161.515 13.1827 162.201 12.8201 163.075 12.8201C164.506 12.8201 165.38 13.9322 165.38 15.6992V19.7191ZM173.528 16.701H169.02C169.048 17.9807 169.896 18.703 171.15 18.703C171.816 18.703 172.43 18.5912 172.972 18.3834L173.205 19.4267C172.566 19.7047 171.814 19.8437 170.938 19.8437C168.823 19.8437 167.572 18.5081 167.572 16.4373C167.572 14.365 168.853 12.8072 170.769 12.8072C172.496 12.8072 173.58 14.087 173.58 16.0202C173.589 16.2484 173.572 16.4769 173.528 16.701ZM172.15 15.6304C172.15 14.5872 171.624 13.8505 170.664 13.8505C169.801 13.8505 169.119 14.6015 169.021 15.6304H172.15Z" fill="white"/>
  </g>
  <defs>
    <linearGradient id="paint0_linear_14843_218317" x1="141.693" y1="57.9132" x2="141.693" y2="-148.767" gradientUnits="userSpaceOnUse">
      <stop stop-color="#1A1A1A" stop-opacity="0.1"/>
      <stop offset="0.123" stop-color="#212121" stop-opacity="0.151"/>
      <stop offset="0.308" stop-color="#353535" stop-opacity="0.227"/>
      <stop offset="0.532" stop-color="#575757" stop-opacity="0.318"/>
      <stop offset="0.783" stop-color="#858585" stop-opacity="0.421"/>
      <stop offset="1" stop-color="#B3B3B3" stop-opacity="0.51"/>
    </linearGradient>
    <clipPath id="clip0_14843_218317">
      <rect width="193.333" height="58" fill="white" transform="translate(0 0.0664062)"/>
    </clipPath>
  </defs>
</svg>