<svg xmlns="http://www.w3.org/2000/svg" width="194" height="59" viewBox="0 0 194 59" fill="none"><g clip-path="url(#a)"><path d="M187.057 57.761H8.017c-4.01 0-7.162-3.15-7.162-7.161V7.63C.855 3.62 4.007.47 8.017.47h179.04c4.01 0 7.161 3.15 7.161 7.161V50.6c0 4.01-3.151 7.161-7.161 7.161" fill="#000"/><path d="M187.057 1.615c3.294 0 6.015 2.721 6.015 6.015V50.6c0 3.294-2.721 6.016-6.015 6.016H8.017c-3.294 0-6.016-2.722-6.016-6.016V7.63c0-3.294 2.722-6.015 6.016-6.015zm0-1.146H8.017C4.007.469.855 3.763.855 7.63V50.6c0 4.01 3.152 7.161 7.162 7.161h179.04c4.01 0 7.161-3.15 7.161-7.161V7.63c0-3.867-3.151-7.161-7.161-7.161" fill="#A6A6A6"/><path d="M68.75 15.074c0 1.146-.286 2.149-1.002 2.865-.86.86-1.863 1.289-3.152 1.289s-2.291-.43-3.15-1.29c-.86-.858-1.29-1.861-1.29-3.15 0-1.29.43-2.292 1.29-3.151.859-.86 1.861-1.29 3.15-1.29q.86 0 1.72.43c.572.287 1.002.573 1.288 1.003l-.716.716c-.573-.716-1.289-1.003-2.292-1.003-.859 0-1.718.287-2.291 1.003-.716.573-1.003 1.432-1.003 2.435s.287 1.862 1.003 2.435 1.432 1.003 2.291 1.003c1.003 0 1.72-.287 2.435-1.003.43-.43.716-1.003.716-1.719h-3.15v-1.146h4.153zm6.589-3.58h-3.867v2.72h3.58v1.003h-3.58v2.722h3.867v1.146h-5.013V10.49h5.013zm4.727 7.59H78.92v-7.59h-2.435V10.49H82.5v1.002h-2.434zm6.588 0v-8.593H87.8v8.594zm6.016 0h-1.146v-7.59h-2.435V10.49h5.873v1.002h-2.435v7.592zm13.607-1.145c-.86.86-1.862 1.289-3.151 1.289s-2.292-.43-3.151-1.29c-.86-.858-1.29-1.861-1.29-3.15 0-1.29.43-2.292 1.29-3.151.859-.86 1.862-1.29 3.151-1.29s2.291.43 3.151 1.29 1.289 1.862 1.289 3.15c0 1.29-.43 2.292-1.289 3.152Zm-5.443-.716c.573.573 1.432 1.002 2.292 1.002s1.719-.286 2.291-1.002a3.46 3.46 0 0 0 1.003-2.435c0-1.003-.286-1.862-1.003-2.435-.572-.573-1.432-1.003-2.291-1.003-.86 0-1.719.287-2.292 1.003a3.46 3.46 0 0 0-1.003 2.435c0 1.002.287 1.862 1.003 2.435Zm8.307 1.862V10.49h1.29l4.153 6.732V10.49h1.146v8.594h-1.146l-4.44-7.019v7.019z" fill="#fff" stroke="#fff" stroke-width=".286" stroke-miterlimit="10"/><path d="M98.4 31.681c-3.438 0-6.16 2.578-6.16 6.16a6.113 6.113 0 0 0 6.16 6.158c3.437 0 6.158-2.578 6.158-6.159 0-3.724-2.721-6.159-6.159-6.159m0 9.74c-1.863 0-3.438-1.576-3.438-3.724s1.575-3.724 3.437-3.724 3.438 1.432 3.438 3.724c0 2.148-1.576 3.724-3.438 3.724m-13.321-9.74c-3.438 0-6.16 2.578-6.16 6.16a6.113 6.113 0 0 0 6.16 6.158c3.437 0 6.159-2.578 6.159-6.159 0-3.724-2.722-6.159-6.16-6.159m0 9.74c-1.862 0-3.438-1.576-3.438-3.724s1.576-3.724 3.438-3.724 3.437 1.432 3.437 3.724c0 2.148-1.575 3.724-3.437 3.724m-15.9-7.878v2.578h6.16c-.143 1.433-.716 2.578-1.433 3.295-.859.859-2.291 1.862-4.726 1.862-3.867 0-6.732-3.008-6.732-6.875s3.008-6.876 6.732-6.876c2.005 0 3.58.86 4.726 1.862l1.862-1.862c-1.575-1.432-3.58-2.578-6.445-2.578-5.156 0-9.596 4.297-9.596 9.454 0 5.156 4.44 9.453 9.596 9.453 2.865 0 4.87-.86 6.589-2.722 1.718-1.718 2.291-4.153 2.291-6.015 0-.573 0-1.146-.143-1.576zm65.028 2.005c-.573-1.432-2.005-3.867-5.156-3.867s-5.73 2.435-5.73 6.16c0 3.437 2.579 6.158 6.016 6.158 2.722 0 4.44-1.719 5.013-2.721l-2.005-1.433c-.716 1.003-1.576 1.72-3.008 1.72s-2.292-.574-3.008-1.863l8.165-3.437zm-8.307 2.006c0-2.292 1.862-3.581 3.151-3.581 1.002 0 2.005.573 2.291 1.289zm-6.732 5.872h2.721V25.522h-2.721zm-4.297-10.456c-.716-.716-1.862-1.432-3.295-1.432-3.007 0-5.872 2.721-5.872 6.159s2.721 6.016 5.872 6.016c1.433 0 2.579-.717 3.152-1.433h.143v.86c0 2.291-1.289 3.58-3.295 3.58-1.575 0-2.721-1.145-3.007-2.148l-2.292 1.003c.716 1.575 2.435 3.58 5.443 3.58 3.151 0 5.729-1.862 5.729-6.302V31.968h-2.578zm-3.151 8.45c-1.862 0-3.438-1.575-3.438-3.723 0-2.149 1.576-3.724 3.438-3.724s3.294 1.575 3.294 3.724-1.432 3.724-3.294 3.724m34.948-15.898h-6.445v17.904h2.721v-6.732h3.724c3.008 0 5.873-2.148 5.873-5.586 0-3.437-2.865-5.586-5.873-5.586m.143 8.594h-3.867v-6.159h3.867c2.006 0 3.152 1.719 3.152 3.008-.144 1.576-1.29 3.151-3.152 3.151m16.472-2.578c-2.005 0-4.01.86-4.727 2.721l2.435 1.003c.573-1.003 1.433-1.29 2.435-1.29 1.433 0 2.722.86 2.865 2.292v.144c-.43-.287-1.576-.716-2.721-.716-2.579 0-5.157 1.432-5.157 4.01 0 2.435 2.149 4.01 4.44 4.01 1.862 0 2.722-.859 3.438-1.718h.143v1.432h2.578v-6.875c-.286-3.151-2.721-5.013-5.729-5.013m-.286 9.883c-.86 0-2.149-.43-2.149-1.576 0-1.432 1.576-1.862 2.865-1.862 1.146 0 1.719.287 2.435.573-.287 1.719-1.719 2.865-3.151 2.865m15.039-9.453-3.008 7.734h-.143l-3.151-7.734h-2.865l4.727 10.885-2.722 6.016h2.722l7.305-16.901zM153.97 43.427h2.721V25.522h-2.721z" fill="#fff"/><path d="M15.753 11.2c-.43.429-.573 1.145-.573 2.005v31.654c0 .86.286 1.575.716 2.005l.143.143 17.76-17.76v-.287z" fill="url(#b)"/><path d="m39.529 35.265-5.873-5.873v-.43l5.873-5.872.143.143 7.018 4.01c2.006 1.146 2.006 3.008 0 4.154z" fill="url(#c)"/><path d="m39.678 35.133-6.016-6.016-17.904 17.904c.716.716 1.719.716 3.008.143z" fill="url(#d)"/><path d="M39.678 23.105 18.766 11.217c-1.29-.716-2.292-.573-3.008.143l17.904 17.76z" fill="url(#e)"/><path opacity=".2" d="M39.534 34.977 18.766 46.722c-1.146.716-2.149.572-2.865 0l-.143.143.143.143c.716.573 1.719.716 2.865 0z" fill="#000"/><path opacity=".12" d="M15.753 46.735c-.43-.43-.573-1.146-.573-2.006v.144c0 .86.286 1.575.716 2.005v-.143zM46.69 30.979l-7.162 4.01.143.144 7.019-4.01c1.002-.574 1.432-1.29 1.432-2.006 0 .716-.573 1.29-1.432 1.862" fill="#000"/><path opacity=".25" d="m18.76 11.36 27.93 15.898c.86.573 1.433 1.146 1.433 1.862 0-.716-.43-1.432-1.432-2.005L18.76 11.216c-2.006-1.146-3.581-.286-3.581 2.006v.143c0-2.149 1.575-3.151 3.58-2.005" fill="#fff"/></g><defs><linearGradient id="b" x1="32.081" y1="12.932" x2="8.042" y2="36.969" gradientUnits="userSpaceOnUse"><stop stop-color="#00A0FF"/><stop offset=".007" stop-color="#00A1FF"/><stop offset=".26" stop-color="#00BEFF"/><stop offset=".512" stop-color="#00D2FF"/><stop offset=".76" stop-color="#00DFFF"/><stop offset="1" stop-color="#00E3FF"/></linearGradient><linearGradient id="c" x1="49.317" y1="29.107" x2="14.659" y2="29.107" gradientUnits="userSpaceOnUse"><stop stop-color="#FFE000"/><stop offset=".409" stop-color="#FFBD00"/><stop offset=".775" stop-color="orange"/><stop offset="1" stop-color="#FF9C00"/></linearGradient><linearGradient id="d" x1="36.422" y1="32.406" x2="3.825" y2="65.002" gradientUnits="userSpaceOnUse"><stop stop-color="#FF3A44"/><stop offset="1" stop-color="#C31162"/></linearGradient><linearGradient id="e" x1="11.313" y1=".727" x2="25.87" y2="15.283" gradientUnits="userSpaceOnUse"><stop stop-color="#32A071"/><stop offset=".069" stop-color="#2DA771"/><stop offset=".476" stop-color="#15CF74"/><stop offset=".801" stop-color="#06E775"/><stop offset="1" stop-color="#00F076"/></linearGradient><clipPath id="a"><path fill="#fff" d="M.668.066h193.333v58H.668z"/></clipPath></defs></svg>