<svg xmlns="http://www.w3.org/2000/svg" width="194" height="59" viewBox="0 0 194 59" fill="none">
  <g clip-path="url(#clip0_14843_218328)">
    <path d="M187.057 57.7614H8.01705C4.00657 57.7614 0.855469 54.6103 0.855469 50.5998V7.63033C0.855469 3.61985 4.00657 0.46875 8.01705 0.46875H187.057C191.067 0.46875 194.218 3.61985 194.218 7.63033V50.5998C194.218 54.6103 191.067 57.7614 187.057 57.7614Z" fill="black"/>
    <path d="M187.057 1.6146C190.351 1.6146 193.072 4.33601 193.072 7.63033V50.5998C193.072 53.8942 190.351 56.6156 187.057 56.6156H8.01705C4.72273 56.6156 2.00132 53.8942 2.00132 50.5998V7.63033C2.00132 4.33601 4.72273 1.6146 8.01705 1.6146H187.057ZM187.057 0.46875H8.01705C4.00657 0.46875 0.855469 3.76308 0.855469 7.63033V50.5998C0.855469 54.6103 4.00657 57.7614 8.01705 57.7614H187.057C191.067 57.7614 194.218 54.6103 194.218 50.5998V7.63033C194.218 3.76308 191.067 0.46875 187.057 0.46875Z" fill="#A6A6A6"/>
    <path d="M68.7502 15.0743C68.7502 16.2202 68.4637 17.2228 67.7475 17.9389C66.8881 18.7983 65.8855 19.228 64.5964 19.228C63.3073 19.228 62.3047 18.7983 61.4453 17.9389C60.5859 17.0795 60.1562 16.0769 60.1562 14.7878C60.1562 13.4988 60.5859 12.4961 61.4453 11.6367C62.3047 10.7774 63.3073 10.3477 64.5964 10.3477C65.1694 10.3477 65.7423 10.4909 66.3152 10.7774C66.8881 11.0638 67.3178 11.3503 67.6043 11.78L66.8881 12.4961C66.3152 11.78 65.5991 11.4935 64.5964 11.4935C63.737 11.4935 62.8777 11.78 62.3047 12.4961C61.5886 13.0691 61.3021 13.9284 61.3021 14.9311C61.3021 15.9337 61.5886 16.7931 62.3047 17.366C63.0209 17.9389 63.737 18.3686 64.5964 18.3686C65.5991 18.3686 66.3152 18.0822 67.0314 17.366C67.4611 16.9363 67.7475 16.3634 67.7475 15.6472H64.5964V14.5014H68.7502V15.0743ZM75.3388 11.4935H71.4716V14.2149H75.0523V15.2175H71.4716V17.9389H75.3388V19.0848H70.3257V10.4909H75.3388V11.4935ZM80.0655 19.0848H78.9196V11.4935H76.4847V10.4909H82.5004V11.4935H80.0655V19.0848ZM86.6541 19.0848V10.4909H87.8V19.0848H86.6541ZM92.6698 19.0848H91.524V11.4935H89.0891V10.4909H94.9615V11.4935H92.5266V19.0848H92.6698ZM106.277 17.9389C105.417 18.7983 104.415 19.228 103.126 19.228C101.837 19.228 100.834 18.7983 99.9747 17.9389C99.1153 17.0795 98.6856 16.0769 98.6856 14.7878C98.6856 13.4988 99.1153 12.4961 99.9747 11.6367C100.834 10.7774 101.837 10.3477 103.126 10.3477C104.415 10.3477 105.417 10.7774 106.277 11.6367C107.136 12.4961 107.566 13.4988 107.566 14.7878C107.566 16.0769 107.136 17.0795 106.277 17.9389ZM100.834 17.2228C101.407 17.7957 102.266 18.2254 103.126 18.2254C103.985 18.2254 104.845 17.9389 105.417 17.2228C105.99 16.6499 106.42 15.7905 106.42 14.7878C106.42 13.7852 106.134 12.9258 105.417 12.3529C104.845 11.78 103.985 11.3503 103.126 11.3503C102.266 11.3503 101.407 11.6367 100.834 12.3529C100.261 12.9258 99.8314 13.7852 99.8314 14.7878C99.8314 15.7905 100.118 16.6499 100.834 17.2228ZM109.141 19.0848V10.4909H110.431L114.584 17.2228V10.4909H115.73V19.0848H114.584L110.144 12.0664V19.0848H109.141Z" fill="white" stroke="white" stroke-width="0.286463" stroke-miterlimit="10"/>
    <path d="M98.3991 31.6811C94.9616 31.6811 92.2402 34.2593 92.2402 37.8401C92.2402 41.2776 94.9616 43.999 98.3991 43.999C101.837 43.999 104.558 41.4209 104.558 37.8401C104.558 34.116 101.837 31.6811 98.3991 31.6811ZM98.3991 41.4209C96.5371 41.4209 94.9616 39.8453 94.9616 37.6968C94.9616 35.5484 96.5371 33.9728 98.3991 33.9728C100.261 33.9728 101.837 35.4051 101.837 37.6968C101.837 39.8453 100.261 41.4209 98.3991 41.4209ZM85.0786 31.6811C81.641 31.6811 78.9196 34.2593 78.9196 37.8401C78.9196 41.2776 81.641 43.999 85.0786 43.999C88.5161 43.999 91.2375 41.4209 91.2375 37.8401C91.2375 34.116 88.5161 31.6811 85.0786 31.6811ZM85.0786 41.4209C83.2166 41.4209 81.641 39.8453 81.641 37.6968C81.641 35.5484 83.2166 33.9728 85.0786 33.9728C86.9406 33.9728 88.5161 35.4051 88.5161 37.6968C88.5161 39.8453 86.9406 41.4209 85.0786 41.4209ZM69.1799 33.5431V36.1213H75.3388C75.1956 37.5536 74.6227 38.6995 73.9065 39.4156C73.0471 40.275 71.6148 41.2776 69.1799 41.2776C65.3126 41.2776 62.448 38.2698 62.448 34.4025C62.448 30.5353 65.4558 27.5274 69.1799 27.5274C71.1851 27.5274 72.7607 28.3868 73.9065 29.3894L75.7685 27.5274C74.193 26.0951 72.1877 24.9492 69.3231 24.9492C64.1667 24.9492 59.7266 29.2462 59.7266 34.4025C59.7266 39.5589 64.1667 43.8558 69.3231 43.8558C72.1877 43.8558 74.193 42.9964 75.9118 41.1344C77.6305 39.4156 78.2035 36.9807 78.2035 35.1187C78.2035 34.5457 78.2035 33.9728 78.0602 33.5431H69.1799ZM134.207 35.5484C133.634 34.116 132.202 31.6811 129.051 31.6811C125.9 31.6811 123.321 34.116 123.321 37.8401C123.321 41.2776 125.9 43.999 129.337 43.999C132.059 43.999 133.777 42.2803 134.35 41.2776L132.345 39.8453C131.629 40.8479 130.769 41.5641 129.337 41.5641C127.905 41.5641 127.045 40.9912 126.329 39.7021L134.494 36.2645L134.207 35.5484ZM125.9 37.5536C125.9 35.2619 127.762 33.9728 129.051 33.9728C130.053 33.9728 131.056 34.5457 131.342 35.2619L125.9 37.5536ZM119.168 43.4261H121.889V25.5221H119.168V43.4261ZM114.871 32.9702C114.155 32.254 113.009 31.5379 111.576 31.5379C108.569 31.5379 105.704 34.2593 105.704 37.6968C105.704 41.1344 108.425 43.7126 111.576 43.7126C113.009 43.7126 114.155 42.9964 114.728 42.2803H114.871V43.1396C114.871 45.4313 113.582 46.7204 111.576 46.7204C110.001 46.7204 108.855 45.5746 108.569 44.572L106.277 45.5746C106.993 47.1501 108.712 49.1554 111.72 49.1554C114.871 49.1554 117.449 47.2934 117.449 42.8532V31.9676H114.871V32.9702ZM111.72 41.4209C109.858 41.4209 108.282 39.8453 108.282 37.6968C108.282 35.5484 109.858 33.9728 111.72 33.9728C113.582 33.9728 115.014 35.5484 115.014 37.6968C115.014 39.8453 113.582 41.4209 111.72 41.4209ZM146.668 25.5221H140.223V43.4261H142.944V36.6942H146.668C149.676 36.6942 152.541 34.5457 152.541 31.1082C152.541 27.6706 149.676 25.5221 146.668 25.5221ZM146.811 34.116H142.944V27.9571H146.811C148.817 27.9571 149.963 29.6759 149.963 30.9649C149.819 32.5405 148.673 34.116 146.811 34.116ZM163.283 31.5379C161.278 31.5379 159.273 32.3973 158.556 34.2593L160.991 35.2619C161.564 34.2593 162.424 33.9728 163.426 33.9728C164.859 33.9728 166.148 34.8322 166.291 36.2645V36.4078C165.861 36.1213 164.715 35.6916 163.57 35.6916C160.991 35.6916 158.413 37.1239 158.413 39.7021C158.413 42.137 160.562 43.7126 162.853 43.7126C164.715 43.7126 165.575 42.8532 166.291 41.9938H166.434V43.4261H169.012V36.551C168.726 33.3999 166.291 31.5379 163.283 31.5379ZM162.997 41.4209C162.137 41.4209 160.848 40.9912 160.848 39.8453C160.848 38.413 162.424 37.9833 163.713 37.9833C164.859 37.9833 165.432 38.2698 166.148 38.5562C165.861 40.275 164.429 41.4209 162.997 41.4209ZM178.036 31.9676L175.028 39.7021H174.885L171.734 31.9676H168.869L173.596 42.8532L170.874 48.8689H173.596L180.901 31.9676H178.036ZM153.973 43.4261H156.694V25.5221H153.973V43.4261Z" fill="white"/>
    <path d="M15.7526 11.1992C15.3229 11.6289 15.1797 12.3451 15.1797 13.2045V44.8587C15.1797 45.7181 15.4662 46.4342 15.8958 46.8639L16.0391 47.0071L33.7998 29.2464V28.9599L15.7526 11.1992Z" fill="url(#paint0_linear_14843_218328)"/>
    <path d="M39.5288 35.2645L33.6562 29.392V28.9623L39.5288 23.0898L39.672 23.2331L46.6903 27.2436C48.6956 28.3894 48.6956 30.2514 46.6903 31.3973L39.5288 35.2645Z" fill="url(#paint1_linear_14843_218328)"/>
    <path d="M39.6775 35.1329L33.6618 29.1172L15.7578 47.0212C16.474 47.7373 17.4766 47.7373 18.7657 47.1644L39.6775 35.1329Z" fill="url(#paint2_linear_14843_218328)"/>
    <path d="M39.6775 23.1052L18.7657 11.2169C17.4766 10.5008 16.474 10.644 15.7578 11.3602L33.6618 29.1209L39.6775 23.1052Z" fill="url(#paint3_linear_14843_218328)"/>
    <path opacity="0.2" d="M39.5343 34.9766L18.7657 46.7216C17.6198 47.4377 16.6172 47.2945 15.901 46.7216L15.7578 46.8648L15.901 47.008C16.6172 47.581 17.6198 47.7242 18.7657 47.008L39.5343 34.9766Z" fill="black"/>
    <path opacity="0.12" d="M15.7526 46.7347C15.3229 46.305 15.1797 45.5888 15.1797 44.7294V44.8727C15.1797 45.7321 15.4662 46.4482 15.8958 46.8779V46.7347H15.7526ZM46.6907 30.9792L39.5291 34.9897L39.6723 35.1329L46.6907 31.1224C47.6933 30.5495 48.123 29.8333 48.123 29.1172C48.123 29.8333 47.5501 30.4063 46.6907 30.9792Z" fill="black"/>
    <path opacity="0.25" d="M18.7605 11.3595L46.6907 27.2582C47.5501 27.8312 48.123 28.4041 48.123 29.1202C48.123 28.4041 47.6933 27.6879 46.6907 27.115L18.7605 11.2163C16.7552 10.0704 15.1797 10.9298 15.1797 13.2215V13.3647C15.1797 11.2163 16.7552 10.2137 18.7605 11.3595Z" fill="white"/>
  </g>
  <defs>
    <linearGradient id="paint0_linear_14843_218328" x1="32.081" y1="12.9323" x2="8.04245" y2="36.9695" gradientUnits="userSpaceOnUse">
      <stop stop-color="#00A0FF"/>
      <stop offset="0.007" stop-color="#00A1FF"/>
      <stop offset="0.26" stop-color="#00BEFF"/>
      <stop offset="0.512" stop-color="#00D2FF"/>
      <stop offset="0.76" stop-color="#00DFFF"/>
      <stop offset="1" stop-color="#00E3FF"/>
    </linearGradient>
    <linearGradient id="paint1_linear_14843_218328" x1="49.3172" y1="29.107" x2="14.6594" y2="29.107" gradientUnits="userSpaceOnUse">
      <stop stop-color="#FFE000"/>
      <stop offset="0.409" stop-color="#FFBD00"/>
      <stop offset="0.775" stop-color="#FFA500"/>
      <stop offset="1" stop-color="#FF9C00"/>
    </linearGradient>
    <linearGradient id="paint2_linear_14843_218328" x1="36.4219" y1="32.4058" x2="3.82518" y2="65.0025" gradientUnits="userSpaceOnUse">
      <stop stop-color="#FF3A44"/>
      <stop offset="1" stop-color="#C31162"/>
    </linearGradient>
    <linearGradient id="paint3_linear_14843_218328" x1="11.3133" y1="0.726642" x2="25.87" y2="15.2833" gradientUnits="userSpaceOnUse">
      <stop stop-color="#32A071"/>
      <stop offset="0.069" stop-color="#2DA771"/>
      <stop offset="0.476" stop-color="#15CF74"/>
      <stop offset="0.801" stop-color="#06E775"/>
      <stop offset="1" stop-color="#00F076"/>
    </linearGradient>
    <clipPath id="clip0_14843_218328">
      <rect width="193.333" height="58" fill="white" transform="translate(0.667969 0.0664062)"/>
    </clipPath>
  </defs>
</svg>