<svg xmlns="http://www.w3.org/2000/svg" width="42" height="41" viewBox="0 0 42 41" fill="none">
  <path d="M31.8183 32.0039H16.8283C14.6667 32.0039 12.75 30.5856 12.165 28.5539L7.09833 11.3856C6.91833 10.7639 6.32 10.3372 5.63667 10.3372H1.66667C0.745 10.3372 0 9.59057 0 8.67057C0 7.75057 0.745 7.00391 1.66667 7.00391H5.63667C7.79833 7.00391 9.71333 8.42224 10.2983 10.4539L11.2467 13.6706H36.7383C37.7783 13.6706 38.765 14.1656 39.3767 14.9956C39.9833 15.8189 40.1583 16.8489 39.8567 17.8222L36.4183 28.7356C35.745 30.7056 33.9 32.0039 31.8183 32.0039Z" fill="white" fill-opacity="0.8"/>
  <path d="M18.3333 40.3424C16.495 40.3424 15 38.8474 15 37.0091C15 35.1708 16.495 33.6758 18.3333 33.6758C20.1717 33.6758 21.6667 35.1708 21.6667 37.0091C21.6667 38.8474 20.1717 40.3424 18.3333 40.3424Z" fill="white" fill-opacity="0.8"/>
  <path d="M30.0003 40.3424C28.162 40.3424 26.667 38.8474 26.667 37.0091C26.667 35.1708 28.162 33.6758 30.0003 33.6758C31.8387 33.6758 33.3337 35.1708 33.3337 37.0091C33.3337 38.8474 31.8387 40.3424 30.0003 40.3424Z" fill="white" fill-opacity="0.8"/>
</svg>