<svg xmlns="http://www.w3.org/2000/svg" width="42" height="41" viewBox="0 0 42 41" fill="none"><path d="M31.818 32.004h-14.99c-2.161 0-4.078-1.418-4.663-3.45L7.098 11.386c-.18-.622-.778-1.049-1.461-1.049h-3.97a1.666 1.666 0 1 1 0-3.333h3.97c2.161 0 4.076 1.418 4.661 3.45l.949 3.217h25.491c1.04 0 2.027.495 2.639 1.325a3.15 3.15 0 0 1 .48 2.826l-3.439 10.914a4.84 4.84 0 0 1-4.6 3.268m-13.485 8.338A3.337 3.337 0 0 1 15 37.01a3.337 3.337 0 0 1 3.333-3.333 3.337 3.337 0 0 1 3.334 3.333 3.337 3.337 0 0 1-3.334 3.333M30 40.342a3.337 3.337 0 0 1-3.333-3.333A3.337 3.337 0 0 1 30 33.676a3.337 3.337 0 0 1 3.334 3.333A3.337 3.337 0 0 1 30 40.342" fill="#fff" fill-opacity=".8"/></svg>