<svg width="105" height="36" viewBox="0 0 105 36" fill="none" xmlns="http://www.w3.org/2000/svg">
<path fill-rule="evenodd" clip-rule="evenodd" d="M101.635 25.3854V8.42969H104.062C104.301 8.42969 104.499 8.62758 104.499 8.86712V25.8228H102.073C101.833 25.8228 101.635 25.6249 101.635 25.3854Z" fill="white"/>
<path fill-rule="evenodd" clip-rule="evenodd" d="M82.827 18.5531V25.8228H80.4003C80.1608 25.8228 79.9629 25.6249 79.9629 25.3854V9.85655C79.9629 9.065 80.5982 8.42969 81.3897 8.42969H92.6693C94.0128 8.42969 95.2939 8.96086 96.2416 9.91904C97.1894 10.8668 97.731 12.1479 97.731 13.4914C97.731 14.8349 97.1998 16.116 96.2416 17.0638C95.2834 18.0115 94.0128 18.5531 92.6693 18.5531H82.8166H82.827ZM82.827 11.2938V15.6994H92.6797C93.2629 15.6994 93.8253 15.4599 94.2315 15.0537C94.6481 14.6371 94.8773 14.0851 94.8773 13.5018C94.8773 12.9186 94.6377 12.3562 94.2315 11.95C93.8149 11.5334 93.2629 11.3042 92.6797 11.3042H82.827V11.2938Z" fill="white"/>
<path fill-rule="evenodd" clip-rule="evenodd" d="M59.278 10.6689C61.1527 8.9608 63.6211 8.05469 66.152 8.05469C68.6828 8.05469 71.1512 8.95038 73.0259 10.6689C74.859 12.3353 75.9421 14.6266 75.9421 17.1262C75.9421 19.6258 74.8485 21.9067 73.0259 23.5835C71.1512 25.2916 68.6828 26.1977 66.152 26.1977C63.6211 26.1977 61.1527 25.302 59.278 23.5835C57.445 21.9171 56.3618 19.6258 56.3618 17.1262C56.3618 14.6266 57.4554 12.3457 59.278 10.6689ZM66.152 10.9188C64.3397 10.9188 62.5484 11.5541 61.1944 12.7831C59.9654 13.908 59.2155 15.4494 59.2155 17.1262C59.2155 18.803 59.9654 20.3445 61.1944 21.4693C62.5484 22.6983 64.3293 23.3336 66.152 23.3336C67.9746 23.3336 69.7556 22.6983 71.1095 21.4693C72.3385 20.3445 73.0884 18.803 73.0884 17.1262C73.0884 15.4494 72.3385 13.908 71.1095 12.7831C69.7556 11.5541 67.9746 10.9188 66.152 10.9188Z" fill="white"/>
<path fill-rule="evenodd" clip-rule="evenodd" d="M42.1146 22.9587H54.5501V25.3854C54.5501 25.6249 54.3522 25.8228 54.1127 25.8228H38.6672C38.2922 25.8228 37.9277 25.677 37.6569 25.4062C37.0945 24.8438 37.0945 23.9481 37.6569 23.3857L49.7488 11.2938H37.3132V8.86712C37.3132 8.62758 37.5111 8.42969 37.7506 8.42969H53.1962C53.9877 8.42969 54.623 9.065 54.623 9.85655C54.623 10.2419 54.4668 10.6064 54.196 10.8772L42.1146 22.9587Z" fill="white"/>
<path fill-rule="evenodd" clip-rule="evenodd" d="M19.721 0H22.2227L28.8278 11.4411L22.2227 22.8822H19.721L26.326 11.4411L19.721 0ZM9.10682 35.3177H6.60506L0 23.8766L6.60506 12.4355H9.10682L2.50176 23.8766L9.10682 35.3177ZM18.6742 35.3177H16.1725L9.5674 23.8766L16.7482 11.4411L10.1431 0H12.6449L19.2499 11.4411L12.0692 23.8766L18.6742 35.3177Z" fill="#5546FF"/>
</svg>
