<svg width="98" height="28" viewBox="0 0 98 28" fill="none" xmlns="http://www.w3.org/2000/svg">
<path d="M29.6167 12.5812H31.9071V13.6297C32.3385 13.0297 33.1082 12.3184 34.4241 12.3184C35.1379 12.3184 36.19 12.5256 36.8293 13.3112C37.3941 14.004 37.4686 14.8081 37.4686 15.5937V20.6845H35.1782V16.2679C35.1782 15.8194 35.1596 15.1081 34.7468 14.6782C34.3899 14.304 33.9027 14.2668 33.6761 14.2668C33.074 14.2668 32.6054 14.4741 32.2671 14.9782C31.9288 15.5009 31.9102 16.0823 31.9102 16.5494V20.6845H29.6198V12.5812H29.6167Z" fill="#F72C59"/>
<path d="M46.5862 18.4205C46.341 19.0205 45.4224 20.9474 42.5858 20.9474C41.2699 20.9474 40.2767 20.5731 39.4667 19.8061C38.5667 18.9649 38.1912 17.9164 38.1912 16.6421C38.1912 15.0339 38.8491 14.0411 39.4295 13.4596C40.3885 12.5225 41.515 12.3184 42.4896 12.3184C44.1437 12.3184 45.0996 12.974 45.6645 13.6483C46.5272 14.6782 46.6421 15.9493 46.6421 16.8308V17.0195H40.556C40.556 17.505 40.6864 18.0308 40.9502 18.3865C41.1954 18.7236 41.7013 19.1535 42.5827 19.1535C43.4641 19.1535 44.1034 18.7422 44.4789 18.0865L46.5831 18.4236L46.5862 18.4205ZM44.482 15.5566C44.2927 14.4524 43.3927 13.9297 42.5485 13.9297C41.7044 13.9297 40.8198 14.471 40.6336 15.5566H44.4851H44.482Z" fill="#F72C59"/>
<path d="M49.9661 8.20312H51.7321L55.0559 16.1393L58.5319 8.20312H60.2978L62.402 20.6889H59.9223L58.7957 12.997L55.4346 20.6889H54.609L51.3969 12.997L50.1213 20.6889H47.6416L49.9692 8.20312H49.9661Z" fill="white"/>
<path d="M70.77 13.4596C71.5769 14.1895 72.1417 15.3122 72.1417 16.6421C72.1417 17.9721 71.5769 19.0762 70.77 19.8061C70.0748 20.4432 69.0227 20.9474 67.4834 20.9474C65.944 20.9474 64.8919 20.4432 64.1967 19.8061C63.3898 19.0762 62.825 17.9535 62.825 16.6421C62.825 15.3308 63.3898 14.1895 64.1967 13.4596C64.8919 12.8225 65.944 12.3184 67.4834 12.3184C69.0227 12.3184 70.0748 12.8225 70.77 13.4596ZM69.7738 16.6421C69.7738 15.3679 68.7961 14.3411 67.4834 14.3411C66.1706 14.3411 65.1929 15.371 65.1929 16.6421C65.1929 17.9133 66.1519 18.9247 67.4834 18.9247C68.8148 18.9247 69.7738 17.8762 69.7738 16.6421Z" fill="white"/>
<path d="M75.1576 13.6307C75.9645 12.508 77.1097 12.3193 77.8049 12.3193C80.2101 12.3193 81.8054 14.172 81.8054 16.6246C81.8054 19.0772 80.1512 20.9484 77.749 20.9484C77.2245 20.9484 76.039 20.8556 75.1576 19.637V20.6855H72.8672V7.04297H75.1576V13.6307ZM74.931 16.6246C74.931 17.9174 75.8714 18.9256 77.1842 18.9256C78.497 18.9256 79.4374 17.9143 79.4374 16.6246C79.4374 15.3349 78.497 14.3421 77.1842 14.3421C75.8714 14.3421 74.931 15.3349 74.931 16.6246Z" fill="white"/>
<path d="M83.6789 7.79102C84.4299 7.79102 85.0506 8.40958 85.0506 9.15805C85.0506 9.90652 84.4299 10.5251 83.6789 10.5251C82.9278 10.5251 82.3071 9.90652 82.3071 9.15805C82.3071 8.40958 82.9278 7.79102 83.6789 7.79102ZM84.8241 12.5818V20.6851H82.5337V12.5818H84.8241Z" fill="white"/>
<path d="M88.8229 7.04297V20.6886H86.5325V7.04297H88.8229Z" fill="white"/>
<path d="M97.9439 18.4205C97.6987 19.0205 96.7801 20.9474 93.9434 20.9474C92.6275 20.9474 91.6344 20.5731 90.8244 19.8061C89.9244 18.9649 89.5488 17.9164 89.5488 16.6421C89.5488 15.0339 90.2068 14.0411 90.7871 13.4596C91.7461 12.5225 92.8727 12.3184 93.8472 12.3184C95.5014 12.3184 96.4573 12.974 97.0221 13.6483C97.8849 14.6782 97.9997 15.9493 97.9997 16.8308V17.0195H91.9137C91.9137 17.505 92.0441 18.0308 92.3079 18.3865C92.553 18.7236 93.0589 19.1535 93.9403 19.1535C94.8217 19.1535 95.461 18.7422 95.8366 18.0865L97.9408 18.4236L97.9439 18.4205ZM95.8397 15.5566C95.6504 14.4524 94.7503 13.9297 93.9062 13.9297C93.062 13.9297 92.1775 14.471 91.9913 15.5566H95.8428H95.8397Z" fill="white"/>
<path d="M14.0474 17.2967C15.8729 17.2967 17.3527 15.822 17.3527 14.0029C17.3527 12.1837 15.8729 10.709 14.0474 10.709C12.222 10.709 10.7422 12.1837 10.7422 14.0029C10.7422 15.822 12.222 17.2967 14.0474 17.2967Z" fill="#F72C59"/>
<path d="M14.0462 0C8.20536 0 3.20247 3.54748 1.08276 8.60118H8.10605C9.57712 6.9929 11.6937 5.98464 14.0462 5.98464C18.4874 5.98464 22.0843 9.57233 22.0843 13.9982C22.0843 14.8178 21.9602 15.6126 21.7305 16.358H27.8942C28.0276 15.591 28.0959 14.8023 28.0959 13.9982C28.0928 6.26608 21.805 0 14.0462 0Z" fill="#F72C59"/>
<path d="M24.9485 13.9979C24.9485 14.8083 24.8585 15.5969 24.6909 16.3578H21.7302C21.9598 15.6124 22.084 14.8175 22.084 13.9979C22.084 9.5721 18.487 5.98441 14.0458 5.98441C11.6903 5.98441 9.57366 6.99267 8.10569 8.60095H4.58008C6.46082 5.33491 9.99573 3.13281 14.0458 3.13281C20.0667 3.13281 24.9485 7.99784 24.9485 13.9979Z" fill="#9B0738"/>
<path d="M26.8673 19.7353C24.67 24.6066 19.754 27.9994 14.0466 27.9994C6.28775 27.9994 0 21.7333 0 14.0012C0 13.3115 0.0496565 12.6373 0.145866 11.9785H6.26292C6.09533 12.6249 6.00533 13.3022 6.00533 14.0012C6.00533 18.4271 9.60232 22.0117 14.0435 22.0117C16.2284 22.0117 18.2084 21.1457 19.6547 19.7353H26.861H26.8673Z" fill="#F72C59"/>
<path d="M19.6584 19.7354H23.3082C21.384 22.8158 17.9546 24.8664 14.0472 24.8664C8.02638 24.8664 3.14453 20.0013 3.14453 14.0012C3.14453 13.3115 3.20971 12.6342 3.33385 11.9785H6.26668C6.09909 12.6249 6.00909 13.3022 6.00909 14.0012C6.00909 18.4271 9.60608 22.0117 14.0472 22.0117C16.2321 22.0117 18.2122 21.1457 19.6584 19.7354Z" fill="#9B0738"/>
</svg>
