<svg width="156" height="34" viewBox="0 0 156 34" fill="none" xmlns="http://www.w3.org/2000/svg">
<path d="M32.2705 16.9991C32.2705 25.1825 25.6365 31.8165 17.4531 31.8165C9.26963 31.8165 2.63564 25.1825 2.63564 16.9991C2.63564 8.81564 9.26963 2.18165 17.4531 2.18165C25.6365 2.18165 32.2705 8.81564 32.2705 16.9991Z" fill="white"/>
<path d="M17.4598 0.5C8.34359 0.5 0.959839 7.88375 0.959839 17C0.959839 26.1163 8.34359 33.5 17.4598 33.5C26.5761 33.5 33.9598 26.1163 33.9598 17C33.9598 7.88375 26.5761 0.5 17.4598 0.5ZM15.8305 7.22375C17.5217 8.77063 18.3261 10.3794 18.5736 11.9262C20.3267 10.6062 22.4717 10.3175 23.9361 10.4412C24.5961 17.5156 18.6973 19.3719 15.6861 19.4131C10.2205 13.8238 13.4998 8.95625 15.8305 7.22375ZM25.5655 24.59C23.4205 26.735 20.4917 27.9519 17.4598 27.9519C14.428 27.9519 11.4992 26.735 9.35421 24.59C7.20921 22.445 5.99234 19.5162 5.99234 16.4844H8.30234C8.30234 18.9181 9.27171 21.2488 10.9836 22.9606C12.6955 24.6725 15.0261 25.6419 17.4598 25.6419C19.8936 25.6419 22.2242 24.6725 23.9361 22.9606C25.648 21.2488 26.6173 18.9181 26.6173 16.4844H28.9273C28.9273 19.5369 27.7105 22.445 25.5655 24.59Z" fill="#BB254A"/>
<path d="M75.1268 22.6673C74.1925 22.6673 73.385 22.5138 72.7043 22.2069C72.0236 21.8865 71.463 21.4661 71.0225 20.9455C70.5821 20.4117 70.2484 19.8177 70.0215 19.1637C69.8079 18.5097 69.7011 17.8357 69.7011 17.1416C69.7011 16.4742 69.8012 15.8202 70.0015 15.1796C70.215 14.5256 70.5353 13.9316 70.9625 13.3977C71.4029 12.8638 71.9568 12.4434 72.6242 12.1364C73.3049 11.8161 74.1057 11.6559 75.0267 11.6559C76.001 11.6559 76.8619 11.8695 77.6093 12.2966C78.3701 12.7237 78.9641 13.3577 79.3912 14.1985C79.8183 15.0261 80.0319 16.0338 80.0319 17.2217V17.9625H72.7643C72.8044 18.6031 73.0246 19.157 73.425 19.6242C73.8388 20.0913 74.406 20.3249 75.1268 20.3249C75.5405 20.3249 75.8742 20.2648 76.1278 20.1447C76.3948 20.0112 76.6016 19.8644 76.7485 19.7043C76.8953 19.5307 76.9954 19.3773 77.0488 19.2438C77.1022 19.1103 77.1288 19.0436 77.1288 19.0436H79.9318C79.9318 19.0436 79.8984 19.1704 79.8317 19.424C79.7783 19.6642 79.6581 19.9645 79.4713 20.3249C79.2844 20.6853 79.0108 21.0457 78.6504 21.406C78.3034 21.7664 77.8429 22.0667 77.269 22.307C76.6951 22.5472 75.981 22.6673 75.1268 22.6673ZM72.7643 16.1205H77.1088C77.0688 15.3864 76.8486 14.8392 76.4481 14.4788C76.0477 14.1185 75.5539 13.9383 74.9666 13.9383C74.3793 13.9383 73.8788 14.1318 73.465 14.5189C73.0513 14.8926 72.8177 15.4265 72.7643 16.1205Z" fill="white"/>
<path d="M57.9979 22.4671V11.8561H61.0411V13.3777H61.1412C61.2613 13.1641 61.4348 12.9239 61.6617 12.6569C61.902 12.39 62.2156 12.1564 62.6027 11.9562C63.0031 11.756 63.5103 11.6559 64.1243 11.6559C64.9518 11.6559 65.6258 11.8494 66.1464 12.2365C66.6669 12.6102 67.0473 13.0974 67.2876 13.698C67.5278 14.2853 67.6479 14.9059 67.6479 15.56V22.4671H64.6048V16.0805C64.6048 15.5733 64.4646 15.1262 64.1843 14.7391C63.9174 14.352 63.4836 14.1585 62.883 14.1585C62.4292 14.1585 62.0688 14.2653 61.8019 14.4788C61.5349 14.6924 61.3414 14.966 61.2213 15.2997C61.1011 15.6334 61.0411 15.9871 61.0411 16.3608V22.4671H57.9979Z" fill="white"/>
<path d="M48.5405 22.6689C47.3126 22.6689 46.2314 22.4554 45.2971 22.0282C44.3628 21.5878 43.5754 21.0072 42.9347 20.2864C42.3074 19.5523 41.8335 18.7315 41.5132 17.8239C41.2062 16.9163 41.0527 15.9886 41.0527 15.041C41.0527 14.0933 41.2062 13.1724 41.5132 12.2781C41.8335 11.3705 42.3074 10.5563 42.9347 9.8356C43.5754 9.11485 44.3628 8.54092 45.2971 8.11381C46.2314 7.67335 47.3126 7.45312 48.5405 7.45312C49.7818 7.45312 50.8696 7.67335 51.8039 8.11381C52.7382 8.54092 53.519 9.11485 54.1463 9.8356C54.7736 10.5563 55.2408 11.3705 55.5478 12.2781C55.8681 13.1724 56.0283 14.0933 56.0283 15.041C56.0283 15.9886 55.8681 16.9163 55.5478 17.8239C55.2408 18.7315 54.7736 19.5523 54.1463 20.2864C53.519 21.0072 52.7382 21.5878 51.8039 22.0282C50.8696 22.4554 49.7818 22.6689 48.5405 22.6689ZM48.5405 19.886C49.4748 19.886 50.2623 19.6524 50.903 19.1853C51.5436 18.7181 52.0241 18.1175 52.3444 17.3834C52.6648 16.636 52.8249 15.8552 52.8249 15.041C52.8249 14.2268 52.6648 13.4527 52.3444 12.7186C52.0241 11.9845 51.5436 11.3839 50.903 10.9167C50.2623 10.4496 49.4748 10.216 48.5405 10.216C47.6062 10.216 46.8187 10.4496 46.1781 10.9167C45.5507 11.3839 45.0769 11.9845 44.7566 12.7186C44.4362 13.4527 44.2761 14.2268 44.2761 15.041C44.2761 15.8552 44.4362 16.636 44.7566 17.3834C45.0769 18.1175 45.5507 18.7181 46.1781 19.1853C46.8187 19.6524 47.6062 19.886 48.5405 19.886Z" fill="white"/>
<path d="M146.531 26.5452C146.177 26.5452 145.895 26.5321 145.685 26.5058C145.475 26.4796 145.37 26.4664 145.37 26.4664V24.0646C145.37 24.0646 145.455 24.0711 145.626 24.0843C145.809 24.0974 146.032 24.104 146.295 24.104C146.925 24.104 147.443 24.0121 147.85 23.8283C148.257 23.6577 148.611 23.3165 148.913 22.8046L145.055 12.2718H148.047L150.469 19.3396L152.831 12.2718H155.843L152.103 22.2927C151.761 23.2508 151.348 24.0449 150.862 24.6749C150.39 25.3049 149.806 25.7708 149.11 26.0727C148.415 26.3877 147.555 26.5452 146.531 26.5452Z" fill="white"/>
<path d="M142.019 22.9028C141.205 22.9028 140.556 22.7846 140.07 22.5484C139.584 22.299 139.217 21.9906 138.968 21.6231C138.718 21.2425 138.554 20.8421 138.475 20.4221C138.397 20.0021 138.357 19.615 138.357 19.2606V14.6537H136.585V12.2716H138.357V9.69252H141.35V12.2716H143.574V14.6537H141.35V19.1818C141.35 19.615 141.461 19.9496 141.684 20.1859C141.921 20.4221 142.308 20.5403 142.846 20.5403C143.082 20.5403 143.299 20.5206 143.496 20.4812C143.693 20.4418 143.791 20.4221 143.791 20.4221V22.7256C143.791 22.7256 143.614 22.7518 143.259 22.8043C142.905 22.8699 142.492 22.9028 142.019 22.9028Z" fill="white"/>
<path d="M131.67 22.7054V7.74293H134.662V22.7054H131.67Z" fill="white"/>
<path d="M122.911 12.0743C123.581 12.0743 124.132 12.1858 124.565 12.4089C124.998 12.6189 125.326 12.8486 125.549 13.098C125.786 13.3474 125.93 13.518 125.983 13.6099H126.14V12.2711H129.133V22.7055H126.14V21.3667H125.983C125.93 21.4586 125.786 21.6292 125.549 21.8786C125.326 22.128 124.998 22.3642 124.565 22.5873C124.132 22.7973 123.581 22.9023 122.911 22.9023C122.137 22.9023 121.461 22.7514 120.884 22.4495C120.319 22.1345 119.847 21.7211 119.466 21.2092C119.085 20.6842 118.797 20.1002 118.6 19.457C118.416 18.8139 118.324 18.1577 118.324 17.4883C118.324 16.8189 118.416 16.1627 118.6 15.5196C118.797 14.8764 119.085 14.2989 119.466 13.7871C119.847 13.2621 120.319 12.8486 120.884 12.5468C121.461 12.2318 122.137 12.0743 122.911 12.0743ZM123.778 14.4958C123.239 14.4958 122.787 14.6467 122.419 14.9486C122.065 15.2374 121.796 15.6114 121.612 16.0708C121.441 16.5302 121.356 17.0027 121.356 17.4883C121.356 17.9739 121.441 18.4464 121.612 18.9058C121.796 19.3652 122.065 19.7458 122.419 20.0477C122.787 20.3364 123.239 20.4808 123.778 20.4808C124.316 20.4808 124.762 20.3364 125.116 20.0477C125.484 19.7458 125.753 19.3652 125.924 18.9058C126.107 18.4464 126.199 17.9739 126.199 17.4883C126.199 17.0027 126.107 16.5302 125.924 16.0708C125.753 15.6114 125.484 15.2374 125.116 14.9486C124.762 14.6467 124.316 14.4958 123.778 14.4958Z" fill="white"/>
<path d="M108.184 26.5452C107.829 26.5452 107.547 26.5321 107.337 26.5058C107.127 26.4796 107.022 26.4664 107.022 26.4664V24.0646C107.022 24.0646 107.107 24.0711 107.278 24.0843C107.462 24.0974 107.685 24.104 107.947 24.104C108.577 24.104 109.096 24.0121 109.503 23.8283C109.91 23.6577 110.264 23.3165 110.566 22.8046L106.707 12.2718H109.7L112.121 19.3396L114.484 12.2718H117.496L113.755 22.2927C113.414 23.2508 113.001 24.0449 112.515 24.6749C112.042 25.3049 111.458 25.7708 110.763 26.0727C110.067 26.3877 109.207 26.5452 108.184 26.5452Z" fill="white"/>
<path d="M100.298 22.9023C99.1299 22.9023 98.139 22.653 97.3252 22.1542C96.5115 21.6423 95.8881 20.9795 95.4549 20.1658C95.0349 19.3389 94.8249 18.4464 94.8249 17.4883C94.8249 16.5302 95.0349 15.6442 95.4549 14.8305C95.8881 14.0036 96.5115 13.3408 97.3252 12.8421C98.139 12.3302 99.1299 12.0743 100.298 12.0743C101.466 12.0743 102.457 12.3302 103.271 12.8421C104.085 13.3408 104.701 14.0036 105.121 14.8305C105.555 15.6442 105.771 16.5302 105.771 17.4883C105.771 18.4464 105.555 19.3389 105.121 20.1658C104.701 20.9795 104.085 21.6423 103.271 22.1542C102.457 22.653 101.466 22.9023 100.298 22.9023ZM100.298 20.4611C100.823 20.4611 101.263 20.3233 101.617 20.0477C101.985 19.772 102.267 19.4111 102.464 18.9649C102.661 18.5055 102.759 18.0133 102.759 17.4883C102.759 16.9502 102.661 16.458 102.464 16.0117C102.267 15.5655 101.985 15.2046 101.617 14.9289C101.263 14.6533 100.823 14.5155 100.298 14.5155C99.773 14.5155 99.3268 14.6533 98.9593 14.9289C98.5918 15.2046 98.3096 15.5655 98.1127 16.0117C97.929 16.458 97.8371 16.9502 97.8371 17.4883C97.8371 18.0133 97.929 18.5055 98.1127 18.9649C98.3096 19.4111 98.5918 19.772 98.9593 20.0477C99.3268 20.3233 99.773 20.4611 100.298 20.4611Z" fill="white"/>
<path d="M83.0645 22.7052V8.13654H86.0964V20.0671H93.2232V22.7052H83.0645Z" fill="white"/>
</svg>
