<svg width="124" height="27" viewBox="0 0 124 27" fill="none" xmlns="http://www.w3.org/2000/svg">
<path d="M29.5691 24.7088C29.5691 25.4564 28.9631 26.0625 28.2154 26.0625L2.15469 26.0625C1.40708 26.0625 0.801025 25.4564 0.801025 24.7088L0.801025 22.2263C0.801025 21.4787 1.40708 20.8727 2.15468 20.8727L28.2154 20.8727C28.9631 20.8727 29.5691 21.4787 29.5691 22.2263L29.5691 24.7088ZM14.3562 15.1644C14.8254 15.5002 15.4557 15.5017 15.9265 15.1683L29.5691 5.50561C29.5691 9.40644 27.7114 13.0741 24.5666 15.3821L19.0796 19.409C18.9033 19.5384 18.6903 19.6082 18.4716 19.6082L11.8985 19.6082C11.6799 19.6082 11.4669 19.5384 11.2906 19.409L5.8385 15.4077C2.67171 13.0836 0.801025 9.39032 0.801025 5.46222L14.3562 15.1644Z" fill="url(#paint0_linear_13541_61002)"/>
<mask id="mask0_13541_61002" style="mask-type:alpha" maskUnits="userSpaceOnUse" x="0" y="5" width="30" height="15">
<path d="M18.808 19.6069H11.4954L2.75895 13.0304L0.800781 10.0679V5.46094L15.1631 15.7016L29.5489 5.52306L29.3699 9.86708L27.8637 12.7793L18.808 19.6069Z" fill="url(#paint1_linear_13541_61002)"/>
</mask>
<g mask="url(#mask0_13541_61002)">
<g filter="url(#filter0_d_13541_61002)">
<path d="M18.808 19.6069H11.5617L0.800781 5.46094L15.1631 15.7016L29.5489 5.52306L18.808 19.6069Z" fill="url(#paint2_linear_13541_61002)"/>
</g>
</g>
<path d="M15.11 0.425781L16.6668 4.86168L21.021 6.61118L16.6668 8.36067L15.11 12.2285L13.5531 8.36067L9.21875 6.61118L13.5531 4.86168L15.11 0.425781Z" fill="url(#paint3_linear_13541_61002)"/>
<path d="M99.8263 13.1793C99.5744 12.4679 99.2632 11.8959 98.8749 11.4869C98.4778 11.066 97.9295 10.7696 97.2686 10.577H97.2626C96.6462 10.411 96.0564 10.3102 95.4933 10.2628C94.9509 10.2006 94.1507 10.168 93.1015 10.168C92.3132 10.168 91.5515 10.1917 90.8224 10.2302H90.8106C90.1437 10.2925 89.4858 10.4318 88.8456 10.6363H88.8397C88.2054 10.8259 87.6897 11.1134 87.3341 11.5136H87.3311C87.3311 11.5136 87.3311 11.5165 87.3282 11.5195C86.9192 11.9522 86.6109 12.5302 86.3797 13.2415C86.1426 13.9647 86.03 14.8005 86.03 15.7282V20.7816C86.03 21.7922 86.1456 22.6518 86.3886 23.3542C86.3886 23.3542 86.3886 23.3601 86.3916 23.3631C86.3946 23.372 86.3975 23.3868 86.4005 23.3957C86.4212 23.4431 86.4479 23.5202 86.4924 23.6239C86.4983 23.6358 86.5013 23.6536 86.5131 23.6654C86.5131 23.6654 86.519 23.6743 86.519 23.6773C86.5783 23.8136 86.6494 23.9559 86.7295 24.0685C86.7354 24.0774 86.7502 24.0892 86.7562 24.0981C87.0881 24.6227 87.5475 25.0199 88.1343 25.2866C88.8011 25.5978 89.4769 25.7994 90.1556 25.8853H90.1645C90.8372 25.992 91.8212 26.0365 93.0986 26.0365C93.8306 26.0365 94.5567 26.0158 95.2888 25.9802H95.4192C95.4429 25.9802 95.4607 25.9743 95.4873 25.9743C95.5288 25.9743 95.5703 25.9683 95.6 25.9654C95.6 25.9654 95.6059 25.9654 95.6059 25.9624C96.2046 25.8942 96.7884 25.7816 97.3545 25.6097C97.9947 25.42 98.5163 25.1414 98.8927 24.762C99.7759 23.8788 100.173 22.5273 100.173 20.7756V15.7222C100.173 14.7738 100.06 13.9202 99.8233 13.1763V13.1704H99.8293L99.8263 13.1793ZM96.4921 22.548L96.4535 22.6547C96.3468 22.9037 96.169 23.0875 95.9112 23.2001H95.9052L95.8993 23.206C95.5733 23.3661 95.2473 23.4668 94.9094 23.4994C94.5478 23.535 93.9521 23.5587 93.1075 23.5587C92.2628 23.5587 91.673 23.535 91.3055 23.4994C90.9706 23.4639 90.6416 23.3631 90.3156 23.206H90.3097L90.3038 23.2001C90.0281 23.0786 89.8355 22.8829 89.711 22.6132C89.5954 22.2902 89.5273 21.8219 89.5273 21.1847V15.2866C89.5273 14.3944 89.6399 13.8224 89.8147 13.5053V13.4994C89.9807 13.1822 90.2563 12.9718 90.689 12.874H90.695C91.1929 12.7495 91.9872 12.6724 93.1045 12.6724C94.2218 12.6724 95.0043 12.7436 95.4814 12.874H95.4933C95.9497 12.9807 96.2342 13.1941 96.3943 13.5053V13.5112C96.5691 13.8283 96.6818 14.4033 96.6818 15.2895V21.1876H96.6847C96.6847 21.7863 96.6136 22.2309 96.495 22.548H96.4921Z" fill="white"/>
<path d="M122.303 10.4688H119.514C119.336 10.4688 119.191 10.614 119.191 10.7918V25.7178C119.191 25.8957 119.336 26.0409 119.514 26.0409H122.303C122.481 26.0409 122.626 25.8957 122.626 25.7178V10.7918C122.626 10.614 122.481 10.4688 122.303 10.4688Z" fill="white"/>
<path d="M123.106 5.34558L121.133 3.37461C121.005 3.25013 120.801 3.25013 120.676 3.37461L118.702 5.34558C118.575 5.47303 118.575 5.67753 118.702 5.80202L120.676 7.77299C120.804 7.90043 121.008 7.90043 121.133 7.77299L123.106 5.80202C123.234 5.67753 123.234 5.47006 123.106 5.34558Z" fill="white"/>
<path d="M115.175 18.1199C114.991 17.8591 114.766 17.622 114.499 17.4263H114.502C113.643 16.7832 112.401 16.4957 110.83 16.4957H109.144C108.275 16.4957 107.676 16.3742 107.306 16.1726C107.128 16.0748 107.013 15.9622 106.941 15.8436C106.867 15.7251 106.826 15.5769 106.826 15.3872V14.1809C106.826 13.8904 106.885 13.6711 106.983 13.5022C107.081 13.3362 107.229 13.2028 107.451 13.0991C107.943 12.8916 108.8 12.7701 110.074 12.7701C110.782 12.7701 111.844 12.8679 113.245 13.0606C113.803 13.1376 114.407 13.2295 115.071 13.3362L115.133 13.3451C115.323 13.3688 115.492 13.2206 115.492 13.025V10.8643C115.492 10.7043 115.376 10.568 115.216 10.5442H115.213C115.187 10.5413 115.157 10.5383 115.133 10.5354C115.11 10.5354 115.092 10.5324 115.068 10.5265C114.463 10.4464 113.871 10.3842 113.29 10.3308H113.26C113.231 10.3308 113.213 10.3279 113.213 10.3279C112.3 10.2449 111.42 10.1975 110.572 10.1856C110.436 10.1827 110.335 10.1797 110.279 10.1797H110.074C109.081 10.1797 108.192 10.2508 107.41 10.3931C107.389 10.3931 107.371 10.399 107.35 10.402C107.238 10.4257 107.134 10.4435 107.024 10.4701C106.289 10.6272 105.664 10.8584 105.148 11.1637C103.972 11.8869 103.409 13.0961 103.409 14.6907V15.325C103.409 16.4838 103.803 17.4323 104.603 18.1228C104.627 18.1466 104.65 18.1614 104.671 18.1851C104.671 18.1851 104.686 18.2058 104.707 18.2177C104.71 18.2177 104.713 18.2236 104.716 18.2266C104.716 18.2266 104.719 18.2266 104.722 18.2295C104.725 18.2295 104.731 18.2355 104.733 18.2384C105.623 18.9172 106.861 19.2313 108.394 19.2313H110.053C110.981 19.2313 111.577 19.3617 111.912 19.5662C112.199 19.7441 112.374 20.0464 112.374 20.5799V22.0559C112.374 22.3464 112.315 22.5657 112.217 22.7346C112.119 22.8947 111.971 23.034 111.749 23.1377C111.257 23.3452 110.4 23.4667 109.126 23.4667C108.406 23.4667 107.324 23.3659 105.892 23.1703H105.886C105.56 23.1199 104.618 22.9747 104.078 22.8917H104.049C103.865 22.8798 103.705 23.0221 103.705 23.2088V25.3695C103.705 25.5295 103.824 25.6688 103.987 25.6896C104.366 25.737 105.051 25.82 105.614 25.8793C105.866 25.906 106.097 25.9267 106.26 25.9415H106.281C107.229 26.0186 108.139 26.0601 109.013 26.063H109.123C111.263 26.0571 112.922 25.7459 114.046 25.079C115.222 24.3559 115.785 23.1466 115.785 21.552V20.2865C115.785 19.4329 115.578 18.7067 115.166 18.1199H115.175Z" fill="white"/>
<path d="M82.4586 3.97171H79.6638C79.486 3.97171 79.3408 4.11694 79.3408 4.29477V11.1413C79.0829 10.9546 78.7688 10.7945 78.4102 10.673C77.4588 10.3381 76.3326 10.1721 75.0404 10.1721C73.8786 10.1721 72.8768 10.2699 72.0411 10.4715C71.3386 10.6404 70.7489 10.8775 70.2895 11.2006C69.9724 11.4258 69.7204 11.6955 69.5071 11.9979C69.021 12.6884 68.7869 13.5865 68.7869 14.6564V21.0643C68.7869 22.2795 68.9706 23.2665 69.3766 24.0045V24.0104C69.8034 24.7573 70.4821 25.2908 71.3712 25.6138H71.3772C72.0974 25.8598 73.0339 25.9992 74.1572 26.0377C74.8418 26.0821 75.5324 26.0732 76.217 26.0732C77.4795 26.0732 78.751 26.094 79.9839 25.7502C80.6181 25.5724 81.1487 25.3175 81.5577 24.9618C82.4053 24.1853 82.7876 23.0086 82.7876 21.5089V4.29181C82.7876 4.11398 82.6424 3.96875 82.4646 3.96875H82.4616L82.4586 3.97171ZM79.3052 21.9742C79.2726 22.155 79.2193 22.3121 79.1392 22.4484C79.0118 22.6737 78.8192 22.8545 78.5435 22.9938C78.1049 23.222 77.4143 23.3761 76.4541 23.4354C76.1488 23.4562 75.8198 23.465 75.4553 23.465C74.1453 23.465 73.2888 23.2931 72.8146 23.0086C72.4056 22.7508 72.1715 22.3091 72.1715 21.5741V14.3838C72.1715 13.625 72.3997 13.2694 72.7197 13.1152C72.7761 13.0886 72.8413 13.0648 72.9213 13.0382C73.111 12.9759 73.3836 12.9226 73.7452 12.8811C74.2491 12.8218 74.8951 12.7951 75.6894 12.7951C77.0053 12.7951 77.9419 12.9611 78.5346 13.2486C78.8251 13.3909 79.0207 13.5568 79.1452 13.7406C79.2637 13.9184 79.3319 14.1318 79.3319 14.3927V21.3726H79.3378C79.3378 21.6097 79.323 21.8112 79.3022 21.9772L79.3052 21.9742Z" fill="white"/>
<path d="M64.9604 10.4688H62.1804C62.0026 10.4688 61.8574 10.614 61.8574 10.7918V21.361C61.8574 21.7137 61.8277 21.9834 61.7803 22.1849C61.7151 22.3627 61.6054 22.5524 61.4365 22.7806C61.3743 22.8725 61.2794 22.9585 61.1401 23.0385C60.3695 23.4949 59.4449 23.4594 58.5854 23.4238C57.7792 23.3912 56.8723 23.4653 56.1551 23.0385C56.0188 22.9585 55.921 22.8696 55.8498 22.7717C55.6928 22.5584 55.5801 22.3627 55.5179 22.1879C55.4705 21.9863 55.4408 21.7196 55.4408 21.3639V10.7948C55.4408 10.6169 55.2956 10.4717 55.1178 10.4717H52.3289C52.1511 10.4717 52.0059 10.6169 52.0059 10.7948V21.5121C52.0059 23.0148 52.3941 24.1914 53.2447 24.9739C53.6478 25.3236 54.1753 25.5785 54.8125 25.7534C56.084 26.1061 57.4117 26.0765 58.7187 26.0765C60.0258 26.0765 61.2528 26.0972 62.4857 25.7534C63.1199 25.5756 63.6504 25.3207 64.0594 24.965C64.9071 24.1885 65.2894 23.0118 65.2894 21.5091V10.7918C65.2894 10.614 65.1442 10.4688 64.9663 10.4688H64.9604Z" fill="white"/>
<path d="M49.3415 5.50391H46.0785C45.9777 5.50391 45.8799 5.55133 45.8206 5.63432L45.2397 6.41085L44.8515 6.92656L41.2416 11.7458L40.6311 12.4779L39.6945 13.6012L38.8202 14.6445V5.82993C38.8202 5.6521 38.675 5.50687 38.4972 5.50687H35.4979C35.32 5.50687 35.1748 5.6521 35.1748 5.82993V25.7678C35.1748 25.9457 35.32 26.0909 35.4979 26.0909H38.4972C38.675 26.0909 38.8202 25.9457 38.8202 25.7678V15.8863L44.0275 24.1911L44.9196 25.6137L45.1271 25.9427C45.1864 26.0376 45.2901 26.0939 45.4027 26.0939H48.8821C49.137 26.0939 49.2912 25.8093 49.1548 25.593L49.0807 25.4774L49.0748 25.4715L48.9118 25.2255L47.8478 23.6013L47.5248 23.1122L47.3914 22.9107L45.5865 20.1573L45.4205 19.9024L42.4893 15.341L47.4062 8.87382L48.0938 7.9728H48.0968L49.5964 6.02851C49.7594 5.81511 49.6053 5.50983 49.3415 5.50983V5.50391Z" fill="white"/>
<defs>
<filter id="filter0_d_13541_61002" x="-13.6411" y="-6.30652" width="57.6319" height="43.0283" filterUnits="userSpaceOnUse" color-interpolation-filters="sRGB">
<feFlood flood-opacity="0" result="BackgroundImageFix"/>
<feColorMatrix in="SourceAlpha" type="matrix" values="0 0 0 0 0 0 0 0 0 0 0 0 0 0 0 0 0 0 127 0" result="hardAlpha"/>
<feOffset dy="2.67442"/>
<feGaussianBlur stdDeviation="7.22094"/>
<feComposite in2="hardAlpha" operator="out"/>
<feColorMatrix type="matrix" values="0 0 0 0 0.461667 0 0 0 0 0.2216 0 0 0 0 0 0 0 0 0.25 0"/>
<feBlend mode="normal" in2="BackgroundImageFix" result="effect1_dropShadow_13541_61002"/>
<feBlend mode="normal" in="SourceGraphic" in2="effect1_dropShadow_13541_61002" result="shape"/>
</filter>
<linearGradient id="paint0_linear_13541_61002" x1="0.801025" y1="15.7624" x2="61.8317" y2="15.5864" gradientUnits="userSpaceOnUse">
<stop offset="0.233616" stop-color="#FF6600"/>
<stop offset="1" stop-color="#CB3700"/>
</linearGradient>
<linearGradient id="paint1_linear_13541_61002" x1="27.5715" y1="14.1302" x2="-6.99152" y2="3.83162" gradientUnits="userSpaceOnUse">
<stop stop-color="#FC9D5A"/>
<stop offset="0.5" stop-color="#FF5C00"/>
<stop offset="1" stop-color="#C91400"/>
</linearGradient>
<linearGradient id="paint2_linear_13541_61002" x1="15.1848" y1="5.46094" x2="15.2153" y2="35.4714" gradientUnits="userSpaceOnUse">
<stop offset="0.144" stop-color="#FF912C"/>
<stop offset="1" stop-color="#F54706"/>
</linearGradient>
<linearGradient id="paint3_linear_13541_61002" x1="15.1199" y1="0.425781" x2="15.1716" y2="25.4651" gradientUnits="userSpaceOnUse">
<stop offset="0.144" stop-color="#FF912C"/>
<stop offset="1" stop-color="#F54706"/>
</linearGradient>
</defs>
</svg>
