<svg width="105" height="36" viewBox="0 0 105 36" fill="none" xmlns="http://www.w3.org/2000/svg"><path fill-rule="evenodd" clip-rule="evenodd" d="M101.635 25.385V8.43h2.427a.44.44 0 0 1 .437.437v16.956h-2.426a.44.44 0 0 1-.438-.438m-18.808-6.832v7.27H80.4a.44.44 0 0 1-.437-.438V9.857c0-.792.635-1.427 1.427-1.427h11.28a5 5 0 0 1 3.572 1.489 5.05 5.05 0 0 1 1.489 3.572 5 5 0 0 1-1.49 3.573 5.07 5.07 0 0 1-3.572 1.49h-9.852zm0-7.26V15.7h9.853a2.21 2.21 0 0 0 2.197-2.197 2.21 2.21 0 0 0-2.197-2.198h-9.853zm-23.549-.624c1.875-1.708 4.343-2.614 6.874-2.614s5 .895 6.874 2.614c1.833 1.666 2.916 3.958 2.916 6.457 0 2.5-1.093 4.78-2.916 6.458-1.875 1.708-4.343 2.614-6.874 2.614s-5-.896-6.874-2.614c-1.833-1.667-2.916-3.958-2.916-6.458s1.093-4.78 2.916-6.457m6.874.25c-1.812 0-3.604.635-4.958 1.864-1.229 1.125-1.979 2.666-1.979 4.343s.75 3.218 1.98 4.343c1.353 1.23 3.134 1.865 4.957 1.865s3.604-.636 4.957-1.865c1.23-1.125 1.98-2.666 1.98-4.343s-.75-3.218-1.98-4.343c-1.353-1.229-3.134-1.864-4.957-1.864m-24.037 12.04H54.55v2.426a.44.44 0 0 1-.437.438H38.667c-.375 0-.74-.146-1.01-.417a1.42 1.42 0 0 1 0-2.02l12.092-12.092H37.313V8.867a.44.44 0 0 1 .438-.437h15.445c.792 0 1.427.635 1.427 1.427 0 .385-.156.75-.427 1.02z" fill="#fff"/><path fill-rule="evenodd" clip-rule="evenodd" d="M19.721 0h2.502l6.605 11.441-6.605 11.441H19.72l6.605-11.44zM9.107 35.318H6.605L0 23.877l6.605-11.441h2.502l-6.605 11.44zm9.567 0h-2.501L9.567 23.877l7.181-12.436L10.143 0h2.502l6.605 11.441-7.18 12.436z" fill="#5546FF"/></svg>