<svg width="139" height="28" viewBox="0 0 139 28" fill="none" xmlns="http://www.w3.org/2000/svg"><path d="M21.663 10.574c-.498.482-.995.965-1.493 1.399a.38.38 0 0 0-.09.24v10.513c0 .193-.136.337-.317.337h-1.492c-.181 0-.317-.144-.317-.337v-8.101c0-.29-.271-.434-.497-.241-2.262 1.832-4.523 3.471-6.92 4.822q-.135.072-.135.289v3.23c0 .194-.136.338-.317.338H8.593c-.181 0-.317-.144-.317-.337v-1.688c0-.241-.226-.386-.452-.29a46 46 0 0 1-6.377 2.653l-.543.145c-.18.048-.271.144-.271.337v3.28c0 .192.135.337.316.337h26.367c.18 0 .317-.145.317-.338V4.884c0-.29-.362-.434-.543-.193-1.357 1.64-3.166 3.713-5.427 5.883" fill="url(#a)"/><path d="M2.758 10.188c-.633 0-1.266 0-1.9-.048-.09 0-.18.097-.18.193v10.078c0 .145.136.241.226.193C14.291 16.071 23.653 4.788 26.638.834c.135-.193-.09-.435-.272-.29-3.301 2.749-12.663 9.644-23.608 9.644" fill="url(#b)"/><path d="M33.419 27.5V8.375h13.764v3.852h-9.535v4.471h8.943v3.744h-8.97V27.5zm18.666-5.684c.189 1.293 1.428 2.344 3.61 2.344 1.05 0 2.505-.243 3.448-1.05l2.182 2.424c-1.428 1.4-3.718 1.966-5.71 1.966-4.823 0-7.462-2.828-7.462-7.084 0-4.04 2.72-6.87 7.057-6.87 4.525 0 7.488 2.83 6.653 8.27zm6.304-2.828c-.081-1.455-1.563-2.128-3.179-2.128-1.562 0-2.748.808-3.125 2.128zm8.701 2.828c.188 1.293 1.427 2.344 3.609 2.344 1.05 0 2.505-.243 3.448-1.05l2.181 2.424c-1.427 1.4-3.717 1.966-5.71 1.966-4.822 0-7.461-2.828-7.461-7.084 0-4.04 2.72-6.87 7.057-6.87 4.525 0 7.488 2.83 6.653 8.27zm6.302-2.828c-.08-1.455-1.562-2.128-3.178-2.128-1.562 0-2.748.808-3.125 2.128zM92.867 8.375v18.829h-3.475l-.242-1.698c-1.24 1.59-2.748 1.94-4.418 1.94-3.906 0-6.573-2.748-6.573-6.896 0-4.31 2.721-6.922 6.627-6.922 1.562 0 3.044.484 4.175 1.885V8.375zM82.065 20.55c0 1.913 1.185 3.421 3.26 3.421 1.75 0 3.582-.889 3.582-3.42 0-2.236-1.805-3.422-3.582-3.422-1.994 0-3.26 1.428-3.26 3.421m17.967-12.175v7.542h-5.037v3.852h5.037v7.461h4.148V8.375zm10.937 5.496v7.03c0 2.048.889 3.098 2.747 3.098 1.805.027 3.017-1.535 3.017-3.26v-6.868h3.825v13.307h-3.502l-.134-1.751c-1.185 1.589-2.694 2.047-4.31 2.02-2.99 0-5.549-1.347-5.549-6.519v-7.057zm16.241-5.496v7.138c1.132-1.4 2.613-1.885 4.175-1.885 3.906 0 6.627 2.612 6.627 6.922 0 4.148-2.667 6.923-6.573 6.923-1.697 0-3.178-.377-4.417-1.966l-.243 1.696h-3.475V8.375zm.054 12.175c0 2.532 1.832 3.421 3.583 3.421 2.074 0 3.259-1.508 3.259-3.42 0-1.994-1.266-3.422-3.259-3.422-1.778 0-3.583 1.185-3.583 3.421" fill="#fff"/><defs><linearGradient id="a" x1="19.095" y1=".5" x2="14.835" y2="26.787" gradientUnits="userSpaceOnUse"><stop stop-color="#36A5F4"/><stop offset="1" stop-color="#3F74FC"/></linearGradient><linearGradient id="b" x1="19.095" y1=".5" x2="14.835" y2="26.787" gradientUnits="userSpaceOnUse"><stop stop-color="#36A5F4"/><stop offset="1" stop-color="#3F74FC"/></linearGradient></defs></svg>