<svg xmlns="http://www.w3.org/2000/svg" width="28" height="28" viewBox="0 0 28 28" fill="none">
  <g clip-path="url(#clip0_14252_161056)">
    <path d="M14.0474 17.2987C15.8729 17.2987 17.3527 15.824 17.3527 14.0048C17.3527 12.1857 15.8729 10.7109 14.0474 10.7109C12.222 10.7109 10.7422 12.1857 10.7422 14.0048C10.7422 15.824 12.222 17.2987 14.0474 17.2987Z" fill="#F72C59"/>
    <path d="M14.0463 0C8.20542 0 3.20254 3.54748 1.08282 8.60118H8.10611C9.57718 6.9929 11.6938 5.98464 14.0463 5.98464C18.4874 5.98464 22.0844 9.57233 22.0844 13.9982C22.0844 14.8178 21.9603 15.6126 21.7306 16.358H27.8942C28.0277 15.591 28.0959 14.8023 28.0959 13.9982C28.0928 6.26608 21.8051 0 14.0463 0Z" fill="#F72C59"/>
    <path d="M24.9485 13.9979C24.9485 14.8083 24.8585 15.5969 24.6909 16.3578H21.7302C21.9598 15.6124 22.084 14.8175 22.084 13.9979C22.084 9.5721 18.487 5.98441 14.0458 5.98441C11.6903 5.98441 9.57366 6.99267 8.10569 8.60095H4.58008C6.46082 5.33491 9.99573 3.13281 14.0458 3.13281C20.0667 3.13281 24.9485 7.99784 24.9485 13.9979Z" fill="#9B0738"/>
    <path d="M26.8673 19.7334C24.67 24.6046 19.754 27.9975 14.0466 27.9975C6.28775 27.9975 0 21.7314 0 13.9993C0 13.3096 0.0496565 12.6353 0.145866 11.9766H6.26292C6.09533 12.623 6.00533 13.3003 6.00533 13.9993C6.00533 18.4251 9.60232 22.0097 14.0435 22.0097C16.2284 22.0097 18.2084 21.1437 19.6547 19.7334H26.861H26.8673Z" fill="#F72C59"/>
    <path d="M19.6585 19.7334H23.3083C21.3841 22.8139 17.9547 24.8644 14.0473 24.8644C8.0265 24.8644 3.14465 19.9994 3.14465 13.9993C3.14465 13.3096 3.20983 12.6322 3.33397 11.9766H6.2668C6.09921 12.623 6.00921 13.3003 6.00921 13.9993C6.00921 18.4251 9.6062 22.0097 14.0473 22.0097C16.2322 22.0097 18.2123 21.1437 19.6585 19.7334Z" fill="#9B0738"/>
  </g>
  <defs>
    <clipPath id="clip0_14252_161056">
      <rect width="28" height="28" fill="white"/>
    </clipPath>
  </defs>
</svg>