<svg width="148" height="30" viewBox="0 0 148 30" fill="none" xmlns="http://www.w3.org/2000/svg">
<path d="M17.5554 11.6537C17.2154 11.2959 16.8373 10.9779 16.4283 10.7071C15.3484 9.98405 14.0906 9.59894 12.8086 9.59894C11.0274 9.59647 9.31993 10.3344 8.06191 11.6537L1.96198 18.0316C0.706321 19.3458 0.00238895 21.1249 1.42237e-06 22.9807C-0.00238611 26.8541 3.00123 29.9945 6.70875 29.9972C8.48759 30.0046 10.1951 29.2668 11.4507 27.9524L16.4854 22.6925C16.5757 22.5982 16.6278 22.4689 16.6278 22.3347C16.6255 22.0589 16.4117 21.8352 16.1452 21.8379H15.9526C14.9016 21.8428 13.8575 21.6316 12.8849 21.2168C12.7063 21.1398 12.4995 21.1818 12.3617 21.3261L8.74205 25.1126C7.61718 26.2877 5.79552 26.2877 4.67068 25.1126C3.54582 23.9373 3.54582 22.0342 4.67068 20.8589L10.7944 14.4662C11.9169 13.2935 13.7361 13.2935 14.8611 14.4662C15.6173 15.2116 16.7991 15.2116 17.5554 14.4662C17.8813 14.1258 18.0785 13.6736 18.112 13.1941C18.1452 12.6227 17.9431 12.0587 17.5554 11.6537Z" fill="white"/>
<path d="M27.0196 2.05388C24.3997 -0.684625 20.1485 -0.684625 17.5283 2.05388L12.4999 7.30474C12.3619 7.4489 12.3214 7.66758 12.4 7.85643C12.476 8.04531 12.6543 8.16707 12.8517 8.1621H13.03C14.081 8.15961 15.1198 8.37332 16.0923 8.78834C16.2705 8.86535 16.4776 8.8231 16.6153 8.67897L20.2246 4.91167C21.349 3.73624 23.1704 3.73624 24.2948 4.91167C25.4196 6.0871 25.4196 7.99063 24.2948 9.16606L19.7988 13.8603L19.7609 13.905L18.1894 15.5377C17.067 16.7106 15.2483 16.7106 14.1236 15.5377C13.3675 14.7922 12.186 14.7922 11.4299 15.5377C11.1018 15.8806 10.9044 16.3354 10.8735 16.8199C10.8379 17.394 11.04 17.9556 11.4299 18.3632C11.9839 18.9446 12.633 19.4194 13.3462 19.7673C13.4461 19.8169 13.5483 19.8565 13.6482 19.9013C13.7481 19.946 13.855 19.981 13.9549 20.0206C14.0548 20.0605 14.1617 20.0952 14.2616 20.125L14.5444 20.2045C14.7372 20.2544 14.9273 20.2939 15.1245 20.3289C15.3624 20.3661 15.6001 20.3886 15.838 20.3984H16.2018L16.4892 20.3636C16.5941 20.3588 16.7056 20.3338 16.8294 20.3338H16.9933L17.3239 20.2842L17.4785 20.2544L17.7567 20.1947H17.8088C18.9857 19.8864 20.0606 19.2477 20.9188 18.3507L27.0219 11.9717C29.6398 9.23562 29.6398 4.79487 27.0196 2.05388Z" fill="#F92B4E"/>
<path d="M18.463 18.6045C18.8229 18.244 19.143 17.8433 19.4156 17.4098C20.1434 16.2657 20.5309 14.9325 20.5309 13.5741C20.5334 11.6864 19.7909 9.87686 18.463 8.54363L12.0435 2.07922C10.7207 0.748528 8.93013 0.00253167 7.06209 1.4748e-06C3.16346 -0.00250122 0.00256692 3.18057 5.63214e-05 7.10962C-0.00744817 8.99478 0.735279 10.8043 2.05814 12.135L7.3522 17.4703C7.44722 17.5661 7.57722 17.6216 7.71228 17.6216C7.98986 17.6191 8.21491 17.3922 8.21243 17.1101V16.9057C8.20741 15.7919 8.41999 14.6855 8.8376 13.6547C8.91512 13.4657 8.87264 13.2464 8.72759 13.1002L4.91646 9.26444C3.73364 8.07236 3.73364 6.14184 4.91646 4.94976C6.0993 3.75771 8.01486 3.75771 9.1977 4.94976L15.632 11.4394C16.8125 12.629 16.8125 14.557 15.632 15.749C14.8818 16.5505 14.8818 17.8031 15.632 18.6045C15.9748 18.9497 16.4299 19.159 16.9124 19.1942C17.4877 19.2321 18.0528 19.0154 18.463 18.6045Z" fill="white"/>
<path d="M27.0398 27.9129C29.6338 25.1364 29.6338 20.6318 27.0398 17.8553L22.0657 12.5267C21.9291 12.3805 21.722 12.3377 21.543 12.4208C21.3642 12.5015 21.2488 12.6904 21.2534 12.8995V13.0885C21.2558 14.2021 21.0533 15.3031 20.6603 16.3335C20.5873 16.5224 20.6272 16.7418 20.7638 16.8878L24.3325 20.7124C25.4461 21.904 25.4461 23.834 24.3325 25.0256C23.2191 26.2174 21.4158 26.2174 20.3025 25.0256L15.8555 20.2612L15.8131 20.2211L14.2667 18.5558C13.1556 17.3664 13.1556 15.4391 14.2667 14.2474C14.9728 13.4462 14.9728 12.1941 14.2667 11.3929C13.9417 11.0452 13.5109 10.8361 13.0519 10.8033C12.508 10.7656 11.9761 10.9797 11.5901 11.3929C11.0392 11.9799 10.5896 12.6678 10.26 13.4236C10.213 13.5294 10.1753 13.6377 10.1329 13.7436C10.0905 13.8494 10.0576 13.9628 10.0199 14.0686C9.98224 14.1744 9.94929 14.2878 9.92103 14.3936L9.84571 14.6934C9.79862 14.8975 9.76096 15.099 9.728 15.3081C9.69268 15.5601 9.67152 15.812 9.66209 16.064V16.4495L9.69505 16.7542C9.69975 16.8652 9.72328 16.9835 9.72328 17.1146V17.2884L9.77037 17.6386L9.79862 17.8025L9.85511 18.0972V18.1525C10.147 19.3996 10.752 20.5386 11.6018 21.4481L17.6447 27.9154C20.2364 30.692 24.4432 30.692 27.0398 27.9129Z" fill="#F92B4E"/>
<path d="M56.6595 6.02734V9.82366H51.5151V23.1505H46.2365V9.82366H41.1484V6.02734H56.6595Z" fill="white"/>
<path d="M64.6328 10.1783C65.3757 9.69342 66.1656 9.45222 67 9.45222V14.5346H65.7272C64.7463 14.5346 64.0073 14.7396 63.518 15.1521C63.0264 15.5646 62.7815 16.2786 62.7815 17.2941V23.1508H58.3828V9.57284H62.7815V12.1152C63.2688 11.3072 63.8874 10.6607 64.6328 10.1783Z" fill="white"/>
<path d="M77.4993 10.0578C78.249 10.4639 78.8055 11.0221 79.1663 11.7369V9.61611H84.2344V22.9845H79.1663V20.8638C78.8055 21.5784 78.249 22.1389 77.4993 22.5428C76.7496 22.949 75.8658 23.1508 74.8506 23.1508C73.6961 23.1508 72.6528 22.8775 71.7225 22.3292C70.7922 21.7805 70.058 20.9871 69.5247 19.947C68.9915 18.9068 68.7233 17.6861 68.7233 16.2896C68.7233 14.8908 68.9915 13.6772 69.5247 12.6441C70.058 11.611 70.7922 10.8202 71.7225 10.274C72.6528 9.72536 73.6961 9.45224 74.8506 9.45224C75.8658 9.44983 76.7496 9.65409 77.4993 10.0578ZM74.6031 14.2757C74.1108 14.7602 73.8664 15.4323 73.8664 16.2896C73.8664 17.1636 74.1108 17.8428 74.6031 18.3273C75.095 18.8118 75.7369 19.054 76.5306 19.054C77.288 19.054 77.9166 18.807 78.4166 18.3154C78.9163 17.8238 79.1663 17.147 79.1663 16.2896C79.1663 15.4489 78.9163 14.7815 78.4166 14.2876C77.9166 13.7959 77.288 13.549 76.5306 13.549C75.7369 13.549 75.095 13.7912 74.6031 14.2757Z" fill="white"/>
<path d="M100.003 11.0129C100.98 12.0525 101.469 13.4685 101.469 15.2607V23.1508H96.2707V15.8661C96.2707 15.0749 96.0452 14.4574 95.5907 14.0136C95.1367 13.5697 94.5284 13.3478 93.7663 13.3478C92.9853 13.3478 92.3611 13.577 91.9016 14.0377C91.4396 14.4984 91.2087 15.1304 91.2087 15.9385V23.1508H85.9575V9.57285H91.2087V11.8475C91.6363 11.1214 92.2575 10.5401 93.0729 10.1059C93.8912 9.66933 94.85 9.45223 95.9521 9.45223C97.6759 9.44982 99.025 9.97085 100.003 11.0129Z" fill="white"/>
<path d="M113.056 10.7392C114.119 11.5964 114.785 12.7338 115.059 14.1466H110.62C110.507 13.6693 110.279 13.3132 109.933 13.0733C109.586 12.8359 109.163 12.7148 108.665 12.7148C108.312 12.7148 108.043 12.7908 107.857 12.9404C107.672 13.0923 107.581 13.3013 107.581 13.572C107.581 13.9044 107.778 14.1561 108.172 14.3223C108.567 14.4885 109.214 14.6761 110.115 14.8827C111.162 15.1059 112.025 15.3434 112.71 15.5975C113.393 15.8515 113.989 16.2647 114.497 16.837C115.004 17.4092 115.257 18.1786 115.257 19.1473C115.257 19.9262 115.04 20.6173 114.605 21.2204C114.17 21.8235 113.54 22.2959 112.71 22.638C111.88 22.9797 110.904 23.1508 109.779 23.1508C107.881 23.1508 106.369 22.7446 105.244 21.9349C104.118 21.1252 103.433 19.9665 103.192 18.4564H107.752C107.817 18.9479 108.028 19.3136 108.391 19.5534C108.754 19.7908 109.206 19.9119 109.755 19.9119C110.125 19.9119 110.406 19.8336 110.599 19.6745C110.791 19.5154 110.887 19.3088 110.887 19.0547C110.887 18.6724 110.683 18.3946 110.272 18.2213C109.86 18.0456 109.206 17.8722 108.305 17.6965C107.275 17.4899 106.432 17.2643 105.77 17.0174C105.111 16.7705 104.537 16.3739 104.046 15.8254C103.555 15.2769 103.31 14.5194 103.31 13.5506C103.31 12.3444 103.784 11.3589 104.734 10.5968C105.684 9.83452 107.035 9.45222 108.788 9.45222C110.57 9.45222 111.994 9.88202 113.056 10.7392Z" fill="white"/>
<path d="M128.483 10.8938C129.695 11.8556 130.457 13.1856 130.768 14.886H125.655C125.54 14.4253 125.332 14.0714 125.028 13.8245C124.725 13.5775 124.335 13.454 123.86 13.454C123.269 13.454 122.792 13.6962 122.422 14.1807C122.052 14.6652 121.868 15.3681 121.868 16.2896C121.868 17.2277 122.052 17.9331 122.422 18.4104C122.792 18.8878 123.269 19.1253 123.86 19.1253C124.335 19.1253 124.725 19.0018 125.028 18.7548C125.332 18.5078 125.54 18.1563 125.655 17.6932H130.768C130.457 19.3937 129.695 20.7283 128.483 21.6972C127.27 22.6661 125.771 23.1508 123.985 23.1508C122.608 23.1508 121.39 22.8775 120.334 22.3292C119.279 21.7805 118.453 20.9871 117.865 19.947C117.275 18.9068 116.981 17.6861 116.981 16.2896C116.981 14.8908 117.275 13.6772 117.865 12.6441C118.456 11.611 119.284 10.8202 120.347 10.2739C121.412 9.72534 122.625 9.45222 123.985 9.45222C125.771 9.45222 127.27 9.93433 128.483 10.8938Z" fill="#F92B4E"/>
<path d="M136.415 9.45222L139.511 17.2361L142.376 9.45222H148L138.84 30H133.267L136.803 22.7623L130.765 9.45222H136.415Z" fill="#F92B4E"/>
</svg>
