<svg width="139" height="28" viewBox="0 0 139 28" fill="none" xmlns="http://www.w3.org/2000/svg">
<path d="M21.6627 10.5741C21.1653 11.0563 20.6678 11.5385 20.1703 11.9725C20.1251 12.0207 20.0798 12.1172 20.0798 12.2136V22.7258C20.0798 22.9187 19.9442 23.0634 19.7633 23.0634H18.2708C18.0899 23.0634 17.9542 22.9187 17.9542 22.7258V14.6247C17.9542 14.3354 17.6829 14.1907 17.4568 14.3836C15.1955 16.216 12.9342 17.8555 10.5372 19.2057C10.4468 19.2539 10.4016 19.3503 10.4016 19.495V22.7258C10.4016 22.9187 10.2659 23.0634 10.085 23.0634H8.59253C8.41163 23.0634 8.27595 22.9187 8.27595 22.7258V21.0381C8.27595 20.797 8.04982 20.6523 7.82369 20.7488C5.74331 21.8096 3.61771 22.6776 1.44687 23.4009L0.904166 23.5456C0.723264 23.5938 0.632812 23.6902 0.632812 23.8831V27.1622C0.632812 27.355 0.768489 27.4997 0.949392 27.4997H27.316C27.4969 27.4997 27.6325 27.355 27.6325 27.1622V4.88402C27.6325 4.5947 27.2707 4.45003 27.0898 4.69114C25.7331 6.33066 23.924 8.40416 21.6627 10.5741Z" fill="url(#paint0_linear_13541_60970)"/>
<path d="M2.75842 10.1883C2.12526 10.1883 1.4921 10.1883 0.858941 10.1401C0.768489 10.1401 0.678038 10.2366 0.678038 10.333V20.4112C0.678038 20.5559 0.813715 20.6523 0.904166 20.6041C14.291 16.0713 23.6527 4.78758 26.6376 0.833454C26.7732 0.64057 26.5471 0.399465 26.3662 0.544128C23.0647 3.29273 13.703 10.1883 2.75842 10.1883Z" fill="url(#paint1_linear_13541_60970)"/>
<path d="M33.4187 27.4998L33.4189 8.375H47.1834V12.2269H37.6479V16.6983H46.5908V20.4425H37.621L37.6208 27.4998H33.4187Z" fill="white"/>
<path d="M52.0854 21.8163C52.274 23.1093 53.513 24.1598 55.6949 24.1598C56.7454 24.1598 58.2 23.9174 59.1427 23.1093L61.3246 25.5335C59.897 26.9342 57.6074 27.4999 55.6141 27.4999C50.7925 27.4999 48.1527 24.6716 48.1527 20.4156C48.1527 16.3752 50.8733 13.5469 55.21 13.5469C59.7353 13.5469 62.6983 16.3752 61.8633 21.8163H52.0854ZM58.3885 18.988C58.3077 17.5334 56.8262 16.86 55.21 16.86C53.6477 16.86 52.4625 17.6681 52.0854 18.988H58.3885Z" fill="white"/>
<path d="M67.0892 21.8163C67.2778 23.1093 68.5168 24.1598 70.6987 24.1598C71.7492 24.1598 73.2037 23.9174 74.1465 23.1093L76.3284 25.5335C74.9007 26.9342 72.6111 27.4999 70.6179 27.4999C65.7963 27.4999 63.1565 24.6716 63.1565 20.4156C63.1565 16.3752 65.8771 13.5469 70.2138 13.5469C74.7391 13.5469 77.7021 16.3752 76.8671 21.8163H67.0892ZM73.3923 18.988C73.3115 17.5334 71.83 16.86 70.2138 16.86C68.6515 16.86 67.4663 17.6681 67.0892 18.988H73.3923Z" fill="white"/>
<path d="M92.8667 8.375V27.2035H89.3919L89.1495 25.5065C87.9104 27.0957 86.402 27.4459 84.7319 27.4459C80.8261 27.4459 78.1594 24.6984 78.1594 20.5502C78.1594 16.2404 80.88 13.6276 84.7858 13.6276C86.3481 13.6276 87.8296 14.1124 88.9609 15.5131V8.375H92.8667ZM82.0652 20.5502C82.0652 22.4627 83.2504 23.9711 85.3245 23.9711C87.0754 23.9711 88.907 23.0822 88.907 20.5502C88.907 18.3145 87.1023 17.1293 85.3245 17.1293C83.3312 17.1293 82.0652 18.5569 82.0652 20.5502Z" fill="white"/>
<path d="M100.032 8.375V15.9172H94.9949V19.7691H100.032V27.2304H104.18V8.375H100.032Z" fill="white"/>
<path d="M110.969 13.8711V20.9015C110.969 22.9486 111.858 23.9992 113.716 23.9992C115.521 24.0261 116.733 22.4638 116.733 20.7399V13.8711H120.558V27.1776H117.056L116.922 25.4268C115.737 27.016 114.228 27.4739 112.612 27.447C109.622 27.447 107.063 26.1002 107.063 20.9284V13.8711H110.969Z" fill="white"/>
<path d="M127.21 8.375V15.5131C128.342 14.1124 129.823 13.6276 131.385 13.6276C135.291 13.6276 138.012 16.2404 138.012 20.5502C138.012 24.6984 135.345 27.4728 131.439 27.4728C129.742 27.4728 128.261 27.0957 127.022 25.5065L126.779 27.2035H123.304V8.375H127.21ZM127.264 20.5502C127.264 23.0822 129.096 23.9711 130.847 23.9711C132.921 23.9711 134.106 22.4627 134.106 20.5502C134.106 18.5569 132.84 17.1293 130.847 17.1293C129.069 17.1293 127.264 18.3145 127.264 20.5502Z" fill="white"/>
<defs>
<linearGradient id="paint0_linear_13541_60970" x1="19.095" y1="0.5" x2="14.8351" y2="26.7867" gradientUnits="userSpaceOnUse">
<stop stop-color="#36A5F4"/>
<stop offset="1" stop-color="#3F74FC"/>
</linearGradient>
<linearGradient id="paint1_linear_13541_60970" x1="19.095" y1="0.5" x2="14.8351" y2="26.7867" gradientUnits="userSpaceOnUse">
<stop stop-color="#36A5F4"/>
<stop offset="1" stop-color="#3F74FC"/>
</linearGradient>
</defs>
</svg>
