<svg width="136" height="30" viewBox="0 0 136 30" fill="none" xmlns="http://www.w3.org/2000/svg"><path fill-rule="evenodd" clip-rule="evenodd" d="M27.144 12.863c-.167-1.359-.88-2.326-2.095-2.863-1.093-.484-2.235-.758-3.421-.77-2.054-.02-4.111-.006-6.168-.011-.132 0-.192.031-.22.177-.213 1.124-.437 2.248-.656 3.37l-.77 3.96-.715 3.645-.767 3.961c-.266 1.362-.529 2.726-.8 4.087-.027.143.017.16.13.16q2.164-.002 4.33 0c.098 0 .142-.028.164-.137.093-.506.2-1.01.298-1.516l.646-3.329q.327-1.674.652-3.35.116-.597.236-1.195l.04-.003q.016.05.026.1.336 1.717.668 3.436c.372 1.924.745 3.85 1.106 5.777.036.186.102.223.266.223 1.342-.005 2.681-.003 4.023-.005.162 0 .373.08.469-.046.06-.08-.047-.292-.077-.444a2 2 0 0 0-.027-.125l-1.038-4.38c-.274-1.155-.537-2.31-.825-3.46-.057-.23-.019-.315.19-.412.958-.455 1.883-.987 2.648-1.756 1.38-1.405 1.928-3.118 1.687-5.094m-4.886 1.624c-.014.47-.173 1.142-.485 1.78-.425.869-1.11 1.335-2.016 1.484-.449.074-.898.108-1.353.131-.15.009-.186-.04-.156-.191.159-.784.31-1.57.463-2.357.178-.912.359-1.822.526-2.737.035-.192.101-.258.293-.25.465.018.936-.025 1.397.075.917.2 1.347.795 1.33 2.065M47.22 28.605h-5.062c-.233 0-.228 0-.182-.247q.343-1.804.691-3.61c.214-1.117.434-2.237.648-3.354q.349-1.803.693-3.607.326-1.696.656-3.397.349-1.806.694-3.607.136-.696.263-1.392c.024-.13.075-.172.206-.172 3.183.003 7.066.003 10.25 0 .147 0 .187.034.155.197a300 300 0 0 0-.667 3.461c-.032.17-.103.198-.25.198-1.644-.006-3.99 0-5.638-.009-.157 0-.209.049-.238.204-.217 1.16-.442 2.323-.67 3.48-.024.126.035.112.106.112h.797c1.149 0 2.297.003 3.449-.003.154 0 .209.014.168.212a167 167 0 0 0-.629 3.292c-.032.169-.127.154-.235.154-1.382 0-2.761.003-4.143-.005-.185 0-.247.046-.285.249-.222 1.22-.46 2.435-.702 3.65-.068.35-.078.346.266.346 1.815 0 3.63.003 5.449-.005.198 0 .217.051.179.246-.203.997-.39 1.997-.58 2.994a4 4 0 0 1-.049.232c-.084.38-.084.38-.463.38zM7.307 9.227h6.302c.248 0 .243 0 .196.238q-.329 1.666-.646 3.333c-.033.18-.091.263-.293.26-1.248-.011-2.496-.003-3.742-.008-.149 0-.218.037-.248.197-.188 1-.387 1.996-.583 2.995l-.666 3.373q-.351 1.804-.707 3.604-.331 1.696-.668 3.396c-.113.575-.23 1.15-.331 1.73-.033.182-.089.263-.29.26a348 348 0 0 0-4.223-.003c-.168 0-.215-.043-.18-.218q.431-2.14.849-4.277l.707-3.628c.262-1.334.53-2.668.792-4.005.213-1.074.42-2.15.638-3.224.036-.18-.047-.18-.174-.18-1.281.002-2.565 0-3.847.005-.17 0-.22-.017-.18-.223.23-1.108.44-2.219.65-3.333.038-.206.096-.303.34-.3 2.104.017 4.205.008 6.304.008M91.76 29.976a6.2 6.2 0 0 1-3.21-.564c-1.88-.89-2.918-2.636-2.792-4.756.047-.768.26-1.511.406-2.265q.519-2.678 1.057-5.351c.286-1.412.467-2.849.874-4.226.57-1.93 1.867-3.283 3.534-4.266a8.3 8.3 0 0 1 4.327-1.165c1.118.006 2.225.02 3.28.473 1.465.63 2.514 1.658 2.954 3.271.214.788.187 1.585.03 2.378-.338 1.723-.67 3.447-1.011 5.167-.324 1.639-.697 3.268-.98 4.915-.324 1.9-1.269 3.379-2.721 4.532-1.667 1.324-3.553 1.99-5.748 1.857m-58.348-.936c-1.219.066-2.43.035-3.595-.434-1.105-.443-1.959-1.21-2.375-2.499-.228-.701-.273-1.432-.223-2.174.066-.952.284-1.872.444-2.806.172-1.018.362-2.033.545-3.049l.61-3.387.535-2.985q.211-1.164.413-2.33c.02-.108.058-.157.162-.157q2.033.005 4.064 0c.12 0 .137.052.117.17q-.506 2.771-1.004 5.544l-.76 4.278q-.266 1.492-.537 2.985a5.3 5.3 0 0 0-.089 1.182q.074.477.102.958c.091.9.268 1.777.593 2.608.25.641.544 1.254.925 1.812.05.083.139.158.073.284M84.49 10.01c-1.066-.474-2.185-.76-3.346-.774-2.17-.029-4.341-.009-6.509-.017-.194 0-.265.06-.301.26-.184.99-.39 1.979-.587 2.965l-1.198 5.927q-.595 2.964-1.186 5.928c-.27 1.352-.533 2.704-.812 4.057-.04.189 0 .243.189.243q2.17-.009 4.34 0c.156 0 .22-.052.246-.209.062-.354.146-.706.217-1.058q.499-2.48.995-4.96c.22-1.093.437-2.182.66-3.283.078.066.07.146.084.214.163.824.321 1.645.485 2.468.434 2.196.87 4.392 1.296 6.588.037.186.11.243.29.243 1.47-.006 2.935-.006 4.404.003.236.003.256-.095.208-.29-.67-2.747-1.339-5.498-2.015-8.248-.043-.172-.009-.24.146-.315.406-.194.806-.406 1.198-.626 1.954-1.095 3.19-2.702 3.36-5.012.138-1.902-.485-3.354-2.165-4.103m-3.77 6.817c-.5.686-1.225.887-1.99 1.01-.298.048-.602.057-.84.08-.47.014-.464.014-.385-.38q.503-2.493 1.003-4.99c.023-.106.014-.223.166-.223.587 0 1.176-.049 1.748.131.767.24 1.15.764 1.15 1.659 0 .99-.262 1.904-.851 2.713m-8.353-3.672c-.07-1.418-.768-2.494-2.025-3.151-1.032-.543-2.155-.735-3.302-.769-1.044-.029-2.093-.006-3.136-.006v-.005c-1.17 0-2.343.005-3.514-.006-.239-.003-.323.074-.365.309-.152.846-.324 1.686-.492 2.53l-1.007 4.988c-.358 1.787-.71 3.577-1.07 5.366q-.594 2.964-1.197 5.924c-.04.192-.012.269.202.269q2.182-.008 4.36-.003c.174 0 .247-.049.284-.238.464-2.35.94-4.7 1.406-7.05.05-.26.124-.388.43-.38 1.401.029 2.796.006 4.17-.371 3.678-1.02 5.43-3.868 5.256-7.407m-5.814 3.536c-.689.906-1.662 1.15-2.731 1.143-.684.003-.675.003-.537-.663q.469-2.29.917-4.583c.04-.211.118-.283.326-.271.47.026.94-.026 1.406.068.858.172 1.297.607 1.37 1.487.09 1.024-.124 1.99-.75 2.819m43.23-7.467c1.558 0 3.119.002 4.678-.006.259 0 .383.008.309.352-.235 1.075-.436 2.162-.64 3.242-.044.23-.193.18-.328.18-1.6.003-3.2.01-4.799-.005-.273-.003-.367.083-.417.349-.201 1.084-.419 2.165-.634 3.246-.077.388-.083.388.284.388 1.335 0 2.667.003 3.999-.002.215 0 .306.014.248.294-.218 1.015-.405 2.036-.596 3.06-.044.243-.129.346-.397.343-1.354-.017-2.708-.003-4.062-.014-.221-.003-.287.069-.331.294-.317 1.668-.651 3.33-.979 4.993-.16.813-.326 1.622-.475 2.434-.03.174-.094.229-.256.229-1.407-.003-2.811-.009-4.217.003-.271.003-.213-.155-.182-.31.226-1.155.458-2.307.686-3.462q.58-2.935 1.153-5.865l1.172-5.96c.227-1.155.458-2.308.668-3.466.047-.252.135-.326.378-.323 1.58.011 3.16.006 4.738.006m19.674 0c2.079 0 4.157.005 6.238-.006.293-.003.34.077.282.36a108 108 0 0 0-.622 3.118c-.045.235-.139.29-.346.286-1.204-.008-2.408 0-3.612-.008-.202 0-.296.026-.343.271-.445 2.333-.908 4.66-1.367 6.99q-.773 3.897-1.55 7.794c-.113.569-.119.569-.692.569-1.264 0-2.532-.006-3.796.006-.263.003-.308-.075-.255-.33.495-2.483.98-4.967 1.472-7.451.451-2.287.911-4.574 1.365-6.86.047-.24.069-.486.135-.718.061-.211.003-.248-.194-.248-1.226.008-2.449.005-3.675.003-.365 0-.362-.006-.29-.372.207-1.03.418-2.055.603-3.087.047-.257.147-.317.385-.317 2.086.005 4.176 0 6.262 0m-14.227 19.374c-.686 0-1.373-.006-2.06.003-.19.003-.249-.052-.209-.258q.712-3.616 1.412-7.236c.407-2.102.803-4.204 1.207-6.305.34-1.77.687-3.537 1.024-5.304.04-.217.13-.283.341-.28q2.015.016 4.028 0c.247-.003.309.063.258.323a1433 1433 0 0 0-1.151 5.896l-1.031 5.367q-.518 2.683-1.04 5.366c-.138.718-.282 1.436-.409 2.153-.036.21-.112.284-.315.28-.681-.014-1.368-.005-2.055-.005" fill="#fff"/><path d="m45.25 4.967.824 1.84c.066.148 0 .17-.123.17l-.642-.002c-.386 0-.772 0-1.157-.011-.192-.006-.258.057-.29.247a93 93 0 0 1-.337 1.752l-.002.007-.054.274a1 1 0 0 1-.033.097l-.007.017-.008.02.001.003c.01.227-.041.444-.093.66q-.034.139-.06.278c-.127.689-.253 1.377-.399 2.06q-.051.244-.093.491c-.059.329-.117.657-.22.976l-.005-.005v.008c-.013.256-.07.505-.126.755a10 10 0 0 0-.075.354c-.107.597-.226 1.19-.345 1.785v.001l-.135.68a1 1 0 0 1-.043.142l-.02.056v-.007.002c-.03.316-.096.625-.161.934a16 16 0 0 0-.095.465c-.071.392-.15.783-.228 1.173l-.09.45a1 1 0 0 1-.03.088l-.009.023-.01.029-.004-.002v.005a3 3 0 0 0-.07.355q-.022.148-.056.293c-.024.287-.085.567-.146.847l-.068.319-.023.16c-.027.189-.053.38-.128.557v-.004a3.3 3.3 0 0 1-.247.948l.001-.014-.004.014c-.244.816-.63 1.546-1.201 2.171l.001.004q-.04.046-.08.088l-.079.089a2.5 2.5 0 0 1-.376.386 1.2 1.2 0 0 1-.288.302c-1.126.915-2.411 1.444-3.814 1.675l-.215.033a4 4 0 0 1-.787.072c-.042-.177-.149-.312-.255-.446a2 2 0 0 1-.14-.188c-.7-1.1-1.165-2.29-1.332-3.6a9 9 0 0 1-.037-.365l-.002-.016-.01-.063c-.017-.091-.036-.192.035-.222.06-.024.084.039.109.104.012.033.024.067.042.09q.028.035.051.073.031.052.073.097c.365.455.854.592 1.4.578.584 0 1.1-.2 1.558-.574l-.001-.001c.59-.557.925-1.257 1.065-2.065q.014-.055.036-.11l.019-.049q.079-.65.252-1.285l.001-.003-.003.003a10 10 0 0 1 .173-.98q.056-.258.104-.516.01-.062.017-.125c.01-.09.02-.18.063-.265l.003-.003.105-.544v-.003q.184-.956.375-1.912.04-.203.076-.407c.057-.316.114-.634.207-.944.037-.121.058-.247.078-.373a5 5 0 0 1 .043-.233h-.003.003c.015-.248.066-.49.116-.73q.037-.168.067-.336c.062-.353.138-.702.214-1.051l.105-.49.005-.013.004-.01.063-.366v-.006q.057-.338.12-.672.145-.737.3-1.475V9.58q.237-1.156.49-2.32l.004-.02c.006-.148.01-.222-.024-.26-.035-.037-.107-.038-.25-.039h-.01l-.515-.002q-.517-.002-1.033-.007l-.037.003c-.044.005-.089.01-.108-.042-.016-.045.014-.076.044-.106l.019-.02 1.621-1.913 1.622-1.914.055-.055.008-.007.007-.006h-.002l.626-.753.626-.752.537-.635.537-.636c.082-.1.137-.16.211.014l1.42 3.238.678 1.543q.02.032.025.076" fill="url(#a)"/><path fill-rule="evenodd" clip-rule="evenodd" d="M97.053 23.316c-.2.58-.556.898-.966 1.159-.955.603-2.008.85-3.107.903-1.09.05-2.154-.069-3.13-.639-.458-.267-.815-.62-.865-1.212-.006-.061-.03-.128.026-.172.062-.047.112.003.155.044.758.767 1.718 1.037 2.72 1.151 1.44.161 2.842-.014 4.18-.628a4.7 4.7 0 0 0 .987-.606m-6.099-9.274c.572.595 1.266.931 2.027 1.095 2.033.442 3.972.2 5.773-.934l.167-.1c-.149.515-.49.804-.859 1.048-.843.562-1.782.826-2.77.92-1.055.1-2.093.045-3.093-.364-.436-.178-.825-.428-1.11-.837-.175-.252-.223-.433-.135-.828m-.651 3.03c1.37 1.27 2.985 1.406 4.653 1.273 1.013-.08 1.984-.359 2.876-.89.133-.08.263-.172.438-.286-.06.359-.236.584-.462.779-.586.503-1.267.8-1.993.983-1.229.31-2.463.348-3.695.012-.55-.15-1.059-.39-1.476-.818-.274-.283-.373-.617-.34-1.053m7.133 3.653c-.354.517-.862.823-1.407 1.045-1.697.69-3.418.793-5.153.142a2.3 2.3 0 0 1-1.093-.817c-.181-.253-.221-.534-.181-.853 1.391 1.276 3.032 1.42 4.746 1.256.973-.094 1.901-.358 2.758-.867.136-.08.263-.178.396-.27.195.164-.034.245-.066.364" fill="#009E73"/><path fill-rule="evenodd" clip-rule="evenodd" d="M98.576 15.77c-.255.615-.766.943-1.303 1.201-1.607.765-3.275.873-4.977.409a3 3 0 0 1-1.339-.762c-.242-.239-.348-.544-.383-.88-.005-.05-.01-.11.043-.137s.093.011.13.044c1.602 1.404 3.464 1.363 5.368 1.048a6 6 0 0 0 1.897-.684 2.3 2.3 0 0 0 .442-.305c.066-.028.13-.05.122.066m-2.079 4.344c-1.641.679-3.31.8-5.004.242-.5-.164-.963-.422-1.293-.881a.87.87 0 0 1-.183-.478c-.032-.122-.059-.248.016-.364 1.897 1.593 4.025 1.495 6.211.917.625-.167 1.2-.461 1.748-.834-.186.645-.71.942-1.205 1.27-.088.059-.2.067-.29.128m-.714 3.168c-1.638.678-3.306.786-4.993.239-.548-.178-1.069-.445-1.367-1.018-.032-.064-.074-.128-.088-.194-.032-.159-.117-.381-.002-.47.122-.095.207.133.308.217.705.592 1.54.836 2.408.953 1.667.223 3.271-.014 4.77-.856.153-.086.297-.194.454-.295-.016.39-.269.656-1.2 1.296-.087.055-.2.064-.29.128m-4.577-10.817c.764.837 1.724 1.14 2.727 1.279a7.7 7.7 0 0 0 4.376-.64c.247-.114.502-.211.808-.336-.175.456-.497.675-.814.89-.702.472-1.484.714-2.303.839-1.088.164-2.171.145-3.224-.211-.5-.17-.971-.406-1.325-.837-.224-.272-.298-.584-.245-.984" fill="#009E73"/><defs><linearGradient id="a" x1="33.752" y1="29.003" x2="43.405" y2=".195" gradientUnits="userSpaceOnUse"><stop stop-color="#1FC988"/><stop offset="1" stop-color="#18C5A3"/></linearGradient></defs></svg>