<svg width="136" height="30" viewBox="0 0 136 30" fill="none" xmlns="http://www.w3.org/2000/svg">
<path fill-rule="evenodd" clip-rule="evenodd" d="M27.1438 12.8627C26.9767 11.5041 26.2646 10.5373 25.0486 9.99959C23.9558 9.51621 22.8137 9.24163 21.6278 9.23019C19.5736 9.21017 17.5168 9.22447 15.4599 9.21875C15.3284 9.21875 15.2682 9.25021 15.2408 9.39608C15.0272 10.5201 14.8026 11.6442 14.5835 12.7654C14.326 14.0868 14.0713 15.4054 13.8138 16.7268C13.5756 17.9424 13.3373 19.1551 13.099 20.3707C12.8416 21.6922 12.5896 23.0107 12.3321 24.3321C12.0665 25.6936 11.8035 27.0579 11.5324 28.4194C11.505 28.5624 11.5488 28.5796 11.6611 28.5796C13.1045 28.5796 14.5479 28.5767 15.9912 28.5796C16.0898 28.5796 16.1336 28.551 16.1556 28.4423C16.2487 27.936 16.3555 27.4326 16.4541 26.9264C16.6705 25.8166 16.8841 24.7068 17.1005 23.5971C17.3168 22.4816 17.5359 21.3632 17.7523 20.2478C17.829 19.8502 17.9084 19.4498 17.9878 19.0522C18.0015 19.0522 18.0152 19.0493 18.0289 19.0493C18.0371 19.0836 18.0481 19.1151 18.0536 19.1494C18.2782 20.2935 18.5 21.4376 18.7218 22.5846C19.0943 24.5095 19.4668 26.4344 19.8283 28.3622C19.8639 28.5481 19.9297 28.5853 20.094 28.5853C21.436 28.5796 22.7753 28.5824 24.1174 28.5796C24.279 28.5796 24.4898 28.6597 24.5857 28.5338C24.646 28.4537 24.5391 28.2421 24.509 28.0905C24.5008 28.0476 24.4926 28.0075 24.4816 27.9646C24.1365 26.5031 23.7887 25.0443 23.4436 23.5856C23.1697 22.4301 22.9068 21.2746 22.6192 20.1248C22.5617 19.8959 22.6 19.8101 22.8082 19.7129C23.7668 19.2581 24.6925 18.7261 25.4567 17.9567C26.837 16.5524 27.3848 14.8391 27.1438 12.8627ZM22.2577 14.4873C22.244 14.9563 22.0851 15.6285 21.7729 16.2663C21.3484 17.1358 20.6637 17.602 19.7571 17.7508C19.308 17.8251 18.8588 17.8595 18.4041 17.8824C18.2535 17.8909 18.2179 17.8423 18.248 17.6907C18.4069 16.907 18.5575 16.1205 18.7109 15.3339C18.8889 14.4215 19.0697 13.5119 19.2367 12.5967C19.2724 12.405 19.3381 12.3392 19.5298 12.3478C19.9954 12.365 20.4665 12.3221 20.9266 12.4222C21.8441 12.6224 22.2741 13.2173 22.2577 14.4873Z" fill="white"/>
<path fill-rule="evenodd" clip-rule="evenodd" d="M47.2193 28.6047C45.5339 28.6047 43.8458 28.6047 42.1577 28.6047C41.9246 28.6047 41.9301 28.6047 41.9761 28.3583C42.2064 27.1551 42.4341 25.9519 42.6671 24.7487C42.8812 23.6314 43.1006 22.5113 43.3147 21.394C43.5477 20.1908 43.7781 18.9905 44.0084 17.7873C44.2251 16.6557 44.4446 15.5241 44.6641 14.3897C44.8971 13.1865 45.1275 11.9833 45.3578 10.7829C45.4472 10.3188 45.5366 9.85473 45.6206 9.39064C45.645 9.26172 45.6965 9.21875 45.8266 9.21875C49.0104 9.22161 52.8934 9.22161 56.0773 9.21875C56.2236 9.21875 56.2642 9.25313 56.2317 9.41642C56.0041 10.5681 55.7792 11.7226 55.5651 12.8771C55.5326 13.0461 55.4622 13.0747 55.3158 13.0747C53.6711 13.069 51.3245 13.0747 49.677 13.0661C49.5198 13.0661 49.4684 13.1148 49.4386 13.2695C49.2218 14.4298 48.9969 15.5929 48.7693 16.7502C48.7449 16.8763 48.8045 16.862 48.8749 16.862C49.1405 16.862 49.406 16.862 49.6716 16.862C50.8205 16.862 51.9694 16.8648 53.121 16.8591C53.2755 16.8591 53.3296 16.8734 53.289 17.0711C53.0668 18.1654 52.8609 19.2627 52.6604 20.3627C52.6278 20.5317 52.533 20.5174 52.4246 20.5174C51.0427 20.5174 49.6635 20.5203 48.2815 20.5117C48.0973 20.5117 48.0349 20.5575 47.997 20.7609C47.7748 21.9813 47.5364 23.196 47.2952 24.4107C47.2275 24.7602 47.2166 24.7573 47.5608 24.7573C49.3762 24.7573 51.1917 24.7602 53.0099 24.7516C53.2077 24.7516 53.2267 24.8031 53.1887 24.9979C52.9855 25.9949 52.7986 26.9947 52.6089 27.9916C52.5953 28.069 52.5791 28.1463 52.5601 28.2237C52.4761 28.6047 52.4761 28.6047 52.0967 28.6047C50.4709 28.6047 48.8451 28.6047 47.2193 28.6047Z" fill="white"/>
<path fill-rule="evenodd" clip-rule="evenodd" d="M7.30703 9.2274C9.4058 9.2274 11.5073 9.2274 13.6089 9.2274C13.8574 9.2274 13.8519 9.2274 13.8049 9.46503C13.5868 10.5759 13.3686 11.6868 13.1587 12.7976C13.1256 12.978 13.0676 13.061 12.866 13.0582C11.6178 13.0467 10.3696 13.0553 9.12413 13.0496C8.975 13.0496 8.90596 13.0868 8.87559 13.2471C8.6878 14.2463 8.48897 15.2427 8.2929 16.2419C8.07198 17.3671 7.84829 18.4894 7.62737 19.6146C7.39264 20.8171 7.1579 22.0196 6.92041 23.2192C6.69949 24.3501 6.4758 25.481 6.25212 26.6148C6.13889 27.1903 6.02291 27.7657 5.92073 28.3441C5.88759 28.5273 5.83236 28.6075 5.63077 28.6046C4.22238 28.5932 2.81675 28.596 1.40836 28.6017C1.23991 28.6017 1.19296 28.5588 1.22886 28.3842C1.51607 26.9583 1.79774 25.5325 2.07666 24.1067C2.31415 22.8985 2.54612 21.6874 2.78361 20.4792C3.04596 19.1451 3.31383 17.8109 3.57618 16.4738C3.78882 15.4002 3.99593 14.3237 4.2141 13.25C4.25 13.0696 4.16715 13.0696 4.04012 13.0696C2.75876 13.0725 1.47464 13.0696 0.193284 13.0754C0.0220684 13.0754 -0.0276394 13.0582 0.0137838 12.852C0.242992 11.744 0.45287 10.6332 0.662747 9.51943C0.701409 9.31329 0.759401 9.21595 1.00242 9.21881C3.10672 9.23599 5.20825 9.2274 7.30703 9.2274Z" fill="white"/>
<path fill-rule="evenodd" clip-rule="evenodd" d="M91.7605 29.9757C90.6951 30.0664 89.594 29.9049 88.5505 29.4117C86.6695 28.5217 85.6315 26.7757 85.7578 24.6556C85.8045 23.8875 86.0187 23.1449 86.1642 22.3909C86.5102 20.6053 86.8617 18.8225 87.2214 17.0397C87.507 15.6281 87.6882 14.1911 88.0947 12.8136C88.6658 10.8834 89.9619 9.5314 91.6287 8.54788C92.966 7.75992 94.4077 7.37445 95.9564 7.38295C97.074 7.38862 98.1806 7.40279 99.2351 7.85629C100.701 8.48552 101.75 9.5144 102.19 11.1272C102.404 11.9151 102.377 12.7116 102.22 13.5052C101.882 15.2285 101.55 16.9518 101.209 18.6722C100.885 20.3105 100.512 21.9403 100.229 23.587C99.9051 25.4861 98.9605 26.9656 97.5079 28.1192C95.8411 29.4429 93.9546 30.1089 91.7605 29.9757Z" fill="white"/>
<path fill-rule="evenodd" clip-rule="evenodd" d="M33.412 29.0402C32.1933 29.1064 30.9821 29.0747 29.8166 28.606C28.7119 28.1632 27.858 27.3954 27.4424 26.1071C27.2144 25.4055 27.1688 24.6751 27.2195 23.9332C27.2853 22.9813 27.5032 22.0612 27.6629 21.1266C27.8352 20.1086 28.0252 19.0935 28.2076 18.0785C28.4103 16.9483 28.6156 15.8211 28.8183 14.691C28.9956 13.696 29.1755 12.7011 29.3529 11.7061C29.4923 10.9297 29.6316 10.1533 29.7659 9.37691C29.7862 9.26763 29.8242 9.21875 29.9281 9.21875C31.2836 9.22163 32.6367 9.22163 33.9922 9.21875C34.1113 9.21875 34.1291 9.27051 34.1088 9.38841C33.7718 11.2374 33.4373 13.0835 33.1054 14.9326C32.8495 16.3588 32.5987 17.7851 32.3453 19.2114C32.1679 20.2064 31.988 21.2014 31.8081 22.1963C31.7372 22.5874 31.7017 22.9813 31.7194 23.3782C31.7676 23.6945 31.8031 24.0166 31.8208 24.3357C31.912 25.2358 32.0894 26.1129 32.4137 26.9439C32.6645 27.5852 32.9585 28.1977 33.3385 28.7555C33.3892 28.8389 33.4779 28.9137 33.412 29.0402Z" fill="white"/>
<path fill-rule="evenodd" clip-rule="evenodd" d="M84.4893 10.0108C83.4239 9.53613 82.3049 9.2502 81.1436 9.23591C78.9732 9.20731 76.8028 9.22733 74.6353 9.21875C74.4408 9.21875 74.3704 9.2788 74.3337 9.47894C74.1505 10.4683 73.9447 11.4576 73.7474 12.444C73.3472 14.4198 72.9469 16.3955 72.5495 18.3713C72.1521 20.347 71.7575 22.3228 71.3629 24.2986C71.0923 25.651 70.8301 27.0034 70.5511 28.3559C70.5116 28.5446 70.5511 28.5989 70.7399 28.5989C72.1859 28.5932 73.6347 28.5932 75.0807 28.5989C75.2357 28.5989 75.3005 28.5474 75.3259 28.3902C75.3879 28.0356 75.4724 27.6839 75.5429 27.3322C75.8755 25.6796 76.2081 24.0241 76.5379 22.3714C76.7577 21.2792 76.9748 20.1898 77.1975 19.089C77.2764 19.1547 77.2679 19.2348 77.282 19.3034C77.4455 20.1269 77.6033 20.9475 77.7668 21.771C78.2009 23.9669 78.6378 26.1628 79.0634 28.3587C79.1001 28.5446 79.1733 28.6018 79.3537 28.6018C80.8223 28.596 82.2879 28.596 83.7565 28.6046C83.9932 28.6075 84.013 28.5103 83.965 28.3158C83.2942 25.5681 82.6262 22.8175 81.9497 20.0668C81.9074 19.8953 81.9413 19.8267 82.0963 19.7523C82.5022 19.5579 82.9024 19.3463 83.2942 19.1261C85.2475 18.031 86.4849 16.4241 86.654 14.1138C86.7922 12.2124 86.1692 10.7599 84.4893 10.0108ZM80.7208 16.8273C80.2191 17.5135 79.4947 17.7137 78.7308 17.8366C78.432 17.8852 78.1276 17.8938 77.8909 17.9167C77.4201 17.931 77.4258 17.931 77.5047 17.5364C77.8401 15.8751 78.1755 14.211 78.5081 12.5469C78.5307 12.4412 78.5222 12.3239 78.6744 12.3239C79.2607 12.3239 79.8498 12.2753 80.422 12.4554C81.1887 12.6956 81.572 13.2189 81.572 14.1138C81.572 15.1031 81.3099 16.0181 80.7208 16.8273Z" fill="white"/>
<path fill-rule="evenodd" clip-rule="evenodd" d="M72.3671 13.1555C72.2968 11.7375 71.5992 10.6625 70.3419 10.005C69.3097 9.46183 68.1874 9.27029 67.0398 9.23598C65.9963 9.20739 64.9471 9.23026 63.9036 9.23026V9.22454C62.7335 9.22454 61.5606 9.23026 60.3905 9.21883C60.1514 9.21597 60.067 9.29316 60.0248 9.52758C59.8729 10.3738 59.7014 11.2143 59.5326 12.0577C59.1979 13.7215 58.8604 15.3825 58.5256 17.0464C58.1684 18.8331 57.8168 20.6228 57.4568 22.4124C57.0602 24.3879 56.6608 26.3633 56.2586 28.336C56.2192 28.5275 56.2473 28.6047 56.4611 28.6047C57.9153 28.599 59.3695 28.599 60.8208 28.6018C60.9952 28.6018 61.0684 28.5532 61.1049 28.3645C61.569 26.0146 62.0444 23.6646 62.5113 21.3146C62.5619 21.0545 62.635 20.9258 62.9416 20.9344C64.3424 20.963 65.7375 20.9401 67.1101 20.5627C70.7892 19.5421 72.5415 16.6947 72.3671 13.1555ZM66.5532 16.6919C65.8641 17.5981 64.8909 17.8411 63.822 17.8354C63.1385 17.8383 63.147 17.8383 63.2848 17.1721C63.597 15.6455 63.9036 14.1189 64.2017 12.5894C64.2411 12.3779 64.3199 12.3064 64.528 12.3178C64.9977 12.3435 65.4675 12.2921 65.9344 12.3864C66.7923 12.558 67.231 12.9925 67.3042 13.873C67.3942 14.8965 67.1804 15.8628 66.5532 16.6919Z" fill="white"/>
<path fill-rule="evenodd" clip-rule="evenodd" d="M109.784 9.22455C111.342 9.22455 112.903 9.22741 114.462 9.21883C114.721 9.21883 114.845 9.22741 114.771 9.57057C114.536 10.6458 114.335 11.7325 114.131 12.8135C114.087 13.0422 113.938 12.9936 113.803 12.9936C112.203 12.9965 110.603 13.0022 109.004 12.9879C108.731 12.985 108.637 13.0708 108.587 13.3368C108.386 14.4206 108.168 15.5016 107.953 16.5825C107.876 16.9714 107.87 16.9714 108.237 16.9714C109.572 16.9714 110.904 16.9743 112.236 16.9686C112.451 16.9686 112.542 16.9829 112.484 17.2631C112.266 18.2783 112.079 19.2992 111.888 20.323C111.844 20.5661 111.759 20.669 111.491 20.6662C110.137 20.649 108.783 20.6633 107.429 20.6519C107.208 20.649 107.142 20.7205 107.098 20.9464C106.781 22.6136 106.447 24.2751 106.119 25.9394C105.959 26.7516 105.793 27.5609 105.644 28.373C105.614 28.5475 105.55 28.6018 105.388 28.6018C103.981 28.5989 102.577 28.5932 101.171 28.6046C100.9 28.6075 100.958 28.4502 100.989 28.2958C101.215 27.1405 101.447 25.988 101.675 24.8327C102.062 22.8767 102.445 20.9207 102.828 18.9675C103.22 16.98 103.609 14.9925 104 13.0079C104.227 11.8526 104.458 10.7001 104.668 9.54197C104.715 9.29032 104.803 9.21597 105.046 9.21883C106.626 9.23027 108.206 9.22455 109.784 9.22455Z" fill="white"/>
<path fill-rule="evenodd" clip-rule="evenodd" d="M129.458 9.22454C131.537 9.22454 133.615 9.23026 135.696 9.21882C135.989 9.21596 136.036 9.296 135.978 9.57898C135.757 10.6137 135.547 11.6542 135.356 12.6975C135.311 12.9319 135.217 12.9862 135.01 12.9834C133.806 12.9748 132.602 12.9834 131.398 12.9748C131.196 12.9748 131.102 13.0005 131.055 13.2463C130.61 15.5788 130.147 17.9056 129.688 20.2352C129.173 22.8335 128.656 25.4318 128.138 28.0301C128.025 28.5989 128.019 28.5989 127.446 28.5989C126.182 28.5989 124.914 28.5932 123.65 28.6046C123.387 28.6075 123.342 28.5303 123.395 28.2759C123.89 25.7919 124.375 23.308 124.867 20.824C125.318 18.5373 125.778 16.2505 126.232 13.9638C126.279 13.7237 126.301 13.4779 126.367 13.2463C126.428 13.0348 126.37 12.9977 126.173 12.9977C124.947 13.0062 123.724 13.0034 122.498 13.0005C122.133 13.0005 122.136 12.9948 122.208 12.6289C122.415 11.5999 122.626 10.5737 122.811 9.54182C122.858 9.28457 122.958 9.22454 123.196 9.22454C125.282 9.23026 127.372 9.22454 129.458 9.22454Z" fill="white"/>
<path fill-rule="evenodd" clip-rule="evenodd" d="M115.231 28.5989C114.545 28.5989 113.858 28.5932 113.171 28.6017C112.981 28.6046 112.922 28.5503 112.962 28.3444C113.437 25.9341 113.907 23.5208 114.374 21.1076C114.781 19.0061 115.177 16.9045 115.581 14.803C115.921 13.0331 116.268 11.2661 116.605 9.49905C116.645 9.28174 116.735 9.21598 116.946 9.21884C118.29 9.23028 119.631 9.23028 120.974 9.21884C121.221 9.21598 121.283 9.28174 121.232 9.54194C120.844 11.5062 120.461 13.4706 120.081 15.4377C119.736 17.2276 119.394 19.0175 119.05 20.8046C118.705 22.5944 118.358 24.3815 118.01 26.1714C117.872 26.889 117.728 27.6067 117.601 28.3244C117.565 28.5331 117.489 28.6075 117.286 28.6046C116.605 28.5903 115.918 28.5989 115.231 28.5989Z" fill="white"/>
<path d="M45.2506 4.96738L45.2508 4.96773C45.5253 5.58187 45.7998 6.19601 46.0744 6.80731C46.1403 6.95519 46.0744 6.97794 45.9508 6.97794C45.737 6.9759 45.5229 6.97569 45.3086 6.97547C44.9231 6.97508 44.5372 6.97469 44.1524 6.96372C43.9602 6.95803 43.8943 7.02059 43.8613 7.21113C43.7573 7.79653 43.641 8.37982 43.5248 8.96281L43.5233 8.97043C43.5051 9.06177 43.4869 9.1531 43.4687 9.24444C43.4611 9.27771 43.4484 9.30972 43.4358 9.34123L43.4355 9.34182L43.429 9.35822C43.4263 9.36509 43.4236 9.37194 43.4211 9.37879L43.422 9.38094C43.4317 9.60838 43.3805 9.82461 43.3292 10.0414C43.3074 10.1337 43.2855 10.226 43.2683 10.3194L43.2682 10.3198C43.1419 11.0079 43.0157 11.6959 42.8702 12.3783C42.8354 12.5413 42.8061 12.7057 42.7768 12.87C42.7182 13.1986 42.6597 13.5272 42.5572 13.8457C42.5555 13.8442 42.5538 13.8427 42.5522 13.8412L42.5516 13.8485C42.5386 14.1055 42.4824 14.3545 42.4263 14.6038L42.4262 14.604C42.3997 14.7215 42.3732 14.8392 42.3512 14.9576C42.2439 15.5546 42.125 16.1488 42.0061 16.7431L42.0059 16.7441L42.0057 16.7449C41.9605 16.9709 41.9153 17.1969 41.8707 17.4232C41.8629 17.4717 41.8454 17.5188 41.828 17.5655C41.8209 17.5845 41.8139 17.6034 41.8076 17.6222L41.808 17.6149L41.8076 17.6166C41.7783 17.9332 41.7124 18.2422 41.6465 18.5512C41.6135 18.7057 41.5806 18.8602 41.5522 19.0157C41.4808 19.408 41.4023 19.7989 41.3238 20.1893L41.3237 20.1896C41.2936 20.3396 41.2634 20.4896 41.2337 20.6395C41.2268 20.67 41.2155 20.6983 41.2039 20.7271C41.201 20.7346 41.198 20.742 41.1951 20.7496C41.1935 20.7536 41.1919 20.7577 41.1904 20.7619C41.1883 20.7675 41.1863 20.7731 41.1843 20.7789L41.1814 20.7767L41.1815 20.7817C41.1485 20.8984 41.1294 21.0175 41.1104 21.1365C41.0946 21.235 41.0789 21.3335 41.0552 21.4301C41.0314 21.7165 40.97 21.9969 40.9088 22.2768C40.8855 22.3831 40.8622 22.4896 40.8411 22.596C40.8326 22.6489 40.8251 22.7024 40.8177 22.756C40.7914 22.9446 40.7649 23.1356 40.6901 23.3127C40.6901 23.3115 40.6902 23.3103 40.6902 23.3091C40.6902 23.3093 40.6901 23.3096 40.6901 23.3098C40.6544 23.6425 40.572 23.9554 40.443 24.2568C40.4434 24.2523 40.4439 24.2478 40.4443 24.2433C40.443 24.2478 40.4416 24.2523 40.4402 24.2568C40.196 25.0725 39.8092 25.8029 39.2387 26.4283L39.2404 26.4323C39.2143 26.4622 39.1875 26.4913 39.1608 26.5205C39.134 26.5496 39.1072 26.5788 39.0811 26.6086C38.9658 26.7508 38.845 26.8845 38.705 26.9954C38.6308 27.1177 38.5265 27.2087 38.4167 27.2968C37.291 28.2125 36.006 28.7415 34.6029 28.9718C34.5312 28.9822 34.4595 28.9936 34.3882 29.005C34.1263 29.0467 33.8661 29.0882 33.6008 29.077C33.5594 28.8997 33.4522 28.7651 33.3456 28.6311C33.2966 28.5696 33.2477 28.5082 33.2054 28.4429C32.5052 27.3423 32.0412 26.1536 31.8737 24.8426C31.858 24.7202 31.8472 24.5976 31.8367 24.4776L31.8353 24.4616C31.8327 24.442 31.8287 24.4208 31.8247 24.3991C31.8077 24.3076 31.789 24.2071 31.86 24.1772C31.9203 24.1526 31.9441 24.216 31.9686 24.2814C31.981 24.3143 31.9935 24.3477 32.011 24.3706C32.0297 24.3936 32.0459 24.4187 32.0622 24.4438C32.0842 24.4777 32.1062 24.5118 32.1346 24.5412C32.4997 24.9962 32.9885 25.1327 33.5349 25.1185C34.1191 25.1185 34.6349 24.9198 35.0931 24.5451L35.0916 24.544C35.682 23.9867 36.0169 23.2871 36.157 22.4794C36.1646 22.4421 36.1788 22.406 36.1931 22.3694C36.1995 22.3532 36.206 22.3368 36.2119 22.3202C36.2119 22.3202 36.2119 22.3202 36.2119 22.3202C36.2641 21.8851 36.3492 21.4585 36.4645 21.0348C36.4647 21.0339 36.465 21.033 36.4652 21.032C36.4641 21.033 36.4629 21.0339 36.4617 21.0348C36.4976 20.7041 36.5663 20.3795 36.6349 20.0554L36.6349 20.055C36.6713 19.8832 36.7077 19.7113 36.739 19.539C36.7468 19.4977 36.7513 19.4559 36.7559 19.4142C36.7656 19.3235 36.7754 19.2331 36.8187 19.1494L36.8221 19.1458L36.9274 18.6015L36.9277 18.5997L36.9278 18.5994L36.9279 18.5987C37.051 17.9613 37.174 17.3248 37.3019 16.6866C37.3291 16.5517 37.3536 16.416 37.3781 16.2801C37.4352 15.9636 37.4925 15.6462 37.5847 15.3358C37.622 15.2148 37.6426 15.0892 37.6632 14.9635C37.6759 14.8855 37.6887 14.8074 37.7055 14.7301H37.7028L37.7057 14.7292C37.7211 14.4816 37.7718 14.2404 37.8225 13.9996C37.846 13.8878 37.8695 13.776 37.8895 13.6637C37.9513 13.3108 38.0271 12.9619 38.103 12.6125C38.1384 12.4494 38.1739 12.2862 38.208 12.1224L38.2131 12.1096L38.217 12.0999C38.2385 11.978 38.2591 11.8561 38.2797 11.7344L38.2801 11.7323L38.2804 11.7304L38.2808 11.7283L38.2809 11.7278C38.3189 11.5032 38.3568 11.279 38.4002 11.0559C38.4962 10.5643 38.5977 10.0727 38.6993 9.58114L38.6995 9.58001C38.8573 8.81056 39.0234 8.03527 39.1894 7.26018L39.1938 7.23932C39.2005 7.09199 39.2037 7.0181 39.1696 6.98071C39.1352 6.9431 39.0632 6.94242 38.9191 6.94105L38.9109 6.94097C38.7388 6.94002 38.5668 6.93939 38.3947 6.93876C38.0506 6.93749 37.7064 6.93623 37.3623 6.93244C37.3506 6.93244 37.3381 6.93387 37.3254 6.93532C37.2815 6.94033 37.236 6.94554 37.2168 6.89262C37.201 6.84828 37.2315 6.81734 37.2611 6.78724C37.2676 6.78066 37.274 6.77412 37.28 6.7675C37.8209 6.12907 38.3611 5.49134 38.9013 4.85362C39.4415 4.2159 39.9817 3.57818 40.5226 2.93975C40.5393 2.92032 40.5591 2.90252 40.5785 2.88512L40.5789 2.88481L40.5862 2.87826L40.5934 2.87171L40.5912 2.8715C40.7999 2.62125 41.0086 2.37029 41.2172 2.11932C41.4259 1.86836 41.6346 1.61739 41.8433 1.36714C42.0217 1.15528 42.2009 0.943415 42.38 0.731553C42.5592 0.51969 42.7383 0.307827 42.9168 0.0959645C42.9992 -0.00356814 43.0541 -0.0632878 43.1282 0.110183C43.6006 1.19086 44.0743 2.26893 44.5484 3.34793C44.7742 3.86182 45.0001 4.37591 45.2259 4.8906C45.2396 4.91049 45.2452 4.93895 45.2506 4.96738Z" fill="url(#paint0_linear_13541_61024)"/>
<path fill-rule="evenodd" clip-rule="evenodd" d="M97.0528 23.3159C96.8533 23.8968 96.4968 24.2137 96.0872 24.475C95.1322 25.0783 94.0788 25.3257 92.9802 25.3785C91.8895 25.4285 90.8255 25.309 89.8492 24.7391C89.3917 24.4723 89.0352 24.1192 88.9847 23.5271C88.9794 23.466 88.9554 23.3993 89.0113 23.3548C89.0725 23.3075 89.123 23.3576 89.1656 23.3993C89.9237 24.1665 90.884 24.4361 91.8869 24.5501C93.326 24.7113 94.7279 24.5362 96.0659 23.9219C96.3878 23.7717 96.699 23.5966 97.0528 23.3159Z" fill="#009E73"/>
<path fill-rule="evenodd" clip-rule="evenodd" d="M90.9542 14.042C91.5262 14.6369 92.2204 14.9733 92.9812 15.1373C95.0136 15.5793 96.9528 15.3374 98.7537 14.2033C98.7963 14.1782 98.8389 14.1532 98.9213 14.1032C98.7723 14.6175 98.4318 14.9066 98.0621 15.1512C97.2188 15.7127 96.2798 15.9768 95.2929 16.0713C94.2368 16.1714 93.1994 16.1158 92.1992 15.7072C91.7629 15.5292 91.3745 15.2791 91.0899 14.8704C90.9143 14.6175 90.8664 14.4368 90.9542 14.042Z" fill="#009E73"/>
<path fill-rule="evenodd" clip-rule="evenodd" d="M90.3034 17.0718C91.6734 18.3422 93.2881 18.4784 94.9559 18.345C95.9694 18.2644 96.9404 17.9864 97.8315 17.4554C97.9645 17.3748 98.0949 17.2831 98.2704 17.1691C98.2093 17.5277 98.0337 17.7529 97.8076 17.9475C97.2224 18.4506 96.5414 18.7481 95.8152 18.9315C94.5862 19.2401 93.3519 19.279 92.1203 18.9427C91.5696 18.7925 91.0615 18.5535 90.6439 18.1254C90.3699 17.8418 90.2715 17.5083 90.3034 17.0718Z" fill="#009E73"/>
<path fill-rule="evenodd" clip-rule="evenodd" d="M97.4369 20.7253C97.0831 21.2424 96.575 21.5481 96.0297 21.7705C94.3326 22.4599 92.6115 22.5628 90.8771 21.9123C90.4435 21.7483 90.0657 21.4898 89.7838 21.095C89.6029 20.8421 89.563 20.5613 89.6029 20.2416C90.9941 21.5176 92.6354 21.6621 94.3485 21.4981C95.3221 21.4036 96.2505 21.1395 97.1071 20.6308C97.2427 20.5502 97.3704 20.4529 97.5034 20.3611C97.6976 20.5252 97.4688 20.6058 97.4369 20.7253Z" fill="#009E73"/>
<path fill-rule="evenodd" clip-rule="evenodd" d="M98.576 15.7705C98.3207 16.3848 97.8099 16.7128 97.2726 16.9713C95.6659 17.7358 93.998 17.8442 92.2955 17.38C91.7927 17.2438 91.3379 16.9936 90.9575 16.6183C90.7154 16.3792 90.609 16.0735 90.5744 15.7371C90.5691 15.6871 90.5638 15.6287 90.617 15.6009C90.6702 15.5731 90.7101 15.612 90.7473 15.6454C92.3487 17.0492 94.2108 17.0075 96.1154 16.6934C96.7804 16.5822 97.4136 16.3403 98.0121 16.0095C98.169 15.9233 98.318 15.8261 98.4537 15.7037C98.5202 15.6759 98.584 15.6537 98.576 15.7705Z" fill="#009E73"/>
<path fill-rule="evenodd" clip-rule="evenodd" d="M96.4969 20.1143C94.8556 20.7926 93.1877 20.9149 91.4932 20.3562C90.9931 20.1922 90.5303 19.9336 90.2004 19.475C90.0967 19.3304 90.0248 19.1775 90.0169 18.9968C89.9849 18.8745 89.9583 18.7494 90.0328 18.6327C91.9295 20.2255 94.0576 20.1282 96.2442 19.55C96.8693 19.3832 97.4439 19.0886 97.9919 18.7161C97.8057 19.361 97.2816 19.6584 96.7868 19.9865C96.6991 20.0448 96.5873 20.0532 96.4969 20.1143Z" fill="#009E73"/>
<path fill-rule="evenodd" clip-rule="evenodd" d="M95.7834 23.2817C94.1448 23.9599 92.4769 24.0684 90.7904 23.5207C90.2424 23.3428 89.721 23.076 89.423 22.5033C89.3911 22.4394 89.3486 22.3754 89.3353 22.3087C89.3033 22.1503 89.2182 21.9279 89.3326 21.8389C89.455 21.7444 89.5401 21.9724 89.6412 22.0558C90.3461 22.6479 91.1814 22.8925 92.0486 23.0092C93.7165 23.2316 95.3205 22.9953 96.8182 22.153C96.9725 22.0669 97.1161 21.9585 97.2731 21.8584C97.2571 22.2476 97.0044 22.5144 96.0733 23.1538C95.9856 23.2094 95.8738 23.2177 95.7834 23.2817Z" fill="#009E73"/>
<path fill-rule="evenodd" clip-rule="evenodd" d="M91.2061 12.4648C91.9696 13.3016 92.9299 13.6046 93.9327 13.7436C95.441 13.9548 96.9067 13.7491 98.3086 13.1042C98.556 12.9902 98.8114 12.8929 99.1173 12.7678C98.9417 13.2237 98.6198 13.4433 98.3033 13.6574C97.601 14.13 96.8189 14.3718 95.9996 14.4969C94.9116 14.6609 93.829 14.6415 92.7756 14.2856C92.2755 14.1161 91.8046 13.8798 91.4508 13.4489C91.2274 13.1765 91.1529 12.8651 91.2061 12.4648Z" fill="#009E73"/>
<defs>
<linearGradient id="paint0_linear_13541_61024" x1="33.7518" y1="29.0031" x2="43.4051" y2="0.195003" gradientUnits="userSpaceOnUse">
<stop stop-color="#1FC988"/>
<stop offset="1" stop-color="#18C5A3"/>
</linearGradient>
</defs>
</svg>
