<svg width="148" height="30" viewBox="0 0 148 30" fill="none" xmlns="http://www.w3.org/2000/svg"><path d="M17.555 11.654a6.5 6.5 0 0 0-1.127-.947 6.5 6.5 0 0 0-3.62-1.108c-1.78-.003-3.488.735-4.746 2.055l-6.1 6.378C.706 19.346.002 21.125 0 22.98c-.002 3.873 3.001 7.013 6.709 7.016 1.779.008 3.486-.73 4.742-2.045l5.034-5.26a.52.52 0 0 0 .143-.357.49.49 0 0 0-.483-.497h-.192a7.7 7.7 0 0 1-3.068-.621.465.465 0 0 0-.523.11l-3.62 3.786a2.79 2.79 0 0 1-4.071 0c-1.125-1.176-1.125-3.079 0-4.254l6.123-6.393a2.79 2.79 0 0 1 4.067 0 1.903 1.903 0 0 0 2.694 0 2.046 2.046 0 0 0 0-2.812" fill="#fff"/><path d="M27.02 2.054c-2.62-2.739-6.872-2.739-9.492 0L12.5 7.304a.52.52 0 0 0-.1.552c.076.19.254.311.452.306h.178a7.75 7.75 0 0 1 3.062.626.47.47 0 0 0 .523-.109l3.61-3.767a2.79 2.79 0 0 1 4.07 0c1.125 1.175 1.125 3.079 0 4.254l-4.496 4.694-.038.045-1.572 1.633a2.79 2.79 0 0 1-4.065 0 1.9 1.9 0 0 0-2.694 0 2.04 2.04 0 0 0-.556 1.282 2.05 2.05 0 0 0 .556 1.543 6.7 6.7 0 0 0 1.916 1.404c.1.05.202.09.302.134s.207.08.307.12.207.074.307.104l.282.08c.193.05.383.089.58.124q.357.055.714.07h.364l.287-.035c.105-.005.217-.03.34-.03h.164l.33-.05.155-.03.279-.06h.052a6.64 6.64 0 0 0 3.11-1.843l6.103-6.38c2.618-2.735 2.618-7.176-.002-9.917" fill="#F92B4E"/><path d="M18.463 18.605a7.15 7.15 0 0 0 2.068-5.03 7.1 7.1 0 0 0-2.068-5.031l-6.42-6.465A7.03 7.03 0 0 0 7.063 0C3.162-.003.002 3.18 0 7.11a7.1 7.1 0 0 0 2.058 5.025l5.294 5.335a.5.5 0 0 0 .36.152.505.505 0 0 0 .5-.512v-.204a8.6 8.6 0 0 1 .626-3.251.51.51 0 0 0-.11-.555L4.916 9.264a3.067 3.067 0 0 1 0-4.314 3.01 3.01 0 0 1 4.282 0l6.434 6.49a3.065 3.065 0 0 1 0 4.309 2.093 2.093 0 0 0 0 2.856c.343.345.798.554 1.28.59a2 2 0 0 0 1.551-.59" fill="#fff"/><path d="M27.04 27.913c2.594-2.777 2.594-7.281 0-10.058l-4.974-5.328a.45.45 0 0 0-.523-.106.51.51 0 0 0-.29.479v.188a9 9 0 0 1-.593 3.246.54.54 0 0 0 .104.554l3.569 3.824c1.113 1.192 1.113 3.122 0 4.314-1.114 1.191-2.917 1.191-4.03 0l-4.448-4.765-.042-.04-1.546-1.665c-1.111-1.19-1.111-3.117 0-4.309a2.19 2.19 0 0 0 0-2.854 1.84 1.84 0 0 0-1.215-.59 1.83 1.83 0 0 0-1.462.59c-.55.587-1 1.275-1.33 2.03-.047.106-.085.215-.127.32s-.075.22-.113.326c-.038.105-.07.219-.099.325l-.075.3a9 9 0 0 0-.118.614 8 8 0 0 0-.066.756v.386l.033.304c.005.111.028.23.028.36v.174l.047.35.029.164.056.295v.055a7.24 7.24 0 0 0 1.747 3.296l6.043 6.467c2.591 2.777 6.798 2.777 9.395-.002" fill="#F92B4E"/><path d="M56.66 6.027v3.797h-5.145V23.15h-5.279V9.824h-5.088V6.027zm7.973 4.151q1.115-.727 2.367-.726v5.083h-1.273c-.98 0-1.72.205-2.209.617q-.737.62-.736 2.142v5.857h-4.4V9.573h4.4v2.542a5.9 5.9 0 0 1 1.85-1.937m12.868-.12q1.124.608 1.666 1.679v-2.12h5.068v13.368h-5.068v-2.121q-.541 1.072-1.667 1.679-1.125.608-2.648.608-1.733 0-3.129-.822-1.396-.823-2.197-2.382t-.802-3.657.802-3.646q.8-1.55 2.197-2.37 1.396-.823 3.129-.822 1.523-.002 2.648.606m-2.897 4.218q-.738.727-.737 2.014 0 1.311.737 2.037.738.727 1.928.727 1.136 0 1.886-.739.75-.738.75-2.025 0-1.261-.75-2.002-.75-.739-1.886-.739-1.19 0-1.928.727m25.401-3.263q1.466 1.56 1.466 4.248v7.89h-5.198v-7.285q0-1.187-.68-1.852-.681-.666-1.825-.666c-.78 0-1.405.229-1.864.69q-.693.689-.693 1.9v7.213h-5.252V9.573h5.252v2.274q.64-1.09 1.864-1.741 1.226-.655 2.88-.654 2.584-.002 4.05 1.56m13.053-.272q1.593 1.286 2.003 3.407h-4.439q-.169-.716-.687-1.074-.52-.357-1.268-.358-.53 0-.808.225-.277.227-.276.632 0 .5.591.75.592.25 1.943.56 1.569.335 2.595.716a4.4 4.4 0 0 1 1.787 1.239q.76.858.76 2.31 0 1.17-.652 2.073-.651.906-1.895 1.418-1.244.513-2.931.513-2.847 0-4.535-1.216-1.69-1.214-2.052-3.479h4.56q.096.738.639 1.097.542.358 1.364.359.555.001.844-.238a.77.77 0 0 0 .288-.62q0-.573-.615-.833-.617-.262-1.967-.524-1.543-.31-2.535-.68a4.3 4.3 0 0 1-1.724-1.192q-.736-.822-.736-2.274 0-1.81 1.424-2.954 1.425-1.144 4.054-1.145 2.674 0 4.268 1.287" fill="#fff"/><path d="M128.483 10.894q1.818 1.443 2.285 3.992h-5.113q-.172-.691-.627-1.061t-1.168-.371q-.885 0-1.438.727-.555.726-.554 2.109 0 1.406.554 2.12.553.716 1.438.715.713 0 1.168-.37.455-.369.627-1.062h5.113q-.467 2.55-2.285 4.004-1.82 1.454-4.498 1.454-2.066 0-3.651-.822a5.9 5.9 0 0 1-2.469-2.382q-.885-1.56-.884-3.657 0-2.098.884-3.646a5.9 5.9 0 0 1 2.482-2.37q1.598-.823 3.638-.822 2.679.001 4.498 1.442m7.932-1.442 3.096 7.784 2.865-7.784H148L138.84 30h-5.573l3.536-7.238-6.038-13.31z" fill="#F92B4E"/></svg>