<svg width="124" height="27" viewBox="0 0 124 27" fill="none" xmlns="http://www.w3.org/2000/svg"><path d="M29.57 24.709c0 .747-.607 1.354-1.355 1.354H2.155A1.354 1.354 0 0 1 .8 24.709v-2.483c0-.747.606-1.353 1.354-1.353h26.06c.748 0 1.354.606 1.354 1.353zm-15.214-9.545c.47.336 1.1.338 1.57.004L29.57 5.506c0 3.9-1.858 7.568-5.002 9.876L19.08 19.41c-.177.13-.39.2-.608.2h-6.574c-.218 0-.431-.07-.607-.2l-5.453-4.001A12.34 12.34 0 0 1 .801 5.462z" fill="url(#a)"/><mask id="d" style="mask-type:alpha" maskUnits="userSpaceOnUse" x="0" y="5" width="30" height="15"><path d="M18.808 19.607h-7.313L2.76 13.03.801 10.068V5.46L15.163 15.7 29.55 5.524l-.18 4.344-1.505 2.912z" fill="url(#b)"/></mask><g filter="url(#c)" mask="url(#d)"><path d="M18.808 19.607h-7.246L.8 5.46 15.163 15.7 29.55 5.524z" fill="url(#e)"/></g><path d="m15.11.426 1.557 4.436 4.354 1.75-4.354 1.749-1.557 3.867-1.557-3.867L9.22 6.61l4.334-1.75z" fill="url(#g)"/><path d="M99.826 13.18c-.252-.712-.563-1.284-.951-1.693-.397-.421-.945-.717-1.606-.91h-.006a10 10 0 0 0-1.77-.314c-.542-.062-1.342-.095-2.391-.095-.789 0-1.55.024-2.28.062h-.011a9.3 9.3 0 0 0-1.965.406h-.006c-.635.19-1.15.477-1.506.878h-.003l-.003.006c-.409.432-.717 1.01-.948 1.722-.237.723-.35 1.558-.35 2.486v5.054c0 1.01.116 1.87.359 2.572l.003.01.008.032c.021.047.048.124.092.228.006.012.01.03.021.041l.006.012c.06.137.13.279.21.392.006.008.021.02.027.03q.498.786 1.378 1.188a6.8 6.8 0 0 0 2.022.598h.008c.673.107 1.657.151 2.935.151.732 0 1.458-.02 2.19-.056h.13c.024 0 .042-.006.068-.006.042 0 .083-.006.113-.009 0 0 .006 0 .006-.003a10 10 0 0 0 1.749-.352c.64-.19 1.161-.469 1.538-.848.883-.883 1.28-2.235 1.28-3.986v-5.054c0-.948-.113-1.802-.35-2.546v-.006h.006zm-3.334 9.368-.038.107a1 1 0 0 1-.543.545h-.006l-.006.006a2.9 2.9 0 0 1-.99.293c-.361.036-.957.06-1.802.06-.844 0-1.434-.024-1.802-.06a3 3 0 0 1-.99-.293h-.005l-.006-.006a1.14 1.14 0 0 1-.593-.587c-.116-.323-.184-.791-.184-1.428v-5.898c0-.893.113-1.465.288-1.782V13.5c.166-.317.441-.527.874-.625h.006c.498-.125 1.292-.202 2.41-.202 1.117 0 1.9.072 2.376.202h.012c.457.107.741.32.901.631v.006c.175.317.288.892.288 1.779v5.898h.003c0 .598-.071 1.043-.19 1.36zm25.811-12.079h-2.789a.324.324 0 0 0-.323.323v14.926c0 .178.145.323.323.323h2.789a.324.324 0 0 0 .323-.323V10.792a.324.324 0 0 0-.323-.323m.803-5.123-1.973-1.971a.326.326 0 0 0-.457 0l-1.974 1.97a.32.32 0 0 0 0 .457l1.974 1.971a.32.32 0 0 0 .457 0l1.973-1.971a.32.32 0 0 0 0-.456m-7.931 12.774a3 3 0 0 0-.676-.694h.003c-.859-.643-2.101-.93-3.672-.93h-1.686c-.869 0-1.468-.122-1.838-.323a.94.94 0 0 1-.365-.33.84.84 0 0 1-.115-.456v-1.206c0-.29.059-.51.157-.679.098-.166.246-.3.468-.403.492-.207 1.349-.329 2.623-.329.708 0 1.77.098 3.171.29a96 96 0 0 1 1.826.276l.062.01a.32.32 0 0 0 .359-.321v-2.16a.32.32 0 0 0-.276-.32h-.003l-.08-.01a45 45 0 0 0-1.843-.205h-.03l-.047-.002a35 35 0 0 0-2.641-.142c-.136-.003-.237-.006-.293-.006h-.205q-1.49 0-2.664.213c-.021 0-.039.006-.06.009-.112.024-.216.042-.326.068q-1.102.235-1.876.694c-1.176.723-1.739 1.932-1.739 3.527v.634c0 1.159.394 2.107 1.194 2.798.024.024.047.038.068.062 0 0 .015.02.036.033.003 0 .006.006.009.009l.006.003q.006.002.011.008c.89.68 2.128.993 3.661.993h1.659c.928 0 1.524.13 1.859.335.287.178.462.48.462 1.014v1.476c0 .29-.059.51-.157.679a1.05 1.05 0 0 1-.468.403c-.492.207-1.349.329-2.623.329-.72 0-1.802-.101-3.234-.297h-.006l-1.808-.278h-.029a.32.32 0 0 0-.344.317v2.16c0 .16.119.3.282.32.379.048 1.064.131 1.627.19.252.027.483.048.646.063h.021q1.422.116 2.732.121h.11c2.14-.006 3.799-.317 4.923-.984 1.176-.723 1.739-1.932 1.739-3.527v-1.265c0-.854-.207-1.58-.619-2.167zM82.459 3.972h-2.795a.324.324 0 0 0-.323.323v6.846a3.5 3.5 0 0 0-.93-.468c-.952-.335-2.078-.5-3.37-.5q-1.745-.002-3 .299c-.702.168-1.292.406-1.751.729a3.3 3.3 0 0 0-.783.797c-.486.69-.72 1.588-.72 2.658v6.408c0 1.215.184 2.203.59 2.94v.006c.426.747 1.105 1.28 1.994 1.604h.006c.72.246 1.657.385 2.78.424.685.044 1.375.035 2.06.035 1.263 0 2.534.021 3.767-.323.634-.178 1.165-.433 1.574-.788.847-.777 1.23-1.953 1.23-3.453V4.292a.324.324 0 0 0-.323-.323h-.003zm-3.154 18.002q-.047.27-.166.474a1.35 1.35 0 0 1-.596.546c-.438.228-1.129.382-2.089.441-.305.021-.634.03-.999.03-1.31 0-2.166-.172-2.64-.456-.41-.258-.644-.7-.644-1.435v-7.19c0-.759.229-1.115.549-1.269q.082-.038.201-.077.284-.093.824-.157c.504-.06 1.15-.086 1.944-.086 1.316 0 2.253.166 2.846.454.29.142.486.308.61.492.119.177.187.39.187.652v6.98h.006c0 .237-.015.438-.036.604zM64.96 10.469h-2.78a.324.324 0 0 0-.323.323V21.36c0 .353-.03.622-.077.824a2.4 2.4 0 0 1-.343.596.9.9 0 0 1-.297.258c-.77.456-1.695.42-2.555.385-.806-.033-1.713.041-2.43-.386a1 1 0 0 1-.305-.266 2.4 2.4 0 0 1-.332-.584 3.7 3.7 0 0 1-.077-.824v-10.57a.324.324 0 0 0-.323-.322h-2.79a.324.324 0 0 0-.322.323v10.717c0 1.503.388 2.68 1.239 3.462.403.35.93.604 1.568.78 1.271.352 2.599.322 3.906.322s2.534.021 3.767-.323c.634-.177 1.164-.432 1.573-.788.848-.776 1.23-1.953 1.23-3.456V10.792a.324.324 0 0 0-.323-.323zM49.342 5.504h-3.264c-.1 0-.198.047-.257.13l-.581.777-.389.516-3.61 4.819-.61.732-.937 1.123-.874 1.043V5.83a.324.324 0 0 0-.323-.323h-3a.324.324 0 0 0-.322.323v19.938c0 .178.145.323.323.323h3a.324.324 0 0 0 .322-.323v-9.882l5.208 8.305.892 1.423.207.329c.06.095.163.15.276.15h3.48a.326.326 0 0 0 .272-.5l-.074-.116-.006-.006-.163-.245-1.064-1.625-.323-.489-.134-.201-1.804-2.754-.167-.255-2.93-4.561 4.916-6.467.688-.901h.003l1.5-1.944a.323.323 0 0 0-.255-.52z" fill="#fff"/><defs><linearGradient id="a" x1=".801" y1="15.762" x2="61.832" y2="15.586" gradientUnits="userSpaceOnUse"><stop offset=".234" stop-color="#F60"/><stop offset="1" stop-color="#CB3700"/></linearGradient><linearGradient id="b" x1="27.572" y1="14.13" x2="-6.992" y2="3.832" gradientUnits="userSpaceOnUse"><stop stop-color="#FC9D5A"/><stop offset=".5" stop-color="#FF5C00"/><stop offset="1" stop-color="#C91400"/></linearGradient><linearGradient id="e" x1="15.185" y1="5.461" x2="15.215" y2="35.471" gradientUnits="userSpaceOnUse"><stop offset=".144" stop-color="#FF912C"/><stop offset="1" stop-color="#F54706"/></linearGradient><linearGradient id="g" x1="15.12" y1=".426" x2="15.172" y2="25.465" gradientUnits="userSpaceOnUse"><stop offset=".144" stop-color="#FF912C"/><stop offset="1" stop-color="#F54706"/></linearGradient><filter id="c" x="-13.641" y="-6.307" width="57.632" height="43.028" filterUnits="userSpaceOnUse" color-interpolation-filters="sRGB"><feFlood flood-opacity="0" result="BackgroundImageFix"/><feColorMatrix in="SourceAlpha" values="0 0 0 0 0 0 0 0 0 0 0 0 0 0 0 0 0 0 127 0" result="hardAlpha"/><feOffset dy="2.674"/><feGaussianBlur stdDeviation="7.221"/><feComposite in2="hardAlpha" operator="out"/><feColorMatrix values="0 0 0 0 0.461667 0 0 0 0 0.2216 0 0 0 0 0 0 0 0 0.25 0"/><feBlend in2="BackgroundImageFix" result="effect1_dropShadow_13541_61002"/><feBlend in="SourceGraphic" in2="effect1_dropShadow_13541_61002" result="shape"/></filter></defs></svg>