<svg width="156" height="34" viewBox="0 0 156 34" fill="none" xmlns="http://www.w3.org/2000/svg"><path d="M32.27 17c0 8.183-6.634 14.817-14.817 14.817S2.636 25.183 2.636 16.999 9.27 2.182 17.453 2.182 32.27 8.816 32.27 16.999" fill="#fff"/><path d="M17.46.5C8.344.5.96 7.884.96 17s7.384 16.5 16.5 16.5 16.5-7.384 16.5-16.5S26.576.5 17.46.5m-1.63 6.724c1.692 1.547 2.496 3.155 2.744 4.702 1.753-1.32 3.898-1.608 5.362-1.485.66 7.075-5.239 8.93-8.25 8.972-5.466-5.59-2.186-10.457.145-12.19m9.736 17.366a11.5 11.5 0 0 1-8.106 3.362c-3.032 0-5.96-1.217-8.106-3.362a11.5 11.5 0 0 1-3.362-8.106h2.31c0 2.434.97 4.765 2.682 6.477a9.163 9.163 0 0 0 12.952 0 9.16 9.16 0 0 0 2.681-6.477h2.31c0 3.053-1.216 5.961-3.361 8.106" fill="#BB254A"/><path d="M75.127 22.667q-1.401 0-2.423-.46a4.9 4.9 0 0 1-1.681-1.262 5.7 5.7 0 0 1-1.001-1.781 6.54 6.54 0 0 1-.02-3.984 5.6 5.6 0 0 1 .96-1.782 4.6 4.6 0 0 1 1.662-1.262q1.02-.48 2.403-.48 1.461 0 2.582.64 1.141.642 1.782 1.902.64 1.242.64 3.024v.74h-7.267q.06.962.661 1.662.62.7 1.702.7.62 0 1-.18a2.1 2.1 0 0 0 .622-.44q.219-.26.3-.46l.08-.2h2.803l-.1.38q-.081.36-.36.9-.281.542-.822 1.082-.52.54-1.381.901-.861.36-2.142.36m-2.363-6.547h4.345q-.06-1.1-.66-1.641-.602-.54-1.482-.54-.881 0-1.502.58-.62.561-.7 1.601m-14.767 6.347v-10.61h3.043v1.52h.1q.18-.32.52-.72.361-.4.942-.7.6-.301 1.521-.301 1.242 0 2.022.58.78.56 1.142 1.462.36.88.36 1.862v6.907h-3.043v-6.386q0-.762-.42-1.342-.401-.58-1.302-.58-.68 0-1.081.32t-.58.82-.18 1.062v6.106zm-9.458.202q-1.841 0-3.243-.64a7.3 7.3 0 0 1-2.362-1.743 7.7 7.7 0 0 1-1.422-2.462 8.6 8.6 0 0 1-.46-2.783q0-1.422.46-2.763a7.5 7.5 0 0 1 1.422-2.442 7 7 0 0 1 2.362-1.722q1.401-.66 3.244-.66 1.861 0 3.263.66 1.401.64 2.342 1.722a7.2 7.2 0 0 1 1.402 2.442q.48 1.341.48 2.763t-.48 2.783a7.4 7.4 0 0 1-1.402 2.462q-.94 1.082-2.342 1.742-1.401.64-3.264.64m0-2.783q1.402 0 2.363-.7a4.34 4.34 0 0 0 1.441-1.803q.48-1.12.48-2.342t-.48-2.322a4.34 4.34 0 0 0-1.441-1.802q-.96-.7-2.362-.701-1.402 0-2.363.7a4.4 4.4 0 0 0-1.421 1.803 5.7 5.7 0 0 0-.48 2.322q0 1.221.48 2.342.48 1.102 1.421 1.802.96.7 2.363.701m97.99 6.66q-.531 0-.846-.04l-.315-.039v-2.401l.256.02q.275.019.669.019.945 0 1.555-.276.61-.255 1.063-1.023l-3.858-10.533h2.992l2.422 7.068 2.362-7.068h3.012l-3.74 10.02q-.512 1.438-1.241 2.383a4.3 4.3 0 0 1-1.752 1.398q-1.043.472-2.579.472m-4.512-3.642q-1.22 0-1.949-.355-.729-.373-1.102-.925a3.3 3.3 0 0 1-.493-1.2 6.4 6.4 0 0 1-.118-1.162v-4.607h-1.772v-2.382h1.772v-2.58h2.993v2.58h2.224v2.382h-2.224v4.528q0 .65.334 1.004.355.354 1.162.354.354 0 .65-.059l.295-.059v2.304l-.532.078a7 7 0 0 1-1.24.099m-10.349-.198V7.743h2.992v14.962zm-8.759-10.631q1.005 0 1.654.335.65.315.984.689.355.375.434.512h.157v-1.34h2.993v10.435h-2.993v-1.34h-.157q-.079.139-.434.513-.334.373-.984.708-.65.315-1.654.315-1.161 0-2.027-.453a4.4 4.4 0 0 1-1.418-1.24 5.9 5.9 0 0 1-.866-1.752 7.1 7.1 0 0 1-.276-1.969q0-1.004.276-1.968a5.6 5.6 0 0 1 .866-1.733 4.15 4.15 0 0 1 1.418-1.24q.866-.473 2.027-.473m.867 2.422q-.808 0-1.359.453a2.7 2.7 0 0 0-.807 1.122q-.256.69-.256 1.417 0 .729.256 1.418.276.69.807 1.142.551.432 1.359.433.807 0 1.338-.433.552-.453.808-1.142a3.8 3.8 0 0 0 0-2.835 2.5 2.5 0 0 0-.808-1.122q-.531-.453-1.338-.453m-15.594 12.05a7 7 0 0 1-.847-.04l-.315-.039v-2.401l.256.02q.276.019.669.019.945 0 1.556-.276.61-.255 1.063-1.023l-3.859-10.533h2.993l2.421 7.068 2.363-7.068h3.012l-3.741 10.02q-.511 1.438-1.24 2.383a4.3 4.3 0 0 1-1.752 1.398q-1.044.472-2.579.472m-7.886-3.643q-1.752 0-2.973-.748a5.2 5.2 0 0 1-1.87-1.988 5.8 5.8 0 0 1-.63-2.678q0-1.437.63-2.657a5.04 5.04 0 0 1 1.87-1.989q1.221-.768 2.973-.768t2.973.768a4.9 4.9 0 0 1 1.85 1.989q.65 1.22.65 2.657 0 1.436-.65 2.678a5.07 5.07 0 0 1-1.85 1.988q-1.221.748-2.973.748m0-2.44q.788 0 1.319-.414.552-.414.847-1.083.295-.69.295-1.477 0-.807-.295-1.476a2.7 2.7 0 0 0-.847-1.083q-.531-.414-1.319-.414t-1.339.414-.846 1.083a3.8 3.8 0 0 0-.276 1.476q0 .788.276 1.477.295.669.846 1.083.552.413 1.339.413m-17.233 2.244V8.137h3.031v11.93h7.127v2.638z" fill="#fff"/></svg>