<svg width="158" height="46" viewBox="0 0 158 46" fill="none" xmlns="http://www.w3.org/2000/svg"><path d="M89.351 25.033c0-5.192 3.883-9.025 9.019-9.025s9.048 3.834 9.048 9.025c0 5.19-3.911 9.024-9.048 9.024s-9.019-3.805-9.019-9.025m14.39 0c0-3.303-2.306-5.604-5.37-5.604S93 21.76 93 25.033s2.306 5.573 5.37 5.573c3.066 0 5.371-2.33 5.371-5.574M138.397 11.5h-3.752v22.562h3.752zm-20.607 4.512c-1.997 0-3.805.58-5.268 1.593V11.5h-3.751v13.537c0 1.176.197 2.28.562 3.286 1.251 3.456 4.478 5.739 8.457 5.739 5.138 0 9.049-3.775 9.049-9.025s-3.911-9.025-9.049-9.025m0 14.6c-2.685 0-4.788-1.79-5.268-4.414a6.7 6.7 0 0 1 0-2.33c.48-2.646 2.583-4.434 5.268-4.434 3.065 0 5.37 2.3 5.37 5.603s-2.276 5.575-5.37 5.575M87.999 13.88v20.182h-3.751V19.047L76.27 32.872a2.38 2.38 0 0 1-2.06 1.19h-.592a2.38 2.38 0 0 1-2.378-2.38V19.047l-8.66 15.015h-4.342l3.75-6.507 7.26-12.595 1.308-2.27a2.378 2.378 0 0 1 4.438 1.19v13.674l7.259-12.594 1.308-2.27a2.378 2.378 0 0 1 4.438 1.19m43.943 4.386h-3.752v15.793h3.752zm-1.876-1.109a1.877 1.877 0 1 0-.001-3.754 1.877 1.877 0 0 0 .001 3.754m27.689 5.782c-.942-3.975-4.513-6.931-8.773-6.931s-7.831 2.956-8.773 6.93a9 9 0 0 0-.179 3.186 9.018 9.018 0 0 0 17.322 2.271h-3.781a5.68 5.68 0 0 1-4.589 2.33 5.68 5.68 0 0 1-4.589-2.33 5.7 5.7 0 0 1-.994-2.271h13.519c.592 0 1.081-.477 1.082-1.07v-.021a9 9 0 0 0-.245-2.094m-14.064 0a5.69 5.69 0 0 1 5.29-3.598 5.69 5.69 0 0 1 5.291 3.598zm-85.049 0c-.942-3.975-4.513-6.931-8.773-6.931s-7.83 2.956-8.773 6.93a9 9 0 0 0-.179 3.186 9.018 9.018 0 0 0 17.322 2.271h-3.78a5.68 5.68 0 0 1-4.59 2.33 5.68 5.68 0 0 1-4.589-2.33 5.7 5.7 0 0 1-.994-2.271h13.518a1.08 1.08 0 0 0 1.083-1.07v-.021a9 9 0 0 0-.245-2.094m-14.064 0a5.69 5.69 0 0 1 5.291-3.598 5.69 5.69 0 0 1 5.29 3.598zm-20 11.118V23.528c0-4.392 2.888-7.52 7.443-7.52 4.556 0 7.473 3.129 7.473 7.52v10.53h-3.78v-10.5c0-2.496-1.43-4-3.693-4s-3.691 1.505-3.691 4v10.5zM11.272 11.5a11.27 11.27 0 0 0-9.778 5.662h4.977a7.36 7.36 0 0 1 4.8-1.773c4.08 0 7.386 3.31 7.386 7.392 0 .644-.082 1.269-.236 1.865h3.97q.151-.91.153-1.865c0-6.23-5.047-11.281-11.272-11.281" fill="#fff" fill-opacity=".5"/><path d="M12.126 26.428a3.742 3.742 0 0 0-1.717-7.284 3.742 3.742 0 0 0 1.717 7.284" fill="#fff" fill-opacity=".5"/><path d="M16.072 28.397a7.35 7.35 0 0 1-4.8 1.774 7.39 7.39 0 0 1-7.386-7.392c0-.645.082-1.27.236-1.865H.152q-.151.91-.152 1.865c0 6.23 5.046 11.28 11.272 11.28 4.181 0 7.83-2.277 9.777-5.662z" fill="#fff" fill-opacity=".5"/></svg>