<svg xmlns="http://www.w3.org/2000/svg" width="31" height="30" viewBox="0 0 31 30" fill="none">
  <path d="M15.5427 0C9.97216 0 5.11263 3.02879 2.51953 7.52878H9.14823C10.867 6.05998 13.1009 5.17078 15.5427 5.17078C20.9763 5.17078 25.3794 9.57237 25.3794 15C25.3794 15.8567 25.2701 16.6871 25.0648 17.4803H30.3519C30.4864 16.6739 30.556 15.8459 30.556 15C30.556 6.71638 23.8337 0 15.5427 0Z" fill="#FF004F"/>
  <path d="M16.685 19.85C19.3616 19.2189 21.0193 16.5393 20.3876 13.865C19.7558 11.1908 17.0739 9.53457 14.3972 10.1657C11.7206 10.7969 10.0629 13.4765 10.6947 16.1507C11.3264 18.825 14.0084 20.4812 16.685 19.85Z" fill="#FF004F"/>
  <path d="M21.934 22.4738C20.2152 23.9438 17.9812 24.8318 15.5407 24.8318C10.1059 24.8318 5.70274 20.4314 5.70274 15.0026C5.70274 14.1458 5.81203 13.3154 6.01742 12.5234H0.730317C0.595798 13.3298 0.527344 14.1578 0.527344 15.0026C0.527344 23.2874 7.24851 30.0026 15.5407 30.0026C21.11 30.0026 25.9695 26.9738 28.5626 22.4738H21.934Z" fill="#FF004F"/>
</svg>